<svg xmlns="http://www.w3.org/2000/svg" xmlns:xlink="http://www.w3.org/1999/xlink" width="133" height="133" viewBox="0 0 133 133">
  <defs>
    <clipPath id="clip-path">
      <rect id="Rectángulo_373851" data-name="Rectángulo 373851" width="133" height="133" transform="translate(-10112 -9541)" fill="#fff"/>
    </clipPath>
  </defs>
  <g id="Enmascarar_grupo_1059049" data-name="Enmascarar grupo 1059049" transform="translate(10112 9541)" clip-path="url(#clip-path)">
    <g id="propiedad-intelectual" transform="translate(-10112.009 -9541)">
      <g id="Grupo_1064660" data-name="Grupo 1064660">
        <g id="Grupo_1064659" data-name="Grupo 1064659">
          <path id="Trazado_797446" data-name="Trazado 797446" d="M99.451,123.321H37.991a5.582,5.582,0,0,1-3.951-1.639L20.5,108.125a5.583,5.583,0,0,1-1.632-3.945V15.446a1.117,1.117,0,0,1,1.117-1.117H99.451a1.117,1.117,0,0,1,1.117,1.117V122.2A1.117,1.117,0,0,1,99.451,123.321Z" fill="#aee0f4"/>
          <path id="Trazado_797447" data-name="Trazado 797447" d="M57.752,7.712a5.763,5.763,0,0,0-5.974-5.76,5.854,5.854,0,0,0-5.553,5.9v3.708H57.752V7.712Z" fill="#fbc96d"/>
          <path id="Trazado_797448" data-name="Trazado 797448" d="M90.046,25.347l1.789,103.564a1.115,1.115,0,0,1-1.117,1.117l-8.326,1.024H34.138a5.172,5.172,0,0,1-2.153-.468L30.867,113.02a1.039,1.039,0,0,0-1.039-1.039l-18.219-1.8a5.16,5.16,0,0,1-.468-2.151V23.176a1.119,1.119,0,0,1,1.117-1.117h74.6l2.066,2.171A1.117,1.117,0,0,1,90.046,25.347Z" fill="#dff8ff"/>
          <path id="Trazado_797449" data-name="Trazado 797449" d="M31.984,111.221v19.363a5.155,5.155,0,0,1-1.522-1.057L12.66,111.7a5.187,5.187,0,0,1-1.052-1.522H30.945A1.039,1.039,0,0,1,31.984,111.221Z" fill="#aee0f4"/>
          <path id="Trazado_797450" data-name="Trazado 797450" d="M70.041,26.392h-36.1A1.039,1.039,0,0,1,32.9,25.353V13.562a3.9,3.9,0,0,1,3.9-3.9H67.184a3.9,3.9,0,0,1,3.9,3.9v11.79A1.039,1.039,0,0,1,70.041,26.392Z" fill="#ffda8f"/>
          <path id="Trazado_797451" data-name="Trazado 797451" d="M91.72,22.059H86.862V125.321a5.732,5.732,0,0,1-5.73,5.73H91.72a1.117,1.117,0,0,0,1.117-1.117V23.176A1.117,1.117,0,0,0,91.72,22.059Z" fill="#c0ecfc"/>
        </g>
        <path id="Trazado_797452" data-name="Trazado 797452" d="M67.948,82.4A17.978,17.978,0,0,0,64.706,71.75,16.66,16.66,0,0,0,37.2,90.18a28.337,28.337,0,0,0,7.812,6.787,4.577,4.577,0,0,1,2.328,3.961v2.944h8.838V100.94a4.512,4.512,0,0,1,2.258-3.933C63.481,94.145,67.948,88.612,67.948,82.4Z" fill="#ffda8f"/>
        <path id="Trazado_797453" data-name="Trazado 797453" d="M68.65,82.509a16.649,16.649,0,0,1-8.453,14.5,4.515,4.515,0,0,0-2.257,3.933v3.973h-11.9v-3.986a4.575,4.575,0,0,0-2.328-3.959A16.737,16.737,0,0,1,37.2,90.18,17.8,17.8,0,0,0,64.706,71.75,16.582,16.582,0,0,1,68.65,82.509Z" fill="#fbc96d"/>
        <path id="Trazado_797454" data-name="Trazado 797454" d="M51.988,119.821h0a4.628,4.628,0,0,1-4.628-4.628v-5.683h9.256v5.683A4.628,4.628,0,0,1,51.988,119.821Z" fill="#8c7f8a"/>
        <path id="Trazado_797455" data-name="Trazado 797455" d="M58.652,111.669H45.325A1.667,1.667,0,0,1,43.658,110v-4.464a1.667,1.667,0,0,1,1.667-1.667H58.652a1.667,1.667,0,0,1,1.667,1.667V110A1.667,1.667,0,0,1,58.652,111.669Z" fill="#9b8f96"/>
        <path id="Trazado_797456" data-name="Trazado 797456" d="M105.8,108.645l-8.838-4.657a.824.824,0,0,0-.769,0l-8.838,4.657a.824.824,0,0,1-1.209-.729V85.694l1.582-3.1-1.582-10.8h20.863l-1.335,11.24,1.335,2.661v22.222A.824.824,0,0,1,105.8,108.645Z" fill="#fe646f"/>
        <path id="Trazado_797457" data-name="Trazado 797457" d="M107.007,71.794v13.9l-.694.055a3.209,3.209,0,0,0-1.421.46l-4.891,3a6.545,6.545,0,0,1-6.85,0l-4.891-3a3.208,3.208,0,0,0-1.421-.46l-.694-.055v-13.9h20.862Z" fill="#fb4754"/>
        <path id="Trazado_797458" data-name="Trazado 797458" d="M120.917,65.568a1.1,1.1,0,0,1-.356,1.1l-5.527,4.166a1.128,1.128,0,0,0-.3.418l-2.383,6.825a1.1,1.1,0,0,1-.93.675l-7.531.592a1.1,1.1,0,0,0-.488.158l-6.263,4.141a1.1,1.1,0,0,1-1.151,0L89.548,79.7a1.1,1.1,0,0,0-.488-.158l-7-.513a1.1,1.1,0,0,1-.93-.675l-3.17-5.585-.231-.558a1.128,1.128,0,0,0-.3-.418l-5.749-4.9a1.1,1.1,0,0,1-.356-1.094L73.1,58.455a1.087,1.087,0,0,0,0-.517L71.323,50.6a1.106,1.106,0,0,1,.356-1.1l5.749-4.9a1.047,1.047,0,0,0,.3-.416l2.883-6.982a1.105,1.105,0,0,1,.93-.675l7.531-.59a1.1,1.1,0,0,0,.488-.158L96,31.834a1.1,1.1,0,0,1,1.151,0l6.437,3.948a1.1,1.1,0,0,0,.491.158l7.528.59a1.1,1.1,0,0,1,.93.675l2.883,6.982a1.1,1.1,0,0,0,.3.416l1.219,1.038,3.519,4.083a1.1,1.1,0,0,1,.356,1.1L119.2,57.678a1.087,1.087,0,0,0,0,.517Z" fill="#fd8087"/>
        <path id="Trazado_797459" data-name="Trazado 797459" d="M121.829,65.8a1.1,1.1,0,0,1-.356,1.1l-5.749,4.894a1.128,1.128,0,0,0-.3.418l-2.883,6.98a1.1,1.1,0,0,1-.93.675l-7.531.592a1.1,1.1,0,0,0-.488.158l-6.437,3.946a1.1,1.1,0,0,1-1.151,0L89.563,80.61a1.1,1.1,0,0,0-.488-.158l-7.531-.592a1.1,1.1,0,0,1-.93-.675l-2.652-6.421a26.192,26.192,0,0,0,39.365-22.631,26.345,26.345,0,0,0-.384-4.489l4.53,3.858a1.1,1.1,0,0,1,.356,1.1l-1.774,7.341a1.087,1.087,0,0,0,0,.517Z" fill="#fe646f"/>
        <path id="Trazado_797460" data-name="Trazado 797460" d="M108.63,58.2c0,7.026-5.028,11.389-12.054,11.389-5.1,0-8.652-2.062-11.53-6a12.727,12.727,0,0,1,16.913-16.913C105.745,49.709,108.63,53.094,108.63,58.2Z" fill="#ffda8f"/>
        <path id="Trazado_797461" data-name="Trazado 797461" d="M109.3,58.2A12.724,12.724,0,0,1,85.046,63.58a12.725,12.725,0,0,0,16.913-16.913A12.719,12.719,0,0,1,109.3,58.2Z" fill="#fbc96d"/>
      </g>
      <g id="Grupo_1064663" data-name="Grupo 1064663">
        <line id="Línea_309" data-name="Línea 309" x1="46.597" transform="translate(24.497 51.798)" fill="none" stroke="#000" stroke-linecap="round" stroke-linejoin="round" stroke-miterlimit="10" stroke-width="3.896"/>
        <line id="Línea_310" data-name="Línea 310" y1="7.702" transform="translate(107.007 80.738)" fill="none" stroke="#000" stroke-linecap="round" stroke-linejoin="round" stroke-miterlimit="10" stroke-width="3.896"/>
        <path id="Trazado_797462" data-name="Trazado 797462" d="M107.007,97.532v10.383a.824.824,0,0,1-1.208.73l-8.837-4.655a.822.822,0,0,0-.769,0l-8.84,4.655a.824.824,0,0,1-1.208-.73V80.787" fill="none" stroke="#000" stroke-linecap="round" stroke-linejoin="round" stroke-miterlimit="10" stroke-width="3.896"/>
        <path id="Trazado_797463" data-name="Trazado 797463" d="M97.15,31.835l6.439,3.947a1.1,1.1,0,0,0,.489.159l7.529.59a1.1,1.1,0,0,1,.93.676l2.884,6.981a1.1,1.1,0,0,0,.3.417l5.749,4.9a1.1,1.1,0,0,1,.356,1.1l-1.775,7.341a1.1,1.1,0,0,0,0,.517l1.775,7.341a1.1,1.1,0,0,1-.356,1.1l-5.75,4.9a1.1,1.1,0,0,0-.3.417l-2.884,6.981a1.1,1.1,0,0,1-.93.676l-7.529.59a1.1,1.1,0,0,0-.489.159L97.15,84.557a1.1,1.1,0,0,1-1.149,0L89.563,80.61a1.1,1.1,0,0,0-.489-.159l-7.529-.59a1.1,1.1,0,0,1-.93-.676L77.731,72.2a1.1,1.1,0,0,0-.3-.417l-5.749-4.9a1.1,1.1,0,0,1-.356-1.1L73.1,58.455a1.1,1.1,0,0,0,0-.517L71.322,50.6a1.1,1.1,0,0,1,.356-1.1l5.75-4.9a1.1,1.1,0,0,0,.3-.417l2.884-6.981a1.1,1.1,0,0,1,.93-.676l7.529-.59a1.1,1.1,0,0,0,.489-.159L96,31.835A1.1,1.1,0,0,1,97.15,31.835Z" fill="none" stroke="#000" stroke-linecap="round" stroke-linejoin="round" stroke-miterlimit="10" stroke-width="3.896"/>
        <g id="Grupo_1064662" data-name="Grupo 1064662">
          <g id="Grupo_1064661" data-name="Grupo 1064661">
            <path id="Trazado_797464" data-name="Trazado 797464" d="M57.939,103.663V100.94A4.512,4.512,0,0,1,60.2,97.007a16.662,16.662,0,1,0-16.488-.04,4.577,4.577,0,0,1,2.328,3.961v2.819" fill="none" stroke="#000" stroke-linecap="round" stroke-linejoin="round" stroke-miterlimit="10" stroke-width="3.896"/>
            <path id="Trazado_797465" data-name="Trazado 797465" d="M58.652,111.669H45.325A1.667,1.667,0,0,1,43.658,110v-4.464a1.667,1.667,0,0,1,1.667-1.667H58.652a1.667,1.667,0,0,1,1.667,1.667V110A1.667,1.667,0,0,1,58.652,111.669Z" fill="none" stroke="#000" stroke-linecap="round" stroke-linejoin="round" stroke-miterlimit="10" stroke-width="3.896"/>
            <path id="Trazado_797466" data-name="Trazado 797466" d="M56.617,112.043v3.15a4.628,4.628,0,0,1-4.628,4.628h0a4.628,4.628,0,0,1-4.628-4.628v-3.284" fill="none" stroke="#000" stroke-linecap="round" stroke-linejoin="round" stroke-miterlimit="10" stroke-width="3.896"/>
          </g>
          <path id="Trazado_797467" data-name="Trazado 797467" d="M46.617,83.462l5.372,5.372,5.372-5.372" fill="none" stroke="#000" stroke-linecap="round" stroke-linejoin="round" stroke-miterlimit="10" stroke-width="3.896"/>
          <line id="Línea_311" data-name="Línea 311" y1="5.118" transform="translate(51.988 89.346)" fill="none" stroke="#000" stroke-linecap="round" stroke-linejoin="round" stroke-miterlimit="10" stroke-width="3.896"/>
        </g>
        <circle id="Elipse_8307" data-name="Elipse 8307" cx="12.722" cy="12.722" r="12.722" transform="translate(83.854 45.474)" fill="none" stroke="#000" stroke-linecap="round" stroke-linejoin="round" stroke-miterlimit="10" stroke-width="3.896"/>
        <line id="Línea_312" data-name="Línea 312" x2="17.65" transform="translate(43.163 41.407)" fill="none" stroke="#000" stroke-linecap="round" stroke-linejoin="round" stroke-miterlimit="10" stroke-width="3.896"/>
        <path id="Trazado_797468" data-name="Trazado 797468" d="M18.871,21.628V15.446a1.117,1.117,0,0,1,1.117-1.117h12.62" fill="none" stroke="#000" stroke-linecap="round" stroke-linejoin="round" stroke-miterlimit="10" stroke-width="3.896"/>
        <path id="Trazado_797469" data-name="Trazado 797469" d="M100.567,106.529V122.2a1.117,1.117,0,0,1-1.117,1.117H93.31" fill="none" stroke="#000" stroke-linecap="round" stroke-linejoin="round" stroke-miterlimit="10" stroke-width="3.896"/>
        <path id="Trazado_797470" data-name="Trazado 797470" d="M71.322,14.329H99.45a1.117,1.117,0,0,1,1.117,1.117V33.526" fill="none" stroke="#000" stroke-linecap="round" stroke-linejoin="round" stroke-miterlimit="10" stroke-width="3.896"/>
        <path id="Trazado_797471" data-name="Trazado 797471" d="M57.752,9.293V7.712a5.763,5.763,0,1,0-11.527,0V9.259" fill="none" stroke="#000" stroke-linecap="round" stroke-linejoin="round" stroke-miterlimit="10" stroke-width="3.896"/>
        <path id="Trazado_797472" data-name="Trazado 797472" d="M11.14,89.739V23.176a1.119,1.119,0,0,1,1.117-1.117H32.61" fill="none" stroke="#000" stroke-linecap="round" stroke-linejoin="round" stroke-miterlimit="10" stroke-width="3.896"/>
        <path id="Trazado_797473" data-name="Trazado 797473" d="M92.836,106.53v23.4a1.115,1.115,0,0,1-1.117,1.117H81.731" fill="none" stroke="#000" stroke-linecap="round" stroke-linejoin="round" stroke-miterlimit="10" stroke-width="3.896"/>
        <path id="Trazado_797474" data-name="Trazado 797474" d="M11.14,98.83v9.2a5.205,5.205,0,0,0,1.52,3.673l17.8,17.823a5.19,5.19,0,0,0,3.676,1.525h38.5" fill="none" stroke="#000" stroke-linecap="round" stroke-linejoin="round" stroke-miterlimit="10" stroke-width="3.896"/>
        <path id="Trazado_797475" data-name="Trazado 797475" d="M71.456,22.06H91.72a1.117,1.117,0,0,1,1.117,1.117V33.326" fill="none" stroke="#000" stroke-linecap="round" stroke-linejoin="round" stroke-miterlimit="10" stroke-width="3.896"/>
        <path id="Trazado_797476" data-name="Trazado 797476" d="M50.77,26.392H70.039a1.039,1.039,0,0,0,1.039-1.039V13.562a3.9,3.9,0,0,0-3.9-3.9H36.794a3.9,3.9,0,0,0-3.9,3.9V25.353a1.039,1.039,0,0,0,1.039,1.039h7.741" fill="none" stroke="#000" stroke-linecap="round" stroke-linejoin="round" stroke-miterlimit="10" stroke-width="3.896"/>
        <path id="Trazado_797477" data-name="Trazado 797477" d="M31.983,130.187v-20h-20" fill="none" stroke="#000" stroke-linecap="round" stroke-linejoin="round" stroke-miterlimit="10" stroke-width="3.896"/>
      </g>
    </g>
  </g>
</svg>
