<svg xmlns="http://www.w3.org/2000/svg" xmlns:xlink="http://www.w3.org/1999/xlink" width="105" height="105" viewBox="0 0 105 105">
  <defs>
    <clipPath id="clip-path">
      <rect id="Rectángulo_373740" data-name="Rectángulo 373740" width="65" height="65" transform="translate(1272 2379)" fill="#ffce1f"/>
    </clipPath>
  </defs>
  <g id="Grupo_1064659" data-name="Grupo 1064659" transform="translate(-1252 -2359)">
    <circle id="Elipse_8299" data-name="Elipse 8299" cx="52.5" cy="52.5" r="52.5" transform="translate(1252 2359)" fill="#ff5a20"/>
    <g id="Enmascarar_grupo_1059032" data-name="Enmascarar grupo 1059032" clip-path="url(#clip-path)">
      <g id="cara-feliz" transform="translate(1268.638 2375.639)">
        <path id="Trazado_797146" data-name="Trazado 797146" d="M33.514,5.359,31.844,8.52a.412.412,0,0,1-.295.214l-3.523.612a2.655,2.655,0,0,0-1.451,4.465l2.491,2.566a.413.413,0,0,1,.113.346l-.508,3.539a2.655,2.655,0,0,0,3.8,2.76l3.21-1.577a.418.418,0,0,1,.365,0l3.21,1.577a2.655,2.655,0,0,0,3.8-2.76l-.508-3.539a.413.413,0,0,1,.113-.346l2.491-2.566A2.655,2.655,0,0,0,43.7,9.346l-3.523-.612a.412.412,0,0,1-.295-.214l-1.67-3.161a2.656,2.656,0,0,0-4.7,0ZM35.5,6.406a.414.414,0,0,1,.731,0L37.9,9.567a2.65,2.65,0,0,0,1.893,1.376l3.523.612a.413.413,0,0,1,.226.695l-2.491,2.565a2.653,2.653,0,0,0-.723,2.227l.507,3.539a.414.414,0,0,1-.592.43l-3.21-1.577a2.657,2.657,0,0,0-2.34,0l-3.21,1.577a.414.414,0,0,1-.592-.43l.507-3.539a2.653,2.653,0,0,0-.723-2.227L28.183,12.25a.413.413,0,0,1,.226-.695l3.523-.612a2.65,2.65,0,0,0,1.893-1.376Z" fill="#ffce1f" fill-rule="evenodd"/>
        <path id="Trazado_797147" data-name="Trazado 797147" d="M63.5,15.833l-3.417,1.055a.414.414,0,0,1-.36-.056L56.8,14.772A2.655,2.655,0,0,0,52.612,16.9l-.053,3.576a.411.411,0,0,1-.166.324l-2.861,2.145a2.655,2.655,0,0,0,.734,4.637l3.384,1.154a.415.415,0,0,1,.258.258l1.155,3.384a2.654,2.654,0,0,0,4.636.734l2.145-2.861a.411.411,0,0,1,.325-.166l3.575-.053a2.655,2.655,0,0,0,2.132-4.183L65.818,22.93a.413.413,0,0,1-.057-.361l1.055-3.416A2.656,2.656,0,0,0,63.5,15.833Zm.661,2.142a.414.414,0,0,1,.517.518L63.62,21.908a2.651,2.651,0,0,0,.366,2.312l2.059,2.924a.413.413,0,0,1-.333.651l-3.575.053a2.653,2.653,0,0,0-2.086,1.064l-2.144,2.861a.414.414,0,0,1-.723-.114L56.03,28.273a2.658,2.658,0,0,0-1.655-1.655l-3.384-1.154a.414.414,0,0,1-.114-.723L53.739,22.6A2.656,2.656,0,0,0,54.8,20.512l.053-3.575a.412.412,0,0,1,.651-.332l2.924,2.059a2.655,2.655,0,0,0,2.312.365Z" fill="#ffce1f" fill-rule="evenodd"/>
        <path id="Trazado_797148" data-name="Trazado 797148" d="M4.907,19.153l1.055,3.416a.413.413,0,0,1-.057.361L3.846,25.853a2.655,2.655,0,0,0,2.132,4.183l3.575.053a.411.411,0,0,1,.325.166l2.145,2.861a2.654,2.654,0,0,0,4.636-.734L17.814,29a.415.415,0,0,1,.258-.258l3.384-1.154a2.655,2.655,0,0,0,.734-4.637L19.329,20.8a.415.415,0,0,1-.166-.325L19.111,16.9a2.655,2.655,0,0,0-4.183-2.132L12,16.83a.411.411,0,0,1-.36.057L8.227,15.833a2.656,2.656,0,0,0-3.319,3.321Zm2.142-.661a.414.414,0,0,1,.517-.518l3.417,1.055a2.655,2.655,0,0,0,2.312-.365l2.924-2.059a.412.412,0,0,1,.651.332l.053,3.575A2.656,2.656,0,0,0,17.985,22.6l2.862,2.144a.414.414,0,0,1-.114.723l-3.384,1.154a2.658,2.658,0,0,0-1.655,1.655l-1.154,3.384a.414.414,0,0,1-.723.114l-2.144-2.861a2.653,2.653,0,0,0-2.086-1.064l-3.575-.053a.413.413,0,0,1-.333-.651L7.737,24.22A2.651,2.651,0,0,0,8.1,21.908Z" fill="#ffce1f" fill-rule="evenodd"/>
        <path id="Trazado_797149" data-name="Trazado 797149" d="M35.862,25.941A20.919,20.919,0,1,0,56.78,46.86,20.928,20.928,0,0,0,35.862,25.941Zm0,2.241A18.677,18.677,0,1,1,17.184,46.86,18.686,18.686,0,0,1,35.862,28.183Z" fill="#ffce1f" fill-rule="evenodd"/>
        <path id="Trazado_797150" data-name="Trazado 797150" d="M43.916,48.709c-4.163,0-11.953,0-16.115.029a3.333,3.333,0,0,0-3.075,4.6,12.036,12.036,0,0,0,22.3.012,3.363,3.363,0,0,0-3.11-4.644Zm0,2.241A1.121,1.121,0,0,1,44.953,52.5a9.795,9.795,0,0,1-18.152,0l0-.007a1.093,1.093,0,0,1,1.01-1.508h.008c4.159-.029,11.941-.029,16.1-.029Z" fill="#ffce1f" fill-rule="evenodd"/>
        <path id="Trazado_797151" data-name="Trazado 797151" d="M26.016,42.653a1.726,1.726,0,0,1,.841-1.075,3.187,3.187,0,0,1,.8-.355,3.271,3.271,0,0,1,1.278-.171A3.262,3.262,0,0,1,30,41.158a3.521,3.521,0,0,1,.695.236,1.866,1.866,0,0,1,1.152,1.259.564.564,0,1,0,1.129,0,3.174,3.174,0,0,0-1.226-2.771,4.488,4.488,0,0,0-1.9-.96,4.415,4.415,0,0,0-.921-.11A4.638,4.638,0,0,0,27.713,39a4.352,4.352,0,0,0-1.607.872,3.171,3.171,0,0,0-1.218,2.784.564.564,0,1,0,1.129,0Z" fill="#ffce1f" fill-rule="evenodd"/>
        <path id="Trazado_797152" data-name="Trazado 797152" d="M39.875,42.653a1.727,1.727,0,0,1,.842-1.075,3.179,3.179,0,0,1,.8-.355,5.091,5.091,0,0,1,2.347-.065,3.5,3.5,0,0,1,.695.236,1.863,1.863,0,0,1,1.152,1.259.564.564,0,1,0,1.129,0,3.171,3.171,0,0,0-1.226-2.771,4.488,4.488,0,0,0-1.9-.96,4.406,4.406,0,0,0-.921-.11A4.645,4.645,0,0,0,41.571,39a4.352,4.352,0,0,0-1.607.872,3.174,3.174,0,0,0-1.218,2.784.564.564,0,1,0,1.129,0Z" fill="#ffce1f" fill-rule="evenodd"/>
        <path id="Trazado_797153" data-name="Trazado 797153" d="M28.909,57.566a1.12,1.12,0,0,0,.43,1.357,12.013,12.013,0,0,0,13.045,0,1.121,1.121,0,0,0,.431-1.358,7.386,7.386,0,0,0-6.954-4.326,7.387,7.387,0,0,0-6.953,4.324Zm2.545-.008a5.72,5.72,0,0,1,8.816,0,9.782,9.782,0,0,1-8.816,0Z" fill="#ffce1f" fill-rule="evenodd"/>
      </g>
    </g>
  </g>
</svg>
