<svg xmlns="http://www.w3.org/2000/svg" xmlns:xlink="http://www.w3.org/1999/xlink" width="133" height="133" viewBox="0 0 133 133">
  <defs>
    <clipPath id="clip-path">
      <rect id="Rectángulo_373766" data-name="Rectángulo 373766" width="133" height="133" transform="translate(285 6110)" fill="#232997"/>
    </clipPath>
    <clipPath id="clip-path-2">
      <path id="path6069" d="M0-133H133V0H0Z"/>
    </clipPath>
  </defs>
  <g id="Enmascarar_grupo_1059038" data-name="Enmascarar grupo 1059038" transform="translate(-285 -6110)" clip-path="url(#clip-path)">
    <g id="g6063" transform="translate(285 6243)">
      <g id="g6065">
        <g id="g6067" clip-path="url(#clip-path-2)">
          <g id="g6073" transform="translate(126.907 -123.78)">
            <path id="path6075" d="M0,0H-120.814a4.145,4.145,0,0,0-4.145,4.145V23.212H4.145V4.145A4.144,4.144,0,0,0,0,0" fill="#ffba7c"/>
          </g>
          <g id="g6077" transform="translate(126.907 -123.78)">
            <path id="path6079" d="M0,0H-7.533A4.144,4.144,0,0,1-3.389,4.145V23.212H4.145V4.145A4.144,4.144,0,0,0,0,0" fill="#ffab56"/>
          </g>
          <g id="g6081" transform="translate(47.82 -107.129)">
            <path id="path6083" d="M0,0-2.112-4.576A2.351,2.351,0,0,0-4.247-5.941H-25.684a2.351,2.351,0,0,0-2.135,1.366L-29.93,0a2.351,2.351,0,0,1-2.135,1.366H-45.872v92.4a4.145,4.145,0,0,0,4.145,4.145H79.087a4.145,4.145,0,0,0,4.145-4.145V1.366H2.135A2.351,2.351,0,0,1,0,0" fill="#f4f8f9"/>
          </g>
          <g id="g6085" transform="translate(123.519 -105.763)">
            <path id="path6087" d="M0,0V92.4a4.144,4.144,0,0,1-4.145,4.145H3.389A4.144,4.144,0,0,0,7.533,92.4V0Z" fill="#e7eef3"/>
          </g>
          <g id="g6089" transform="translate(52.926 -105.763)">
            <path id="path6091" d="M0,0H78.126V-13.872a4.145,4.145,0,0,0-4.145-4.145H-34.566" fill="none" stroke="#000" stroke-linecap="round" stroke-linejoin="round" stroke-miterlimit="10" stroke-width="3.896"/>
          </g>
          <g id="g6093" transform="translate(10.827 -123.78)">
            <path id="path6095" d="M0,0H-4.734A4.144,4.144,0,0,0-8.879,4.145V18.017H0" fill="none" stroke="#000" stroke-linecap="round" stroke-linejoin="round" stroke-miterlimit="10" stroke-width="3.896"/>
          </g>
          <g id="g6097" transform="translate(95.013 -114.771)">
            <path id="path6099" d="M0,0H1.887" fill="none" stroke="#000" stroke-linecap="round" stroke-linejoin="round" stroke-miterlimit="10" stroke-width="3.896"/>
          </g>
          <g id="g6101" transform="translate(104.364 -114.771)">
            <path id="path6103" d="M0,0H1.887" fill="none" stroke="#000" stroke-linecap="round" stroke-linejoin="round" stroke-miterlimit="10" stroke-width="3.896"/>
          </g>
          <g id="g6105" transform="translate(113.716 -114.771)">
            <path id="path6107" d="M0,0H1.887" fill="none" stroke="#000" stroke-linecap="round" stroke-linejoin="round" stroke-miterlimit="10" stroke-width="3.896"/>
          </g>
          <g id="g6109" transform="translate(131.052 -32.829)">
            <path id="path6111" d="M0,0V-72.934H-81.1A2.351,2.351,0,0,1-83.232-74.3l-2.112-4.576a2.351,2.351,0,0,0-2.135-1.366h-21.437a2.352,2.352,0,0,0-2.135,1.366l-2.112,4.576a2.351,2.351,0,0,1-2.135,1.366H-129.1v92.4a4.144,4.144,0,0,0,4.145,4.145H-4.145A4.144,4.144,0,0,0,0,19.464V7.533" fill="none" stroke="#000" stroke-linecap="round" stroke-linejoin="round" stroke-miterlimit="10" stroke-width="3.896"/>
          </g>
          <g id="g6113" transform="translate(24.984 -56.92)">
            <path id="path6115" d="M0,0H2" fill="none" stroke="#000" stroke-linecap="round" stroke-linejoin="round" stroke-miterlimit="10" stroke-width="3.896"/>
          </g>
          <g id="g6117" transform="translate(37.69 -56.92)">
            <path id="path6119" d="M0,0H12.393" fill="none" stroke="#000" stroke-linecap="round" stroke-linejoin="round" stroke-miterlimit="10" stroke-width="3.896"/>
          </g>
          <g id="g6121" transform="translate(60.787 -56.92)">
            <path id="path6123" d="M0,0H17.588" fill="none" stroke="#000" stroke-linecap="round" stroke-linejoin="round" stroke-miterlimit="10" stroke-width="3.896"/>
          </g>
          <g id="g6125" transform="translate(89.079 -56.92)">
            <path id="path6127" d="M0,0H7.2" fill="none" stroke="#000" stroke-linecap="round" stroke-linejoin="round" stroke-miterlimit="10" stroke-width="3.896"/>
          </g>
          <g id="g6129" transform="translate(106.981 -56.92)">
            <path id="path6131" d="M0,0H12.393" fill="none" stroke="#000" stroke-linecap="round" stroke-linejoin="round" stroke-miterlimit="10" stroke-width="3.896"/>
          </g>
          <g id="g6133" transform="translate(24.984 -47.294)">
            <path id="path6135" d="M0,0H9.8" fill="none" stroke="#000" stroke-linecap="round" stroke-linejoin="round" stroke-miterlimit="10" stroke-width="3.896"/>
          </g>
          <g id="g6137" transform="translate(45.483 -47.294)">
            <path id="path6139" d="M0,0H17.588" fill="none" stroke="#000" stroke-linecap="round" stroke-linejoin="round" stroke-miterlimit="10" stroke-width="3.896"/>
          </g>
          <g id="g6141" transform="translate(73.775 -47.294)">
            <path id="path6143" d="M0,0H7.2" fill="none" stroke="#000" stroke-linecap="round" stroke-linejoin="round" stroke-miterlimit="10" stroke-width="3.896"/>
          </g>
          <g id="g6145" transform="translate(91.677 -47.294)">
            <path id="path6147" d="M0,0H12.393" fill="none" stroke="#000" stroke-linecap="round" stroke-linejoin="round" stroke-miterlimit="10" stroke-width="3.896"/>
          </g>
          <g id="g6149" transform="translate(114.774 -47.294)">
            <path id="path6151" d="M0,0H4.6" fill="none" stroke="#000" stroke-linecap="round" stroke-linejoin="round" stroke-miterlimit="10" stroke-width="3.896"/>
          </g>
          <g id="g6153" transform="translate(14.593 -37.434)">
            <path id="path6155" d="M0,0H17.588" fill="none" stroke="#000" stroke-linecap="round" stroke-linejoin="round" stroke-miterlimit="10" stroke-width="3.896"/>
          </g>
          <g id="g6157" transform="translate(42.886 -37.434)">
            <path id="path6159" d="M0,0H14.991" fill="none" stroke="#000" stroke-linecap="round" stroke-linejoin="round" stroke-miterlimit="10" stroke-width="3.896"/>
          </g>
          <g id="g6161" transform="translate(68.58 -37.434)">
            <path id="path6163" d="M0,0H9.8" fill="none" stroke="#000" stroke-linecap="round" stroke-linejoin="round" stroke-miterlimit="10" stroke-width="3.896"/>
          </g>
          <g id="g6165" transform="translate(89.079 -37.434)">
            <path id="path6167" d="M0,0H11.873" fill="none" stroke="#000" stroke-linecap="round" stroke-linejoin="round" stroke-miterlimit="10" stroke-width="3.896"/>
          </g>
          <g id="g6169" transform="translate(14.593 -27.808)">
            <path id="path6171" d="M0,0H25.381" fill="none" stroke="#000" stroke-linecap="round" stroke-linejoin="round" stroke-miterlimit="10" stroke-width="3.896"/>
          </g>
          <g id="g6173" transform="translate(50.679 -27.808)">
            <path id="path6175" d="M0,0H12.393" fill="none" stroke="#000" stroke-linecap="round" stroke-linejoin="round" stroke-miterlimit="10" stroke-width="3.896"/>
          </g>
          <g id="g6177" transform="translate(73.775 -27.808)">
            <path id="path6179" d="M0,0H7.2" fill="none" stroke="#000" stroke-linecap="round" stroke-linejoin="round" stroke-miterlimit="10" stroke-width="3.896"/>
          </g>
          <g id="g6181" transform="translate(91.677 -27.808)">
            <path id="path6183" d="M0,0H4.6" fill="none" stroke="#000" stroke-linecap="round" stroke-linejoin="round" stroke-miterlimit="10" stroke-width="3.896"/>
          </g>
          <g id="g6185" transform="translate(17.662 -61.688)">
            <path id="path6187" d="M0,0-5.351,7.637,0,15.275" fill="none" stroke="#000" stroke-linecap="round" stroke-linejoin="round" stroke-miterlimit="10" stroke-width="3.896"/>
          </g>
          <g id="g6189" transform="translate(116.894 -39.995)">
            <path id="path6191" d="M0,0,5.351,7.637,0,15.275" fill="none" stroke="#000" stroke-linecap="round" stroke-linejoin="round" stroke-miterlimit="10" stroke-width="3.896"/>
          </g>
          <g id="g6193" transform="translate(110.215 -39.629)">
            <path id="path6195" d="M0,0-7.036,14.543" fill="none" stroke="#000" stroke-linecap="round" stroke-linejoin="round" stroke-miterlimit="10" stroke-width="3.896"/>
          </g>
          <g id="g6197" transform="translate(66.879 -73.71)">
            <path id="path6199" d="M0,0,3.077-17.048A.4.4,0,0,1,3.84-17.1L8.846-.133a.4.4,0,0,0,.751,0L14.432-17.1a.4.4,0,0,1,.763.043L18.455,0" fill="none" stroke="#000" stroke-linecap="round" stroke-linejoin="round" stroke-miterlimit="10" stroke-width="3.896"/>
          </g>
          <g id="g6201" transform="translate(92.783 -91.08)">
            <path id="path6203" d="M0,0V17.492c.194.033,6.13,0,6.13,0" fill="none" stroke="#000" stroke-linecap="round" stroke-linejoin="round" stroke-miterlimit="10" stroke-width="3.896"/>
          </g>
          <g id="g6205" transform="translate(34.087 -91.08)">
            <path id="path6207" d="M0,0V17.507" fill="none" stroke="#000" stroke-linecap="round" stroke-linejoin="round" stroke-miterlimit="10" stroke-width="3.896"/>
          </g>
          <g id="g6209" transform="translate(46.202 -91.08)">
            <path id="path6211" d="M0,0V17.507" fill="none" stroke="#000" stroke-linecap="round" stroke-linejoin="round" stroke-miterlimit="10" stroke-width="3.896"/>
          </g>
          <g id="g6213" transform="translate(34.087 -82.627)">
            <path id="path6215" d="M0,0H12.115" fill="none" stroke="#000" stroke-linecap="round" stroke-linejoin="round" stroke-miterlimit="10" stroke-width="3.896"/>
          </g>
          <g id="g6217" transform="translate(53.837 -91.08)">
            <path id="path6219" d="M0,0H9.668" fill="none" stroke="#000" stroke-linecap="round" stroke-linejoin="round" stroke-miterlimit="10" stroke-width="3.896"/>
          </g>
          <g id="g6221" transform="translate(58.651 -90.521)">
            <path id="path6223" d="M0,0V16.948" fill="none" stroke="#000" stroke-linecap="round" stroke-linejoin="round" stroke-miterlimit="10" stroke-width="3.896"/>
          </g>
        </g>
      </g>
    </g>
  </g>
</svg>
