<svg xmlns="http://www.w3.org/2000/svg" xmlns:xlink="http://www.w3.org/1999/xlink" width="295" height="344.969" viewBox="0 0 295 344.969">
  <defs>
    <clipPath id="clip-path">
      <rect id="Rectángulo_373778" data-name="Rectángulo 373778" width="264.999" height="313.783" transform="translate(0 0)" fill="none"/>
    </clipPath>
    <clipPath id="clip-path-2">
      <path id="Trazado_797214" data-name="Trazado 797214" d="M54.123,213.5l-12.834,24.57a33.582,33.582,0,0,0-3.241,9.352L34.5,266.28a127.1,127.1,0,0,0,.587,49.9l3.856,18.147A301.065,301.065,0,0,1,38.3,387.3h87.557a230.857,230.857,0,0,1,12.928-64.955,37.146,37.146,0,0,0,1.823-18.782c-4.1-25.375-18.685-87.766-60.237-59.773l-.749,43.032A41.27,41.27,0,0,0,62.34,267.861c14.9-18.3,9.517-40.475,3.927-53.75a6.752,6.752,0,0,0-12.144-.608" transform="translate(-32.314 -209.988)" fill="none"/>
    </clipPath>
    <clipPath id="clip-path-3">
      <rect id="Rectángulo_373779" data-name="Rectángulo 373779" width="36.656" height="11.056" fill="none"/>
    </clipPath>
    <clipPath id="clip-path-5">
      <path id="Trazado_797217" data-name="Trazado 797217" d="M41.5,117.2l-8.694,173.26a5.432,5.432,0,0,0,5.139,5.682l96.541,4.845a5.434,5.434,0,0,0,5.682-5.139l8.694-173.26a5.435,5.435,0,0,0-5.139-5.682l-96.541-4.844c-.091,0-.182-.007-.272-.007A5.433,5.433,0,0,0,41.5,117.2" transform="translate(-32.798 -112.05)" fill="none"/>
    </clipPath>
    <clipPath id="clip-path-6">
      <rect id="Rectángulo_373781" data-name="Rectángulo 373781" width="125.958" height="191.591" fill="none"/>
    </clipPath>
    <clipPath id="clip-path-8">
      <rect id="Rectángulo_373785" data-name="Rectángulo 373785" width="136.352" height="89.99" transform="matrix(0.05, -0.999, 0.999, 0.05, 0, 136.18)" fill="none"/>
    </clipPath>
    <clipPath id="clip-path-9">
      <rect id="Rectángulo_373784" data-name="Rectángulo 373784" width="98.827" height="102.782" fill="none"/>
    </clipPath>
    <clipPath id="clip-path-11">
      <rect id="Rectángulo_373788" data-name="Rectángulo 373788" width="32.873" height="6.151" fill="none"/>
    </clipPath>
    <clipPath id="clip-path-12">
      <path id="Trazado_797221" data-name="Trazado 797221" d="M95.236,127.563a2.613,2.613,0,1,1-2.478-2.74,2.612,2.612,0,0,1,2.478,2.74" transform="translate(-90.014 -124.82)" fill="none"/>
    </clipPath>
    <clipPath id="clip-path-13">
      <rect id="Rectángulo_373786" data-name="Rectángulo 373786" width="5.385" height="5.579" fill="none"/>
    </clipPath>
    <clipPath id="clip-path-14">
      <path id="Trazado_797224" data-name="Trazado 797224" d="M122.32,131.17l-21.8-1.094a2.129,2.129,0,1,1,.213-4.252l21.8,1.093a2.129,2.129,0,0,1-.213,4.253" transform="translate(-98.502 -125.822)" fill="none"/>
    </clipPath>
    <clipPath id="clip-path-15">
      <rect id="Rectángulo_373787" data-name="Rectángulo 373787" width="26.034" height="3.314" fill="none"/>
    </clipPath>
    <clipPath id="clip-path-16">
      <rect id="Rectángulo_373789" data-name="Rectángulo 373789" width="30.713" height="11.021" fill="none"/>
    </clipPath>
    <clipPath id="clip-path-17">
      <path id="Trazado_797227" data-name="Trazado 797227" d="M75.986,170.537,59.523,186.176a1.533,1.533,0,0,0-.054,2.169l10.36,10.888a1.533,1.533,0,0,0,2.167.054l4.705-4.476-.906,36.465a2.234,2.234,0,0,0,2.176,2.287l39.835.989a2.233,2.233,0,0,0,2.287-2.176l.9-36.424,4.435,4.661a1.534,1.534,0,0,0,2.168.054l10.89-10.363a1.533,1.533,0,0,0,.053-2.167L122.9,171.7a4.5,4.5,0,0,0-3.146-1.4l-8.5-.211a2.556,2.556,0,0,0-2.566,1.934,9.423,9.423,0,0,1-18.563-.535,2.3,2.3,0,0,0-2.188-1.978l-8.744-.217c-.037,0-.074,0-.111,0a4.5,4.5,0,0,0-3.1,1.237" transform="translate(-59.046 -169.3)" fill="none"/>
    </clipPath>
    <clipPath id="clip-path-18">
      <rect id="Rectángulo_373792" data-name="Rectángulo 373792" width="85.165" height="43.908" fill="none"/>
    </clipPath>
    <clipPath id="clip-path-19">
      <rect id="Rectángulo_373794" data-name="Rectángulo 373794" width="85.165" height="43.907" fill="none"/>
    </clipPath>
    <clipPath id="clip-path-27">
      <path id="Trazado_797241" data-name="Trazado 797241" d="M12.855,237.992,9.939,265.558a33.6,33.6,0,0,0,.418,9.889l3.626,18.841a127.122,127.122,0,0,0,18.867,46.2L43.1,355.952,79.509,339.5C65.3,296.194,40.456,285.538,40.456,285.538c1.693-19.6-6.008-41.143-16.083-51.438a6.617,6.617,0,0,0-4.776-2.034,6.746,6.746,0,0,0-6.743,5.926" transform="translate(-9.752 -232.066)" fill="none"/>
    </clipPath>
    <clipPath id="clip-path-28">
      <rect id="Rectángulo_373808" data-name="Rectángulo 373808" width="15.201" height="10.553" fill="none"/>
    </clipPath>
    <clipPath id="clip-path-30">
      <path id="Trazado_797244" data-name="Trazado 797244" d="M19.568,409.1a8.628,8.628,0,0,0-6.672,9.2l.711,7.762H131.3l.145-7.412a8.6,8.6,0,0,0-5.346-8.157c-15.2-6.129-32.7-8.187-49.342-8.186-23.947,0-46.129,4.26-57.184,6.79" transform="translate(-12.859 -402.313)" fill="none"/>
    </clipPath>
    <clipPath id="clip-path-31">
      <rect id="Rectángulo_373810" data-name="Rectángulo 373810" width="40.909" height="74.889" fill="none"/>
    </clipPath>
    <clipPath id="clip-path-33">
      <path id="Trazado_797250" data-name="Trazado 797250" d="M164.8,295.309c-21.976,17.441-2.09,34.673,2.046,47.161a182.4,182.4,0,0,0-15.07-16.157c-13.171-12.525-30.554-25.049-37.859-13.956-7.008,10.644,24.821,45.116,47.914,59.325,10.1,6.213,11.21,8.391,15.215,13.835a5.676,5.676,0,0,1,.764,1.425l5.931,16.367h76.4a167.672,167.672,0,0,0-14.379-36.663s-4.544-72.617-10.7-70.733c-29.447,9.017-40.806,4.145-47.768-.73-4.124-2.887-6.706-5.773-10.59-5.773-2.872,0-6.456,1.578-11.9,5.9" transform="translate(-112.929 -289.409)" fill="none"/>
    </clipPath>
    <clipPath id="clip-path-34">
      <rect id="Rectángulo_373812" data-name="Rectángulo 373812" width="17.913" height="18.367" fill="none"/>
    </clipPath>
    <clipPath id="clip-path-36">
      <path id="Trazado_797258" data-name="Trazado 797258" d="M136.665,209.4c-18.069,7.519,24.328,97.329,24.328,97.329l16.988-26.844c-8-21.038-22.3-71.125-38.244-71.119a7.943,7.943,0,0,0-3.071.633" transform="translate(-132.183 -208.767)" fill="none"/>
    </clipPath>
    <clipPath id="clip-path-37">
      <rect id="Rectángulo_373814" data-name="Rectángulo 373814" width="14.565" height="12.438" fill="none"/>
    </clipPath>
    <clipPath id="clip-path-38">
      <rect id="Rectángulo_373815" data-name="Rectángulo 373815" width="14.377" height="12.918" fill="none"/>
    </clipPath>
    <clipPath id="clip-path-40">
      <path id="Trazado_797264" data-name="Trazado 797264" d="M196.16,281.639l-2.314.338a9.609,9.609,0,0,0-8.1,10.865l1.693,11.092a9.608,9.608,0,0,0,10.865,8.1l2.314-.337a9.61,9.61,0,0,0,8.1-10.865l-1.693-11.093a9.617,9.617,0,0,0-9.484-8.2,9.52,9.52,0,0,0-1.38.1" transform="translate(-185.65 -281.538)" fill="none"/>
    </clipPath>
    <clipPath id="clip-path-41">
      <rect id="Rectángulo_373817" data-name="Rectángulo 373817" width="15.119" height="10.978" fill="none"/>
    </clipPath>
    <clipPath id="clip-path-43">
      <path id="Trazado_797270" data-name="Trazado 797270" d="M247.936,286.148l-2.257.608a9.609,9.609,0,0,0-6.763,11.742l2.987,10.816a9.609,9.609,0,0,0,11.742,6.763l2.258-.608a9.609,9.609,0,0,0,6.762-11.742l-.7-7.148c-1.247-4.632-7.632-10.611-12.606-10.61a5.444,5.444,0,0,0-1.421.18" transform="translate(-238.588 -285.968)" fill="none"/>
    </clipPath>
    <clipPath id="clip-path-44">
      <rect id="Rectángulo_373819" data-name="Rectángulo 373819" width="14.801" height="11.929" fill="none"/>
    </clipPath>
    <clipPath id="clip-path-46">
      <path id="Trazado_797273" data-name="Trazado 797273" d="M177.348,425.684H289.226l-4.3-18.074a8.6,8.6,0,0,0-7.268-6.5,96.707,96.707,0,0,0-11.8-.7c-34.535,0-71.485,16.57-88.511,25.273" transform="translate(-177.348 -400.411)" fill="none"/>
    </clipPath>
    <clipPath id="clip-path-47">
      <rect id="Rectángulo_373821" data-name="Rectángulo 373821" width="49.907" height="75.677" fill="none"/>
    </clipPath>
    <clipPath id="clip-path-49">
      <rect id="Rectángulo_373822" data-name="Rectángulo 373822" width="3.615" height="20.372" fill="none"/>
    </clipPath>
    <clipPath id="clip-path-50">
      <rect id="Rectángulo_373823" data-name="Rectángulo 373823" width="3.616" height="20.372" fill="none"/>
    </clipPath>
    <clipPath id="clip-path-51">
      <path id="Trazado_797287" data-name="Trazado 797287" d="M97.547,94.067A23.287,23.287,0,1,0,120.835,70.78,23.287,23.287,0,0,0,97.547,94.067" transform="translate(-97.547 -70.78)" fill="none"/>
    </clipPath>
    <clipPath id="clip-path-52">
      <rect id="Rectángulo_373826" data-name="Rectángulo 373826" width="37.379" height="46.704" fill="none"/>
    </clipPath>
    <clipPath id="clip-path-53">
      <path id="Trazado_797292" data-name="Trazado 797292" d="M117.014,104.871a1.957,1.957,0,0,0-1.925,2.41,9.358,9.358,0,0,0,18.085,0,1.957,1.957,0,0,0-1.924-2.41Z" transform="translate(-115.027 -104.871)" fill="none"/>
    </clipPath>
    <clipPath id="clip-path-54">
      <path id="Trazado_797296" data-name="Trazado 797296" d="M223.073,208.222l-7.408,25.666A5.177,5.177,0,0,0,219.2,240.3l36.559,10.552a5.176,5.176,0,0,0,6.409-3.539l7.408-25.667a5.177,5.177,0,0,0-3.538-6.409l-36.56-10.551a5.171,5.171,0,0,0-6.41,3.539" transform="translate(-215.461 -204.479)" fill="none"/>
    </clipPath>
  </defs>
  <g id="Grupo_1064631" data-name="Grupo 1064631" transform="translate(-1125 -4558)">
    <path id="Rectángulo_373750" data-name="Rectángulo 373750" d="M147.5,0h0A147.5,147.5,0,0,1,295,147.5V344a0,0,0,0,1,0,0H0a0,0,0,0,1,0,0V147.5A147.5,147.5,0,0,1,147.5,0Z" transform="translate(1125 4558)" fill="#6936c1"/>
    <g id="Grupo_1064630" data-name="Grupo 1064630" transform="translate(548.801 12343.188)">
      <g id="Grupo_1064490" data-name="Grupo 1064490" transform="translate(596.201 -7754.001)" clip-path="url(#clip-path)">
        <path id="Trazado_797212" data-name="Trazado 797212" d="M78.073,331.6c17.169-47.253-16.5-63.737-16.5-63.737,14.9-18.3,9.517-40.475,3.927-53.75a6.752,6.752,0,0,0-12.145-.608L40.518,238.071a33.62,33.62,0,0,0-3.242,9.353L33.731,266.28a127.1,127.1,0,0,0,.587,49.9l3.856,18.148s5.1,52.685-9.686,98.321l98.2-.825L125.6,418.986a230.893,230.893,0,0,1,12.415-96.644,37.137,37.137,0,0,0,1.823-18.782c-4.1-25.374-18.685-87.766-60.237-59.773" transform="translate(-5.743 -73.515)" fill="#f9c9b2"/>
      </g>
      <g id="Grupo_1064496" data-name="Grupo 1064496" transform="translate(622.001 -7617.528)">
        <g id="Grupo_1064495" data-name="Grupo 1064495" transform="translate(0 0)" clip-path="url(#clip-path-2)">
          <g id="Grupo_1064494" data-name="Grupo 1064494" transform="translate(64.51 129.573)" opacity="0.32">
            <g id="Grupo_1064493" data-name="Grupo 1064493">
              <g id="Grupo_1064492" data-name="Grupo 1064492" clip-path="url(#clip-path-3)">
                <path id="Trazado_797213" data-name="Trazado 797213" d="M124.853,383.331a77.116,77.116,0,0,1-11.068-.79.8.8,0,1,1,.249-1.577c.282.044,28.264,4.3,34.213-8.232a.8.8,0,1,1,1.442.684c-3.907,8.235-15.793,9.915-24.836,9.915" transform="translate(-113.112 -372.275)" fill="#ffe0d2"/>
              </g>
            </g>
          </g>
        </g>
      </g>
      <g id="Grupo_1064497" data-name="Grupo 1064497" transform="translate(596.201 -7754.001)" clip-path="url(#clip-path)">
        <path id="Trazado_797215" data-name="Trazado 797215" d="M134.485,300.983l-96.541-4.844a5.433,5.433,0,0,1-5.139-5.682L41.5,117.2a5.433,5.433,0,0,1,5.682-5.139l96.541,4.844a5.434,5.434,0,0,1,5.139,5.682l-8.694,173.26a5.433,5.433,0,0,1-5.682,5.139" transform="translate(-6.612 -53.773)" fill="#fff"/>
      </g>
      <g id="Grupo_1064503" data-name="Grupo 1064503" transform="translate(622.388 -7695.724)">
        <g id="Grupo_1064502" data-name="Grupo 1064502" transform="translate(0 0)" clip-path="url(#clip-path-5)">
          <g id="Grupo_1064501" data-name="Grupo 1064501" transform="translate(-3.114 1.493)" opacity="0.05">
            <g id="Grupo_1064500" data-name="Grupo 1064500">
              <g id="Grupo_1064499" data-name="Grupo 1064499" clip-path="url(#clip-path-6)">
                <path id="Trazado_797216" data-name="Trazado 797216" d="M146.1,115.5l-2.363-1.584L135.2,283.849c-.264,5.263-4.977,11.395-10.24,11.131l-95.943.249-.12,2.392c-.264,5.263,14.127,3.187,19.39,3.452l88.224,4.427a9.61,9.61,0,0,0,10.05-9.089l8.276-164.944c.264-5.263-3.484-15.7-8.747-15.962" transform="translate(-28.898 -113.92)" fill="#0b1323"/>
              </g>
            </g>
          </g>
        </g>
      </g>
      <g id="Grupo_1064504" data-name="Grupo 1064504" transform="translate(596.201 -7754.001)" clip-path="url(#clip-path)">
        <rect id="Rectángulo_373782" data-name="Rectángulo 373782" width="136.351" height="89.99" transform="translate(35.967 215.82) rotate(-87.127)" fill="#95d6f9"/>
      </g>
      <g id="Grupo_1064510" data-name="Grupo 1064510" transform="translate(632.169 -7674.36)">
        <g id="Grupo_1064509" data-name="Grupo 1064509" transform="translate(0 0)" clip-path="url(#clip-path-8)">
          <g id="Grupo_1064508" data-name="Grupo 1064508" transform="translate(-4.696 -7.37)" opacity="0.11">
            <g id="Grupo_1064507" data-name="Grupo 1064507">
              <g id="Grupo_1064506" data-name="Grupo 1064506" clip-path="url(#clip-path-9)">
                <path id="Trazado_797218" data-name="Trazado 797218" d="M138,137.693l-89.624-8.116-9.2,102.782Z" transform="translate(-39.168 -129.576)" fill="#fff"/>
              </g>
            </g>
          </g>
        </g>
      </g>
      <g id="Grupo_1064527" data-name="Grupo 1064527" transform="translate(596.201 -7754.001)" clip-path="url(#clip-path)">
        <g id="Grupo_1064523" data-name="Grupo 1064523" transform="translate(71.827 68.473)" opacity="0.43">
          <g id="Grupo_1064522" data-name="Grupo 1064522">
            <g id="Grupo_1064521" data-name="Grupo 1064521" clip-path="url(#clip-path-11)">
              <path id="Trazado_797219" data-name="Trazado 797219" d="M95.236,127.563a2.613,2.613,0,1,1-2.478-2.74,2.612,2.612,0,0,1,2.478,2.74" transform="translate(-89.972 -124.82)" fill="#c9d2d1"/>
              <g id="Grupo_1064515" data-name="Grupo 1064515" transform="translate(0.042 0)">
                <g id="Grupo_1064514" data-name="Grupo 1064514" clip-path="url(#clip-path-12)">
                  <g id="Grupo_1064513" data-name="Grupo 1064513" transform="translate(-0.042 0.206)" opacity="0.43">
                    <g id="Grupo_1064512" data-name="Grupo 1064512">
                      <g id="Grupo_1064511" data-name="Grupo 1064511" clip-path="url(#clip-path-13)">
                        <path id="Trazado_797220" data-name="Trazado 797220" d="M93.77,125.078a2.96,2.96,0,0,1-3.809,4.322,2.962,2.962,0,1,0,3.809-4.322" transform="translate(-89.961 -125.078)" fill="#c9d2d1"/>
                      </g>
                    </g>
                  </g>
                </g>
              </g>
              <path id="Trazado_797222" data-name="Trazado 797222" d="M122.319,131.17l-21.8-1.094a2.129,2.129,0,1,1,.213-4.252l21.8,1.093a2.129,2.129,0,1,1-.213,4.253" transform="translate(-91.683 -125.022)" fill="#c9d2d1"/>
              <g id="Grupo_1064520" data-name="Grupo 1064520" transform="translate(6.819 0.8)">
                <g id="Grupo_1064519" data-name="Grupo 1064519" clip-path="url(#clip-path-14)">
                  <g id="Grupo_1064518" data-name="Grupo 1064518" transform="translate(0.02 2.037)" opacity="0.43">
                    <g id="Grupo_1064517" data-name="Grupo 1064517">
                      <g id="Grupo_1064516" data-name="Grupo 1064516" clip-path="url(#clip-path-15)">
                        <path id="Trazado_797223" data-name="Trazado 797223" d="M124.189,128.373a2.107,2.107,0,0,1,.018.342,2.135,2.135,0,0,1-2.233,2.019l-21.8-1.094a2.122,2.122,0,0,1-1.65-.941,2.132,2.132,0,0,0,2,1.892l21.8,1.094a2.136,2.136,0,0,0,2.233-2.02,2.109,2.109,0,0,0-.37-1.292" transform="translate(-98.527 -128.373)" fill="#c9d2d1"/>
                      </g>
                    </g>
                  </g>
                </g>
              </g>
            </g>
          </g>
        </g>
        <g id="Grupo_1064526" data-name="Grupo 1064526" transform="translate(66.263 224.976)" opacity="0.43">
          <g id="Grupo_1064525" data-name="Grupo 1064525">
            <g id="Grupo_1064524" data-name="Grupo 1064524" clip-path="url(#clip-path-16)">
              <path id="Trazado_797225" data-name="Trazado 797225" d="M108.466,331.851l-20.732-1.04a4.99,4.99,0,0,1,.5-9.967l20.732,1.04a4.99,4.99,0,0,1-.5,9.967" transform="translate(-82.993 -320.837)" fill="#c9d2d1"/>
            </g>
          </g>
        </g>
        <path id="Trazado_797226" data-name="Trazado 797226" d="M138.543,188.139,122.9,171.7a4.5,4.5,0,0,0-3.147-1.4l-8.5-.212a2.556,2.556,0,0,0-2.566,1.933,9.423,9.423,0,0,1-18.563-.534,2.3,2.3,0,0,0-2.188-1.978l-8.745-.217a4.5,4.5,0,0,0-3.209,1.235L59.523,186.176a1.533,1.533,0,0,0-.054,2.168l10.36,10.888a1.534,1.534,0,0,0,2.168.054l4.7-4.476-.905,36.466a2.232,2.232,0,0,0,2.176,2.287l39.835.99a2.233,2.233,0,0,0,2.287-2.176l.9-36.425,4.435,4.662a1.534,1.534,0,0,0,2.168.053l10.89-10.361a1.534,1.534,0,0,0,.053-2.168" transform="translate(-11.903 -65.313)" fill="#fff"/>
      </g>
      <g id="Grupo_1064554" data-name="Grupo 1064554" transform="translate(643.344 -7650.014)">
        <g id="Grupo_1064553" data-name="Grupo 1064553" transform="translate(0 0)" clip-path="url(#clip-path-17)">
          <g id="Grupo_1064531" data-name="Grupo 1064531" transform="translate(-17.648 -21.785)" opacity="0.22">
            <g id="Grupo_1064530" data-name="Grupo 1064530">
              <g id="Grupo_1064529" data-name="Grupo 1064529" clip-path="url(#clip-path-18)">
                <rect id="Rectángulo_373791" data-name="Rectángulo 373791" width="90.67" height="6.653" transform="translate(0 37.862) rotate(-24.682)" fill="#95d6f9"/>
              </g>
            </g>
          </g>
          <g id="Grupo_1064534" data-name="Grupo 1064534" transform="translate(-13.251 -12.968)" opacity="0.22">
            <g id="Grupo_1064533" data-name="Grupo 1064533">
              <g id="Grupo_1064532" data-name="Grupo 1064532" clip-path="url(#clip-path-19)">
                <rect id="Rectángulo_373793" data-name="Rectángulo 373793" width="90.67" height="6.653" transform="translate(0 37.862) rotate(-24.682)" fill="#95d6f9"/>
              </g>
            </g>
          </g>
          <g id="Grupo_1064537" data-name="Grupo 1064537" transform="translate(-8.57 -4.282)" opacity="0.22">
            <g id="Grupo_1064536" data-name="Grupo 1064536">
              <g id="Grupo_1064535" data-name="Grupo 1064535" clip-path="url(#clip-path-19)">
                <rect id="Rectángulo_373795" data-name="Rectángulo 373795" width="90.67" height="6.654" transform="translate(0 37.861) rotate(-24.682)" fill="#95d6f9"/>
              </g>
            </g>
          </g>
          <g id="Grupo_1064540" data-name="Grupo 1064540" transform="translate(-3.888 4.403)" opacity="0.22">
            <g id="Grupo_1064539" data-name="Grupo 1064539">
              <g id="Grupo_1064538" data-name="Grupo 1064538" clip-path="url(#clip-path-18)">
                <rect id="Rectángulo_373797" data-name="Rectángulo 373797" width="90.67" height="6.653" transform="translate(0 37.862) rotate(-24.682)" fill="#95d6f9"/>
              </g>
            </g>
          </g>
          <g id="Grupo_1064543" data-name="Grupo 1064543" transform="translate(-0.63 13.744)" opacity="0.22">
            <g id="Grupo_1064542" data-name="Grupo 1064542">
              <g id="Grupo_1064541" data-name="Grupo 1064541" clip-path="url(#clip-path-19)">
                <rect id="Rectángulo_373799" data-name="Rectángulo 373799" width="90.67" height="6.653" transform="translate(0 37.861) rotate(-24.682)" fill="#95d6f9"/>
              </g>
            </g>
          </g>
          <g id="Grupo_1064546" data-name="Grupo 1064546" transform="translate(4.051 22.429)" opacity="0.22">
            <g id="Grupo_1064545" data-name="Grupo 1064545">
              <g id="Grupo_1064544" data-name="Grupo 1064544" clip-path="url(#clip-path-18)">
                <rect id="Rectángulo_373801" data-name="Rectángulo 373801" width="90.67" height="6.654" transform="translate(0 37.862) rotate(-24.682)" fill="#95d6f9"/>
              </g>
            </g>
          </g>
          <g id="Grupo_1064549" data-name="Grupo 1064549" transform="translate(8.733 31.115)" opacity="0.22">
            <g id="Grupo_1064548" data-name="Grupo 1064548">
              <g id="Grupo_1064547" data-name="Grupo 1064547" clip-path="url(#clip-path-18)">
                <rect id="Rectángulo_373803" data-name="Rectángulo 373803" width="90.67" height="6.654" transform="translate(0 37.862) rotate(-24.682)" fill="#95d6f9"/>
              </g>
            </g>
          </g>
          <g id="Grupo_1064552" data-name="Grupo 1064552" transform="translate(13.129 39.932)" opacity="0.22">
            <g id="Grupo_1064551" data-name="Grupo 1064551">
              <g id="Grupo_1064550" data-name="Grupo 1064550" clip-path="url(#clip-path-19)">
                <rect id="Rectángulo_373805" data-name="Rectángulo 373805" width="90.67" height="6.654" transform="translate(0 37.862) rotate(-24.682)" fill="#95d6f9"/>
              </g>
            </g>
          </g>
        </g>
      </g>
      <g id="Grupo_1064555" data-name="Grupo 1064555" transform="translate(596.201 -7754.001)" clip-path="url(#clip-path)">
        <path id="Trazado_797228" data-name="Trazado 797228" d="M118.947,270.362l-48.825-2.336a5.988,5.988,0,0,1,.572-11.963L119.52,258.4a5.988,5.988,0,0,1-.572,11.963" transform="translate(-12.986 -82.802)" fill="#075699"/>
        <path id="Trazado_797229" data-name="Trazado 797229" d="M75.067,265.637a2.443,2.443,0,0,0,1.231.394c.71.026,1.138-.335,1.157-.877.018-.5-.259-.8-.975-1.1-.866-.342-1.392-.816-1.365-1.574a1.548,1.548,0,0,1,1.789-1.4,2.435,2.435,0,0,1,1.179.3l-.212.56a2.132,2.132,0,0,0-1.012-.291c-.734-.026-1.028.4-1.042.77-.018.5.3.762,1.032,1.075.9.383,1.344.838,1.317,1.627-.03.83-.669,1.527-1.937,1.481a2.776,2.776,0,0,1-1.36-.391Z" transform="translate(-15.093 -83.814)" fill="#fff"/>
        <path id="Trazado_797230" data-name="Trazado 797230" d="M81.01,261.318l-.08,2.248,2.6.093.079-2.25.7.026-.19,5.375-.7-.025.089-2.521-2.6-.091-.089,2.52-.693-.025.189-5.375Z" transform="translate(-16.152 -83.858)" fill="#fff"/>
        <path id="Trazado_797231" data-name="Trazado 797231" d="M91.275,264.314a2.52,2.52,0,0,1-2.6,2.743,2.466,2.466,0,0,1-2.32-2.813,2.555,2.555,0,0,1,2.6-2.735,2.448,2.448,0,0,1,2.32,2.8m-4.174-.059c-.041,1.147.545,2.2,1.638,2.238s1.758-.953,1.8-2.172c.037-1.068-.481-2.205-1.638-2.246s-1.761,1-1.8,2.18" transform="translate(-17.408 -83.901)" fill="#fff"/>
        <path id="Trazado_797232" data-name="Trazado 797232" d="M93.716,261.831a8.11,8.11,0,0,1,1.336-.057,2.211,2.211,0,0,1,1.491.5,1.442,1.442,0,0,1,.43,1.141,1.582,1.582,0,0,1-.455,1.134,2.23,2.23,0,0,1-1.664.532,2.343,2.343,0,0,1-.557-.068l-.076,2.153-.694-.024Zm.6,2.616a2.341,2.341,0,0,0,.572.077c.838.03,1.362-.359,1.388-1.1.025-.71-.465-1.071-1.23-1.1a2.964,2.964,0,0,0-.656.033Z" transform="translate(-18.854 -83.953)" fill="#fff"/>
        <path id="Trazado_797233" data-name="Trazado 797233" d="M100.964,267.4l.189-5.375.757.026,1.628,2.78a15.1,15.1,0,0,1,.9,1.781l.018-.008c-.039-.719-.032-1.375,0-2.212l.08-2.249.655.023L105,267.548l-.7-.026-1.61-2.787a17.122,17.122,0,0,1-.941-1.83l-.024.007c.015.679.01,1.325-.023,2.219l-.081,2.3Z" transform="translate(-20.353 -84.006)" fill="#fff"/>
        <path id="Trazado_797234" data-name="Trazado 797234" d="M112.172,265.053a2.519,2.519,0,0,1-2.6,2.743,2.466,2.466,0,0,1-2.32-2.813,2.555,2.555,0,0,1,2.6-2.735,2.449,2.449,0,0,1,2.32,2.8m-4.174-.06c-.041,1.148.545,2.2,1.638,2.238s1.758-.953,1.8-2.172c.038-1.068-.481-2.205-1.637-2.245s-1.761,1-1.8,2.18" transform="translate(-21.62 -84.05)" fill="#fff"/>
        <path id="Trazado_797235" data-name="Trazado 797235" d="M115.227,267.907l-1.174-5.424.734.026.542,2.743c.136.675.255,1.35.332,1.872h.016c.107-.532.3-1.164.505-1.852l.814-2.686.726.026.557,2.751c.129.644.25,1.287.31,1.856h.016c.133-.586.3-1.179.5-1.843l.806-2.687.71.025-1.713,5.321-.725-.026-.579-2.823a16.1,16.1,0,0,1-.289-1.767h-.016a17.029,17.029,0,0,1-.477,1.74l-.865,2.772Z" transform="translate(-22.991 -84.098)" fill="#fff"/>
        <path id="Trazado_797236" data-name="Trazado 797236" d="M79.509,339.5c-14.214-43.308-39.053-53.966-39.053-53.966,1.693-19.6-6.009-41.142-16.083-51.438a6.752,6.752,0,0,0-11.52,3.893L9.938,265.558a33.625,33.625,0,0,0,.419,9.889l3.626,18.841a127.107,127.107,0,0,0,18.867,46.2L43.1,355.952" transform="translate(-1.966 -77.966)" fill="#f9c9b2"/>
      </g>
      <g id="Grupo_1064561" data-name="Grupo 1064561" transform="translate(603.987 -7599.901)">
        <g id="Grupo_1064560" data-name="Grupo 1064560" transform="translate(0 0)" clip-path="url(#clip-path-27)">
          <path id="Trazado_797237" data-name="Trazado 797237" d="M8.855,253.046l4.5.358a7.141,7.141,0,0,0,7.7-6.794l.4-8.692a4.941,4.941,0,0,0-6.479-4.953l-.106.038a7.029,7.029,0,0,0-4.414,6.014Z" transform="translate(-9.571 -232.193)" fill="#fddfd2"/>
          <g id="Grupo_1064559" data-name="Grupo 1064559" transform="translate(-4.618 41.173)" opacity="0.23">
            <g id="Grupo_1064558" data-name="Grupo 1064558">
              <g id="Grupo_1064557" data-name="Grupo 1064557" clip-path="url(#clip-path-28)">
                <path id="Trazado_797238" data-name="Trazado 797238" d="M9.929,285.992a16.366,16.366,0,0,1-4.206-.534.4.4,0,1,1,.205-.772,18.746,18.746,0,0,0,11.393-1.013.4.4,0,0,1,.338.723,19.887,19.887,0,0,1-7.729,1.6" transform="translate(-4.261 -283.634)" fill="#ffe0d2"/>
                <path id="Trazado_797239" data-name="Trazado 797239" d="M10.214,296.258a16.366,16.366,0,0,1-4.205-.534.4.4,0,0,1,.205-.772,18.719,18.719,0,0,0,11.393-1.014.4.4,0,0,1,.338.723,19.88,19.88,0,0,1-7.73,1.6" transform="translate(-4.319 -285.703)" fill="#ffe0d2"/>
                <path id="Trazado_797240" data-name="Trazado 797240" d="M8.836,291.22a17.989,17.989,0,0,1-4.572-.532.4.4,0,0,1,.205-.772c5.836,1.554,14.1-1.016,14.179-1.042a.4.4,0,0,1,.241.761A37.684,37.684,0,0,1,8.836,291.22" transform="translate(-3.967 -284.687)" fill="#ffe0d2"/>
              </g>
            </g>
          </g>
        </g>
      </g>
      <g id="Grupo_1064562" data-name="Grupo 1064562" transform="translate(596.201 -7754.001)" clip-path="url(#clip-path)">
        <path id="Trazado_797242" data-name="Trazado 797242" d="M19.567,409.1c18.739-4.286,69.448-13.549,106.527,1.4a8.6,8.6,0,0,1,5.345,8.157l-.827,42.334L17.467,468.2,12.9,418.3a8.63,8.63,0,0,1,6.672-9.2" transform="translate(-2.592 -112.285)" fill="#95d6f9"/>
      </g>
      <g id="Grupo_1064568" data-name="Grupo 1064568" transform="translate(606.468 -7463.973)">
        <g id="Grupo_1064567" data-name="Grupo 1064567" transform="translate(0 0)" clip-path="url(#clip-path-30)">
          <g id="Grupo_1064566" data-name="Grupo 1064566" transform="translate(88.678 -7.96)" opacity="0.04">
            <g id="Grupo_1064565" data-name="Grupo 1064565">
              <g id="Grupo_1064564" data-name="Grupo 1064564" clip-path="url(#clip-path-31)">
                <path id="Trazado_797243" data-name="Trazado 797243" d="M131.558,392.343l-7.631,74.889,39.543-.918,1.366-66.49Z" transform="translate(-123.927 -392.343)"/>
              </g>
            </g>
          </g>
        </g>
      </g>
      <g id="Grupo_1064569" data-name="Grupo 1064569" transform="translate(596.201 -7754.001)" clip-path="url(#clip-path)">
        <path id="Trazado_797245" data-name="Trazado 797245" d="M191.222,423.952l-13.413-37.011a5.673,5.673,0,0,0-.765-1.426c-4-5.443-5.115-7.622-15.214-13.834-23.093-14.209-54.922-48.682-47.914-59.325,13.685-20.781,62.733,41.316,53.208,31.04-3.4-12.555-24.85-30.211-2.325-48.088,25.25-20.04,10.475,18.911,70.261.6,6.157-1.885,10.7,70.732,10.7,70.732A167.345,167.345,0,0,1,261,406.847" transform="translate(-22.765 -89.525)" fill="#f7c8b3"/>
      </g>
      <g id="Grupo_1064575" data-name="Grupo 1064575" transform="translate(686.365 -7554.117)">
        <g id="Grupo_1064574" data-name="Grupo 1064574" transform="translate(0 0)" clip-path="url(#clip-path-33)">
          <path id="Trazado_797246" data-name="Trazado 797246" d="M118.265,323.053a8.976,8.976,0,0,0-5.4,1.78c-2.959,1.971-4.383,5.908-3.737,7.428a2.043,2.043,0,0,0,.1.2l0,.01h0a2.068,2.068,0,0,0,.4.551c4.754,4.547,9.528,7.136,12.843,3.96,3.46-3.315,1.537-7.949-2.555-13.139a2.094,2.094,0,0,0-.413-.386c-.033-.023-.065-.046-.1-.066a2.119,2.119,0,0,0-1.137-.34" transform="translate(-112.131 -296.187)" fill="#fddfd2"/>
          <g id="Grupo_1064573" data-name="Grupo 1064573" transform="translate(10.068 45.028)" opacity="0.23">
            <g id="Grupo_1064572" data-name="Grupo 1064572">
              <g id="Grupo_1064571" data-name="Grupo 1064571" clip-path="url(#clip-path-34)">
                <path id="Trazado_797247" data-name="Trazado 797247" d="M126.021,356.931a.481.481,0,0,1-.2-.918c7.021-3.206,11.067-9.9,11.107-9.971a.481.481,0,0,1,.827.492,28.624,28.624,0,0,1-11.535,10.354.486.486,0,0,1-.2.044" transform="translate(-125.539 -345.806)" fill="#fddfd2"/>
                <path id="Trazado_797248" data-name="Trazado 797248" d="M133.071,366a.481.481,0,0,1-.2-.918c7.021-3.206,11.067-9.9,11.107-9.971a.481.481,0,0,1,.827.492,28.625,28.625,0,0,1-11.535,10.353.485.485,0,0,1-.2.044" transform="translate(-126.96 -347.635)" fill="#fddfd2"/>
                <path id="Trazado_797249" data-name="Trazado 797249" d="M127.964,362.276a.481.481,0,0,1-.2-.918c7.055-3.222,13.881-12.1,13.949-12.19a.481.481,0,1,1,.765.583c-.283.373-7.038,9.16-14.315,12.482a.485.485,0,0,1-.2.044" transform="translate(-125.931 -346.445)" fill="#fddfd2"/>
              </g>
            </g>
          </g>
        </g>
      </g>
      <g id="Grupo_1064576" data-name="Grupo 1064576" transform="translate(596.201 -7754.001)" clip-path="url(#clip-path)">
        <path id="Trazado_797251" data-name="Trazado 797251" d="M160.993,306.73s-42.4-89.811-24.327-97.33c17.164-7.143,32.8,48.106,41.315,70.487" transform="translate(-26.646 -73.269)" fill="#f7c8b3"/>
      </g>
      <g id="Grupo_1064585" data-name="Grupo 1064585" transform="translate(701.738 -7618.503)">
        <g id="Grupo_1064584" data-name="Grupo 1064584" transform="translate(0 0)" clip-path="url(#clip-path-36)">
          <g id="Grupo_1064580" data-name="Grupo 1064580" transform="translate(10.616 27.514)" opacity="0.23">
            <g id="Grupo_1064579" data-name="Grupo 1064579">
              <g id="Grupo_1064578" data-name="Grupo 1064578" clip-path="url(#clip-path-37)">
                <path id="Trazado_797252" data-name="Trazado 797252" d="M146.47,247.747c-.132,0-.263,0-.4,0a.4.4,0,0,1,.01-.8h.01a18.922,18.922,0,0,0,10.846-3.629.4.4,0,0,1,.5.625,19.287,19.287,0,0,1-10.969,3.807" transform="translate(-145.521 -243.228)" fill="#ffe0d2"/>
                <path id="Trazado_797253" data-name="Trazado 797253" d="M149.131,257.665q-.2,0-.4,0a.4.4,0,0,1-.388-.41.435.435,0,0,1,.41-.389,18.675,18.675,0,0,0,10.846-3.628.4.4,0,1,1,.5.625,19.284,19.284,0,0,1-10.967,3.806" transform="translate(-146.057 -245.228)" fill="#ffe0d2"/>
                <path id="Trazado_797254" data-name="Trazado 797254" d="M146.212,253.011c-.115,0-.229,0-.343,0a.4.4,0,0,1-.389-.41.382.382,0,0,1,.41-.389c.1,0,.21,0,.316,0,5.977,0,13.161-4.264,13.234-4.307a.4.4,0,0,1,.41.685c-.306.184-7.443,4.421-13.639,4.421" transform="translate(-145.48 -244.159)" fill="#ffe0d2"/>
              </g>
            </g>
          </g>
          <g id="Grupo_1064583" data-name="Grupo 1064583" transform="translate(25.133 65.478)" opacity="0.23">
            <g id="Grupo_1064582" data-name="Grupo 1064582">
              <g id="Grupo_1064581" data-name="Grupo 1064581" clip-path="url(#clip-path-38)">
                <path id="Trazado_797255" data-name="Trazado 797255" d="M164.06,295.907a.4.4,0,0,1-.012-.8,18.726,18.726,0,0,0,10.627-4.231.4.4,0,0,1,.531.6,19.188,19.188,0,0,1-11.134,4.433Z" transform="translate(-163.661 -290.777)" fill="#ffe0d2"/>
                <path id="Trazado_797256" data-name="Trazado 797256" d="M167.27,305.661a.4.4,0,0,1-.012-.8,18.72,18.72,0,0,0,10.627-4.231.4.4,0,0,1,.531.6,19.181,19.181,0,0,1-11.134,4.433Z" transform="translate(-164.308 -292.743)" fill="#ffe0d2"/>
                <path id="Trazado_797257" data-name="Trazado 797257" d="M164.159,301.139a.4.4,0,0,1-.012-.8c6.037-.181,13.215-5.006,13.288-5.055a.4.4,0,0,1,.448.661c-.3.2-7.44,5-13.712,5.192Z" transform="translate(-163.681 -291.672)" fill="#ffe0d2"/>
              </g>
            </g>
          </g>
        </g>
      </g>
      <g id="Grupo_1064586" data-name="Grupo 1064586" transform="translate(596.201 -7754.001)" clip-path="url(#clip-path)">
        <path id="Trazado_797259" data-name="Trazado 797259" d="M135.037,223.567l-3.135-8.021a6.787,6.787,0,1,1,12.642-4.941l3.135,8.021A2.975,2.975,0,0,1,146,222.469l-7.118,2.782a2.975,2.975,0,0,1-3.841-1.683" transform="translate(-26.496 -72.77)" fill="#fddfd2"/>
        <path id="Trazado_797260" data-name="Trazado 797260" d="M207.025,289.734l1.693,11.092a9.608,9.608,0,0,1-8.1,10.865l-2.314.338a9.609,9.609,0,0,1-10.865-8.1l-1.693-11.092a9.609,9.609,0,0,1,8.1-10.865l2.314-.338a9.609,9.609,0,0,1,10.865,8.1" transform="translate(-37.424 -87.939)" fill="#f9c9b2"/>
      </g>
      <g id="Grupo_1064592" data-name="Grupo 1064592" transform="translate(744.427 -7560.401)">
        <g id="Grupo_1064591" data-name="Grupo 1064591" transform="translate(0 0)" clip-path="url(#clip-path-40)">
          <g id="Grupo_1064590" data-name="Grupo 1064590" transform="translate(1.215 -10.038)" opacity="0.23">
            <g id="Grupo_1064589" data-name="Grupo 1064589">
              <g id="Grupo_1064588" data-name="Grupo 1064588" clip-path="url(#clip-path-41)">
                <path id="Trazado_797261" data-name="Trazado 797261" d="M189.833,282.006a.4.4,0,0,1-.19-.751,19.127,19.127,0,0,1,11.857-1.731.4.4,0,1,1-.162.781,18.761,18.761,0,0,0-11.318,1.653.4.4,0,0,1-.188.048" transform="translate(-187.628 -271.028)" fill="#ffe0d2"/>
                <path id="Trazado_797262" data-name="Trazado 797262" d="M188.971,271.773a.4.4,0,0,1-.19-.751,19.124,19.124,0,0,1,11.857-1.731.4.4,0,1,1-.162.781,18.756,18.756,0,0,0-11.318,1.653.4.4,0,0,1-.188.048" transform="translate(-187.454 -268.965)" fill="#ffe0d2"/>
                <path id="Trazado_797263" data-name="Trazado 797263" d="M187.572,276.866a.4.4,0,0,1-.143-.773c.341-.128,8.4-3.145,14.543-1.872a.4.4,0,0,1-.161.781c-5.915-1.22-14.017,1.808-14.1,1.839a.416.416,0,0,1-.141.026" transform="translate(-187.172 -269.962)" fill="#ffe0d2"/>
              </g>
            </g>
          </g>
        </g>
      </g>
      <g id="Grupo_1064593" data-name="Grupo 1064593" transform="translate(596.201 -7754.001)" clip-path="url(#clip-path)">
        <path id="Trazado_797265" data-name="Trazado 797265" d="M233.78,291.562l.424,11.213a9.609,9.609,0,0,1-9.277,9.876l-2.337.073a9.61,9.61,0,0,1-9.876-9.277l-.423-11.213a9.608,9.608,0,0,1,9.276-9.876l2.338-.073a9.609,9.609,0,0,1,9.876,9.277" transform="translate(-42.793 -88.088)" fill="#f9c9b2"/>
        <path id="Trazado_797266" data-name="Trazado 797266" d="M261.963,296.578l.7,7.148a9.609,9.609,0,0,1-6.762,11.742l-2.258.608a9.609,9.609,0,0,1-11.742-6.762L238.916,298.5a9.609,9.609,0,0,1,6.763-11.742l2.258-.608c5.088-1.369,12.657,5.342,14.027,10.43" transform="translate(-48.095 -88.832)" fill="#f9c9b2"/>
      </g>
      <g id="Grupo_1064599" data-name="Grupo 1064599" transform="translate(786.694 -7556.864)">
        <g id="Grupo_1064598" data-name="Grupo 1064598" transform="translate(0 0)" clip-path="url(#clip-path-43)">
          <g id="Grupo_1064597" data-name="Grupo 1064597" transform="translate(-0.312 -10.079)" opacity="0.23">
            <g id="Grupo_1064596" data-name="Grupo 1064596">
              <g id="Grupo_1064595" data-name="Grupo 1064595" clip-path="url(#clip-path-44)">
                <path id="Trazado_797267" data-name="Trazado 797267" d="M241.443,287.3a.4.4,0,0,1-.23-.726,19.075,19.075,0,0,1,11.571-3.115.4.4,0,0,1,.363.432.4.4,0,0,1-.432.364,18.669,18.669,0,0,0-11.044,2.972.393.393,0,0,1-.228.073" transform="translate(-238.771 -275.371)" fill="#ffe0d2"/>
                <path id="Trazado_797268" data-name="Trazado 797268" d="M239.383,277.241a.4.4,0,0,1-.23-.726,19.149,19.149,0,0,1,11.571-3.114.4.4,0,1,1-.069.8,18.685,18.685,0,0,0-11.044,2.972.393.393,0,0,1-.228.073" transform="translate(-238.356 -273.344)" fill="#ffe0d2"/>
                <path id="Trazado_797269" data-name="Trazado 797269" d="M238.6,282.38a.4.4,0,0,1-.184-.753c.323-.168,7.975-4.109,14.221-3.571a.4.4,0,1,1-.069.8c-6.024-.527-13.707,3.444-13.785,3.483a.4.4,0,0,1-.184.046" transform="translate(-238.197 -274.284)" fill="#ffe0d2"/>
              </g>
            </g>
          </g>
        </g>
      </g>
      <g id="Grupo_1064600" data-name="Grupo 1064600" transform="translate(596.201 -7754.001)" clip-path="url(#clip-path)">
        <path id="Trazado_797271" data-name="Trazado 797271" d="M172.464,427.227c17-8.973,63.6-31,103.285-26.119a8.6,8.6,0,0,1,7.269,6.5l12.161,51.176L185.673,484.864l-17.281-47.025a8.629,8.629,0,0,1,4.073-10.612" transform="translate(-33.838 -111.902)" fill="#95d6f9"/>
      </g>
      <g id="Grupo_1064606" data-name="Grupo 1064606" transform="translate(737.799 -7465.491)">
        <g id="Grupo_1064605" data-name="Grupo 1064605" transform="translate(0)" clip-path="url(#clip-path-46)">
          <g id="Grupo_1064604" data-name="Grupo 1064604" transform="translate(79.797 -11.892)" opacity="0.04">
            <g id="Grupo_1064603" data-name="Grupo 1064603">
              <g id="Grupo_1064602" data-name="Grupo 1064602" clip-path="url(#clip-path-47)">
                <path id="Trazado_797272" data-name="Trazado 797272" d="M277.292,386.87l11.937,74.325,37.97-11.084-15.825-64.594Z" transform="translate(-277.292 -385.517)"/>
              </g>
            </g>
          </g>
        </g>
      </g>
      <g id="Grupo_1064613" data-name="Grupo 1064613" transform="translate(596.201 -7754.001)" clip-path="url(#clip-path)">
        <g id="Grupo_1064609" data-name="Grupo 1064609" transform="translate(169.202 201.397)" opacity="0.2">
          <g id="Grupo_1064608" data-name="Grupo 1064608">
            <g id="Grupo_1064607" data-name="Grupo 1064607" clip-path="url(#clip-path-49)">
              <path id="Trazado_797274" data-name="Trazado 797274" d="M215.084,311.677h-.016a.4.4,0,0,1-.383-.414c.5-13.27-2.683-19.309-2.715-19.369a.4.4,0,0,1,.7-.382c.136.25,3.321,6.26,2.812,19.781a.4.4,0,0,1-.4.384" transform="translate(-211.922 -291.305)" fill="#ffe0d2"/>
            </g>
          </g>
        </g>
        <g id="Grupo_1064612" data-name="Grupo 1064612" transform="translate(191.107 203.717)" opacity="0.2">
          <g id="Grupo_1064611" data-name="Grupo 1064611">
            <g id="Grupo_1064610" data-name="Grupo 1064610" clip-path="url(#clip-path-50)">
              <path id="Trazado_797275" data-name="Trazado 797275" d="M242.52,314.582H242.5a.4.4,0,0,1-.384-.414c.5-13.27-2.682-19.309-2.714-19.369a.4.4,0,0,1,.7-.382c.136.25,3.321,6.26,2.811,19.781a.4.4,0,0,1-.4.384" transform="translate(-239.358 -294.21)" fill="#ffe0d2"/>
            </g>
          </g>
        </g>
      </g>
      <path id="Trazado_797276" data-name="Trazado 797276" d="M107.51,46.84H60.854a9.609,9.609,0,0,1-9.581-9.581V9.58A9.609,9.609,0,0,1,60.854,0H107.51a9.609,9.609,0,0,1,9.581,9.581V37.259a9.609,9.609,0,0,1-9.581,9.581" transform="translate(585.865 -7785.186)" fill="#ff5a6a"/>
      <path id="Trazado_797277" data-name="Trazado 797277" d="M78.894,44.429H65.5a3.374,3.374,0,0,0-3.373,3.4l.12,17.922a3.373,3.373,0,0,0,6.084,1.986L81.6,49.81a3.373,3.373,0,0,0-2.711-5.381" transform="translate(583.678 -7794.143)" fill="#ff5a6a"/>
      <path id="Trazado_797278" data-name="Trazado 797278" d="M90.474,21.677c-2.945-6.731-9.6-4.126-10.525.014-1.092-4.133-8.12-6.6-10.782.216-2.341,6,7.179,12.375,10.213,14.222a1.651,1.651,0,0,0,1.7,0l.574-.351s11.895-7.068,8.816-14.1" transform="translate(582.332 -7788.724)" fill="#fff"/>
      <path id="Trazado_797279" data-name="Trazado 797279" d="M102.215,33.173V32.06l1.423-1.381c3.421-3.257,4.968-4.989,4.988-7.008a2.39,2.39,0,0,0-2.659-2.618,4.567,4.567,0,0,0-2.845,1.134l-.577-1.278a5.881,5.881,0,0,1,3.793-1.36,3.77,3.77,0,0,1,4.1,3.9c0,2.473-1.794,4.474-4.617,7.194l-1.072.989v.042h6.019v1.505Z" transform="translate(575.596 -7789.127)" fill="#fff"/>
      <path id="Trazado_797280" data-name="Trazado 797280" d="M247.673,134.8a26.852,26.852,0,1,1-26.852-26.852A26.852,26.852,0,0,1,247.673,134.8" transform="translate(557.1 -7806.946)" fill="#fff"/>
      <path id="Trazado_797281" data-name="Trazado 797281" d="M224.837,157.743l-12.479-4.876a3.373,3.373,0,0,0-4.378,1.935l-6.411,16.736a3.373,3.373,0,0,0,4.944,4.063l18.891-11.86a3.373,3.373,0,0,0-.566-6" transform="translate(555.616 -7815.955)" fill="#fff"/>
      <path id="Trazado_797282" data-name="Trazado 797282" d="M212.385,140.521a4.184,4.184,0,1,1-4.184-4.184,4.185,4.185,0,0,1,4.184,4.184" transform="translate(555.075 -7812.669)" fill="#075699"/>
      <path id="Trazado_797283" data-name="Trazado 797283" d="M230.728,140.521a4.184,4.184,0,1,1-4.184-4.184,4.185,4.185,0,0,1,4.184,4.184" transform="translate(551.377 -7812.669)" fill="#075699"/>
      <path id="Trazado_797284" data-name="Trazado 797284" d="M249.07,140.521a4.185,4.185,0,1,1-4.185-4.184,4.185,4.185,0,0,1,4.185,4.184" transform="translate(547.68 -7812.669)" fill="#075699"/>
      <path id="Trazado_797285" data-name="Trazado 797285" d="M144.122,94.067A23.287,23.287,0,1,1,120.835,70.78a23.287,23.287,0,0,1,23.287,23.287" transform="translate(576.537 -7799.454)" fill="#f9c110"/>
      <g id="Grupo_1064621" data-name="Grupo 1064621" transform="translate(674.084 -7728.674)">
        <g id="Grupo_1064620" data-name="Grupo 1064620" transform="translate(0 0)" clip-path="url(#clip-path-51)">
          <g id="Grupo_1064619" data-name="Grupo 1064619" transform="translate(10.182 0.857)" opacity="0.39">
            <g id="Grupo_1064618" data-name="Grupo 1064618">
              <g id="Grupo_1064617" data-name="Grupo 1064617" clip-path="url(#clip-path-52)">
                <path id="Trazado_797286" data-name="Trazado 797286" d="M127.406,71.853c7.864,4,13.2,11.777,13.2,20.72,0,13.026-11.322,23.586-25.29,23.586a27.12,27.12,0,0,1-5.016-.468,26.622,26.622,0,0,0,12.089,2.866c13.967,0,25.291-10.56,25.291-23.586,0-11.424-8.71-20.947-20.273-23.118" transform="translate(-110.3 -71.853)" fill="#fdd06a"/>
              </g>
            </g>
          </g>
        </g>
      </g>
      <path id="Trazado_797288" data-name="Trazado 797288" d="M119.988,97.7a.907.907,0,0,1-.907-.907,5.444,5.444,0,1,0-10.888,0,.907.907,0,1,1-1.814,0,7.258,7.258,0,1,1,14.516,0,.907.907,0,0,1-.907.907" transform="translate(574.757 -7803.234)"/>
      <path id="Trazado_797289" data-name="Trazado 797289" d="M142.857,97.7a.907.907,0,0,1-.907-.907,5.444,5.444,0,1,0-10.888,0,.907.907,0,1,1-1.814,0,7.258,7.258,0,1,1,14.516,0,.907.907,0,0,1-.907.907" transform="translate(570.147 -7803.234)"/>
      <path id="Trazado_797290" data-name="Trazado 797290" d="M131.249,104.871a1.957,1.957,0,0,1,1.925,2.41,9.359,9.359,0,0,1-18.085,0,1.957,1.957,0,0,1,1.925-2.41Z" transform="translate(573.014 -7806.326)"/>
      <g id="Grupo_1064625" data-name="Grupo 1064625" transform="translate(688.04 -7701.456)">
        <g id="Grupo_1064624" data-name="Grupo 1064624" transform="translate(0 0)" clip-path="url(#clip-path-53)">
          <path id="Trazado_797291" data-name="Trazado 797291" d="M132.019,116.039c0,2.713-3.1,4.913-6.913,4.913s-6.913-2.2-6.913-4.913,3.1-4.913,6.913-4.913,6.913,2.2,6.913,4.913" transform="translate(-115.665 -106.132)" fill="#ff5a6a"/>
        </g>
      </g>
      <path id="Trazado_797293" data-name="Trazado 797293" d="M255.764,250.849,219.2,240.3a5.176,5.176,0,0,1-3.539-6.409l7.408-25.667a5.177,5.177,0,0,1,6.409-3.539l36.56,10.551a5.178,5.178,0,0,1,3.539,6.409l-7.409,25.667a5.176,5.176,0,0,1-6.408,3.539" transform="translate(552.767 -7826.406)" fill="#f9c110"/>
      <g id="Grupo_1064629" data-name="Grupo 1064629" transform="translate(768.229 -7621.927)">
        <g id="Grupo_1064628" data-name="Grupo 1064628" transform="translate(0 0)" clip-path="url(#clip-path-54)">
          <path id="Trazado_797294" data-name="Trazado 797294" d="M260.805,258.293l-4.677-28.25a3.288,3.288,0,0,0-5.264-1.773l-9.409,8.679a.864.864,0,0,1-1.434-.47l-1.134-5.81a2.975,2.975,0,0,0-4.509-1.427L216.276,244l17.908,5.536Z" transform="translate(-215.626 -209.122)" fill="#fff"/>
          <path id="Trazado_797295" data-name="Trazado 797295" d="M237.971,222.12a3.657,3.657,0,1,1-3.19-4.07,3.657,3.657,0,0,1,3.19,4.07" transform="translate(-218.53 -207.209)" fill="#fff"/>
        </g>
      </g>
      <path id="Trazado_797297" data-name="Trazado 797297" d="M54.412,104.663c-3.885-9.878-13.64-6.482-15.2-.555-1.352-6.026-11.361-9.978-15.577-.277-3.708,8.532,9.687,18.257,13.967,21.09a2.384,2.384,0,0,0,2.458.094l.848-.475s17.559-9.554,13.5-19.877" transform="translate(591.565 -7804.935)" fill="#ff5a6a"/>
      <path id="Trazado_797298" data-name="Trazado 797298" d="M202.113,66.1A17.033,17.033,0,1,1,185.08,49.065,17.033,17.033,0,0,1,202.113,66.1" transform="translate(562.326 -7795.077)" fill="#f9c110"/>
      <path id="Trazado_797299" data-name="Trazado 797299" d="M186.116,75.426l-3.729,1.961a1.586,1.586,0,0,1-2.3-1.673l.712-4.152a1.589,1.589,0,0,0-.456-1.4l-3.017-2.941a1.587,1.587,0,0,1,.879-2.706l4.169-.605a1.588,1.588,0,0,0,1.194-.868l1.864-3.778a1.586,1.586,0,0,1,2.845,0l1.864,3.778a1.588,1.588,0,0,0,1.194.868l4.169.605a1.587,1.587,0,0,1,.879,2.706l-3.017,2.941a1.586,1.586,0,0,0-.456,1.4l.712,4.152a1.586,1.586,0,0,1-2.3,1.673l-3.729-1.961a1.588,1.588,0,0,0-1.476,0" transform="translate(560.552 -7796.954)" fill="#fff"/>
      <path id="Trazado_797300" data-name="Trazado 797300" d="M41.447,155.794a17.033,17.033,0,1,1-17.033-17.033,17.033,17.033,0,0,1,17.033,17.033" transform="translate(594.713 -7813.158)" fill="#042c49"/>
      <path id="Trazado_797301" data-name="Trazado 797301" d="M25.554,168.78v-2.41a6.939,6.939,0,0,1-3.65-1.049l.572-1.6a6.358,6.358,0,0,0,3.435,1.026c1.693,0,2.838-.978,2.838-2.338,0-1.312-.93-2.123-2.7-2.838-2.433-.955-3.935-2.052-3.935-4.127a3.912,3.912,0,0,1,3.6-3.84V149.2H27.2v2.314a6.362,6.362,0,0,1,3.1.835l-.6,1.574a5.766,5.766,0,0,0-3.006-.811c-1.837,0-2.529,1.1-2.529,2.051,0,1.241.883,1.861,2.958,2.719,2.457,1,3.7,2.243,3.7,4.366a4.15,4.15,0,0,1-3.769,4.055v2.481Z" transform="translate(591.785 -7815.262)" fill="#fff"/>
    </g>
  </g>
</svg>
