<svg xmlns="http://www.w3.org/2000/svg" xmlns:xlink="http://www.w3.org/1999/xlink" width="190" height="190" viewBox="0 0 190 190">
  <defs>
    <clipPath id="clip-path">
      <rect id="Rectángulo_373694" data-name="Rectángulo 373694" width="190" height="190" transform="translate(0 0)" fill="none"/>
    </clipPath>
  </defs>
  <g id="Grupo_1064390" data-name="Grupo 1064390" transform="translate(0.001 0)">
    <g id="Grupo_1064389" data-name="Grupo 1064389" transform="translate(-0.001 -0.001)" clip-path="url(#clip-path)">
      <path id="Trazado_797106" data-name="Trazado 797106" d="M38.2,0H151.8A38.184,38.184,0,0,1,190,38.2V151.8A38.184,38.184,0,0,1,151.8,190H38.2A38.184,38.184,0,0,1,0,151.8V38.2A38.184,38.184,0,0,1,38.2,0" transform="translate(0 0)" fill="#0b66c3" fill-rule="evenodd"/>
      <path id="Trazado_797107" data-name="Trazado 797107" d="M429.416,457.151h21.216V528.4H429.416Zm10.477-36.146a12.835,12.835,0,1,1,0,25.669,12.837,12.837,0,0,1,0-25.669M463.2,457.151h20.954V467.1a24.246,24.246,0,0,1,20.169-10.739h5.762a24.2,24.2,0,0,1,24.1,24.1V528.4H513.233v-38.5c-.262-8.12-5.762-14.406-13.882-14.406a15.05,15.05,0,0,0-15.192,14.406v38.5H463.2Z" transform="translate(-386.926 -381.208)" fill="#fff" fill-rule="evenodd"/>
    </g>
  </g>
</svg>
