<svg xmlns="http://www.w3.org/2000/svg" xmlns:xlink="http://www.w3.org/1999/xlink" width="133" height="133" viewBox="0 0 133 133">
  <defs>
    <clipPath id="clip-path">
      <rect id="Rectángulo_373726" data-name="Rectángulo 373726" width="133" height="133" transform="translate(-3343 -5568)" fill="#fff"/>
    </clipPath>
  </defs>
  <g id="Enmascarar_grupo_1059027" data-name="Enmascarar grupo 1059027" transform="translate(3343 5568)" clip-path="url(#clip-path)">
    <g id="adsense" transform="translate(-3343 -5568)">
      <path id="Trazado_797129" data-name="Trazado 797129" d="M129.311,68.42a4.146,4.146,0,0,0-3.5-1.92H75.936a4.146,4.146,0,0,0-3.766,2.4L44.989,127.09A4.15,4.15,0,0,0,48.754,133H98.629a4.152,4.152,0,0,0,3.766-2.394l27.182-58.187A4.174,4.174,0,0,0,129.311,68.42Z" fill="#2196f3"/>
      <path id="Trazado_797130" data-name="Trazado 797130" d="M110.45,1.92A4.16,4.16,0,0,0,106.942,0H65.379a4.146,4.146,0,0,0-3.766,2.4L3.426,127.09A4.15,4.15,0,0,0,7.192,133H48.754a4.152,4.152,0,0,0,3.766-2.394L110.707,5.918A4.173,4.173,0,0,0,110.45,1.92Z" fill="#ffc107"/>
    </g>
  </g>
</svg>
