<svg xmlns="http://www.w3.org/2000/svg" xmlns:xlink="http://www.w3.org/1999/xlink" width="133" height="133" viewBox="0 0 133 133">
  <defs>
    <clipPath id="clip-path">
      <rect id="Rectángulo_373728" data-name="Rectángulo 373728" width="133" height="133" transform="translate(-3343 -5274)" fill="#fff"/>
    </clipPath>
  </defs>
  <g id="Enmascarar_grupo_1059039" data-name="Enmascarar grupo 1059039" transform="translate(3343 5274)" clip-path="url(#clip-path)">
    <g id="surface1" transform="translate(-3343 -5272.907)">
      <path id="Trazado_797302" data-name="Trazado 797302" d="M53.537,121.685l-10.312-2.113-5.966,6.18L16.92,109.7l13.564-9.257L44.908,84.657a5.428,5.428,0,0,1,8.6.769l17.088,19.6a6.3,6.3,0,0,1-1.525,9.551L59,120.569A9.365,9.365,0,0,1,53.537,121.685Zm0,0" fill="#ffe7cf"/>
      <path id="Trazado_797303" data-name="Trazado 797303" d="M70.6,105.023l-4.169-4.782L49.038,110.6a9.366,9.366,0,0,1-5.467,1.115l-9.031-.972-7.8,6.7,10.522,8.3,5.965-6.181,10.312,2.114A9.371,9.371,0,0,0,59,120.569l10.067-5.995A6.3,6.3,0,0,0,70.6,105.023Zm0,0" fill="#efd5bd"/>
      <path id="Trazado_797304" data-name="Trazado 797304" d="M70.093,105.441c-2.013-3.122-4.466-1.542-6.479-4.666s.439-4.7-1.574-7.825-4.466-1.542-6.479-4.666.438-4.705-1.576-7.828c-1.231-1.909-3.46-5.85-4.818-6.392L38.3,79.433l18.91,29.824a6.165,6.165,0,0,0,8.524,1.841l3.618-2.332a2.407,2.407,0,0,0,.756-3.3Zm0,0" fill="#344a5d"/>
      <path id="Trazado_797305" data-name="Trazado 797305" d="M38.835,84.05,30.3,89.318a3.447,3.447,0,0,1-4.743-1.123l-4.826-7.822a3.447,3.447,0,0,1,1.123-4.743l8.537-5.267a2.134,2.134,0,0,1,2.936.7L39.53,81.115A2.133,2.133,0,0,1,38.835,84.05Zm0,0" fill="#344a5d"/>
      <path id="Trazado_797306" data-name="Trazado 797306" d="M44.073,56.108,26.746,66.8a4.851,4.851,0,0,0-1.582,6.676l8.545,13.849a4.852,4.852,0,0,0,6.677,1.581L57.713,78.215l54.805-11.93-33.2-53.808Zm0,0" fill="#fed066"/>
      <path id="Trazado_797307" data-name="Trazado 797307" d="M104.7,53.607,50.172,66,28.716,79.234l4.992,8.09a4.85,4.85,0,0,0,6.676,1.581L57.713,78.215l54.805-11.93Zm0,0" fill="#f5b556"/>
      <path id="Trazado_797308" data-name="Trazado 797308" d="M57.713,78.215,40.384,88.906a4.85,4.85,0,0,1-6.676-1.581L25.164,73.476A4.85,4.85,0,0,1,26.745,66.8L44.073,56.108Zm0,0" fill="#fd715c"/>
      <path id="Trazado_797309" data-name="Trazado 797309" d="M50.172,66,28.716,79.234l4.992,8.09a4.85,4.85,0,0,0,6.676,1.581l8.663-5.345,8.665-5.345Zm0,0" fill="#d83e3a"/>
      <path id="Trazado_797310" data-name="Trazado 797310" d="M115.806,70.108l-2.365,1.459a2.608,2.608,0,0,1-3.589-.85L74.16,12.873a2.608,2.608,0,0,1,.85-3.59l2.365-1.459a2.607,2.607,0,0,1,3.589.85l35.691,57.844A2.609,2.609,0,0,1,115.806,70.108Zm0,0" fill="#fd715c"/>
      <path id="Trazado_797311" data-name="Trazado 797311" d="M116.656,66.518,110.785,57l-6.806,4.2,5.872,9.516a2.608,2.608,0,0,0,3.589.85l2.365-1.459A2.609,2.609,0,0,0,116.656,66.518Zm0,0" fill="#d83e3a"/>
      <path id="Trazado_797312" data-name="Trazado 797312" d="M64.715,113.317a4.48,4.48,0,0,0,6.159,1.487l6.53-3.992a4.479,4.479,0,0,0-4.672-7.644L66.2,107.16A4.48,4.48,0,0,0,64.715,113.317Zm0,0" fill="#ffe7cf"/>
      <path id="Trazado_797313" data-name="Trazado 797313" d="M78.89,104.656a4.451,4.451,0,0,0-2.182-1.827,4.479,4.479,0,0,1-2.1,4.422l-6.531,3.992a4.469,4.469,0,0,1-3.975.341,4.474,4.474,0,0,0,6.773,3.221l6.53-3.992A4.479,4.479,0,0,0,78.89,104.656Zm0,0" fill="#efd5bd"/>
      <path id="Trazado_797314" data-name="Trazado 797314" d="M61.918,104.5a4.546,4.546,0,0,0,6.252,1.51l6.414-3.921a4.546,4.546,0,1,0-4.742-7.758l-6.415,3.921A4.546,4.546,0,0,0,61.918,104.5Zm0,0" fill="#ffe7cf"/>
      <path id="Trazado_797315" data-name="Trazado 797315" d="M76.094,95.841a4.524,4.524,0,0,0-2.14-1.825,4.543,4.543,0,0,1-2.136,4.452L65.4,102.389a4.537,4.537,0,0,1-4.113.317,4.543,4.543,0,0,0,6.88,3.306l6.414-3.921A4.548,4.548,0,0,0,76.094,95.841Zm0,0" fill="#efd5bd"/>
      <path id="Trazado_797316" data-name="Trazado 797316" d="M57.137,96.793a4.547,4.547,0,0,0,6.252,1.51L69.8,94.381a4.547,4.547,0,0,0-4.743-7.758l-6.415,3.921A4.546,4.546,0,0,0,57.137,96.793Zm0,0" fill="#ffe7cf"/>
      <path id="Trazado_797317" data-name="Trazado 797317" d="M71.313,88.132a4.523,4.523,0,0,0-2.086-1.805,4.544,4.544,0,0,1-2.144,4.386l-6.414,3.921a4.538,4.538,0,0,1-4.165.3A4.538,4.538,0,0,0,63.389,98.3L69.8,94.381A4.546,4.546,0,0,0,71.313,88.132Zm0,0" fill="#efd5bd"/>
      <path id="Trazado_797318" data-name="Trazado 797318" d="M52.63,88.886A4.547,4.547,0,0,0,58.881,90.4L65.3,86.474a4.547,4.547,0,1,0-4.743-7.759l-6.415,3.921A4.548,4.548,0,0,0,52.63,88.886Zm0,0" fill="#ffe7cf"/>
      <path id="Trazado_797319" data-name="Trazado 797319" d="M66.805,80.225a4.522,4.522,0,0,0-2.546-1.972,4.544,4.544,0,0,1-2.071,4.828L55.773,87a4.53,4.53,0,0,1-3.706.462A4.535,4.535,0,0,0,58.881,90.4L65.3,86.474A4.547,4.547,0,0,0,66.805,80.225Zm0,0" fill="#efd5bd"/>
      <path id="Trazado_797320" data-name="Trazado 797320" d="M62.253,94.387l-1.189.727a3.92,3.92,0,0,1-5.405-1.225l-1.971-3.223a3.38,3.38,0,0,0-4.679-1.044c-1.62,11.894-18.525,10.819-18.525,10.819L40.96,84.664a8.424,8.424,0,0,1,2.853-2.939l5.912-3.666a6.02,6.02,0,0,1,8.33,1.857l5.572,9.093A3.925,3.925,0,0,1,62.253,94.387Zm0,0" fill="#ffe7cf"/>
      <path id="Trazado_797321" data-name="Trazado 797321" d="M63.625,89.01l-.046-.075a4.041,4.041,0,0,1-1.326,1.316l-1.19.727a3.919,3.919,0,0,1-5.4-1.226l-1.971-3.222a3.381,3.381,0,0,0-4.679-1.045c-.68,4.988-3.73,9.768-7.134,13.043,3.444-1.513,6.491-4.19,7.134-8.907a3.38,3.38,0,0,1,4.679,1.044l1.971,3.223a3.92,3.92,0,0,0,5.4,1.226l1.19-.728A3.923,3.923,0,0,0,63.625,89.01Zm0,0" fill="#efd5bd"/>
      <path id="Trazado_797322" data-name="Trazado 797322" d="M37.587,126.139l-16.661-19.8,5.487-4.617a.411.411,0,0,1,.577.05l16.134,19.173a.411.411,0,0,1-.05.577Zm0,0" fill="#cdd6df"/>
      <path id="Trazado_797323" data-name="Trazado 797323" d="M43.122,120.946l-8.582-10.2-5.8,4.881,8.847,10.513,5.486-4.617A.409.409,0,0,0,43.122,120.946Zm0,0" fill="#96a4aa"/>
      <path id="Trazado_797324" data-name="Trazado 797324" d="M106.322,33.282a1.978,1.978,0,0,1-1.038-3.662L116,23.028a1.977,1.977,0,0,1,2.072,3.368l-10.717,6.593A1.959,1.959,0,0,1,106.322,33.282Zm0,0" fill="#dbd9d1"/>
      <path id="Trazado_797325" data-name="Trazado 797325" d="M131.025,49.423c-.064,0-.129,0-.194-.009l-15.713-1.527a1.977,1.977,0,1,1,.383-3.935l15.713,1.526a1.977,1.977,0,0,1-.189,3.945Zm0,0" fill="#dbd9d1"/>
      <path id="Trazado_797326" data-name="Trazado 797326" d="M97.329,18.668a1.978,1.978,0,0,1-1.842-2.694L101.21,1.26A1.977,1.977,0,0,1,104.9,2.694L99.172,17.406A1.979,1.979,0,0,1,97.329,18.668Zm0,0" fill="#dbd9d1"/>
      <path id="Trazado_797327" data-name="Trazado 797327" d="M38.776,125.955,20.768,104.831a.433.433,0,0,0-.574-.077L1.015,119.893A2.669,2.669,0,0,0,0,121.987v6.159a2.668,2.668,0,0,0,2.669,2.668H34.042a2.672,2.672,0,0,0,2.08-1l2.635-3.281A.434.434,0,0,0,38.776,125.955Zm0,0" fill="#3c5666"/>
      <path id="Trazado_797328" data-name="Trazado 797328" d="M38.776,125.955l-8.539-10.017L17.666,130.814H34.042a2.672,2.672,0,0,0,2.08-1l2.635-3.281A.434.434,0,0,0,38.776,125.955Zm0,0" fill="#194451"/>
    </g>
  </g>
</svg>
