<svg xmlns="http://www.w3.org/2000/svg" xmlns:xlink="http://www.w3.org/1999/xlink" width="64" height="64" viewBox="0 0 64 64">
  <defs>
    <clipPath id="clip-path">
      <rect id="Rectángulo_373704" data-name="Rectángulo 373704" width="64" height="64" transform="translate(312 4841)" fill="#ff5a20" stroke="#ff5a20" stroke-width="1"/>
    </clipPath>
    <clipPath id="clip-path-2">
      <path id="path4836" d="M0-64H64V0H0Z" fill="#ff5a20"/>
    </clipPath>
  </defs>
  <g id="Enmascarar_grupo_1059021" data-name="Enmascarar grupo 1059021" transform="translate(-312 -4841)" clip-path="url(#clip-path)">
    <g id="g4830" transform="translate(312 4905)">
      <g id="g4832">
        <g id="g4834" clip-path="url(#clip-path-2)">
          <g id="g4840" transform="translate(1.97 -21.848)">
            <path id="path4842" d="M0,0-1,4.688A1.268,1.268,0,0,0,.077,6.211l3.6.456L9.324,9.982" fill="none" stroke="#ff5a20" stroke-linecap="round" stroke-linejoin="round" stroke-miterlimit="10" stroke-width="1.875"/>
          </g>
          <g id="g4844" transform="translate(7.899 -49.533)">
            <path id="path4846" d="M0,0-4.989,23.3" fill="none" stroke="#ff5a20" stroke-linecap="round" stroke-linejoin="round" stroke-miterlimit="10" stroke-width="1.875"/>
          </g>
          <g id="g4848" transform="translate(5.671 -15.605)">
            <path id="path4850" d="M0,0,2.227-33.928" fill="none" stroke="#ff5a20" stroke-linecap="round" stroke-linejoin="round" stroke-miterlimit="10" stroke-width="1.875"/>
          </g>
          <g id="g4852" transform="translate(54.884 -15.683)">
            <path id="path4854" d="M0,0,.212,2.7A1.268,1.268,0,0,1-1.053,4.064H-42.84A1.268,1.268,0,0,1-44.1,2.894l-2.385-30.416" fill="none" stroke="#ff5a20" stroke-linecap="round" stroke-linejoin="round" stroke-miterlimit="10" stroke-width="1.875"/>
          </g>
          <g id="g4856" transform="translate(49.128 -16.049)">
            <path id="path4858" d="M0,0H12.665a1.268,1.268,0,0,0,1.222-1.606L5.34-32.554a1.268,1.268,0,0,0-1.222-.931H-41.23l5.8,21.006" fill="none" stroke="#ff5a20" stroke-linecap="round" stroke-linejoin="round" stroke-miterlimit="10" stroke-width="1.875"/>
          </g>
          <g id="g4860" transform="translate(14.896 -24.197)">
            <path id="path4862" d="M0,0,1.993,7.218a1.268,1.268,0,0,0,1.222.931H29.741" fill="none" stroke="#ff5a20" stroke-linecap="round" stroke-linejoin="round" stroke-miterlimit="10" stroke-width="1.875"/>
          </g>
          <g id="g4864" transform="translate(10.564 -41.241)">
            <path id="path4866" d="M0,0H45.563" fill="none" stroke="#ff5a20" stroke-linecap="round" stroke-linejoin="round" stroke-miterlimit="10" stroke-width="1.875"/>
          </g>
          <g id="g4868" transform="translate(9.614 -49.533)">
            <path id="path4870" d="M0,0A2.848,2.848,0,0,1,2.848-2.848,2.848,2.848,0,0,1,5.7,0,2.848,2.848,0,0,1,2.848,2.848" fill="none" stroke="#ff5a20" stroke-linecap="round" stroke-linejoin="round" stroke-miterlimit="10" stroke-width="1.875"/>
          </g>
          <g id="g4872" transform="translate(15.309 -49.533)">
            <path id="path4874" d="M0,0A2.848,2.848,0,0,1,2.848-2.848,2.848,2.848,0,0,1,5.7,0,2.848,2.848,0,0,1,2.848,2.848" fill="none" stroke="#ff5a20" stroke-linecap="round" stroke-linejoin="round" stroke-miterlimit="10" stroke-width="1.875"/>
          </g>
          <g id="g4876" transform="translate(21.004 -49.533)">
            <path id="path4878" d="M0,0A2.848,2.848,0,0,1,2.848-2.848,2.848,2.848,0,0,1,5.7,0,2.848,2.848,0,0,1,2.848,2.848" fill="none" stroke="#ff5a20" stroke-linecap="round" stroke-linejoin="round" stroke-miterlimit="10" stroke-width="1.875"/>
          </g>
          <g id="g4880" transform="translate(26.699 -49.533)">
            <path id="path4882" d="M0,0A2.848,2.848,0,0,1,2.848-2.848,2.848,2.848,0,0,1,5.7,0,2.848,2.848,0,0,1,2.848,2.848" fill="none" stroke="#ff5a20" stroke-linecap="round" stroke-linejoin="round" stroke-miterlimit="10" stroke-width="1.875"/>
          </g>
          <g id="g4884" transform="translate(32.394 -49.533)">
            <path id="path4886" d="M0,0A2.848,2.848,0,0,1,2.848-2.848,2.848,2.848,0,0,1,5.7,0,2.848,2.848,0,0,1,2.848,2.848" fill="none" stroke="#ff5a20" stroke-linecap="round" stroke-linejoin="round" stroke-miterlimit="10" stroke-width="1.875"/>
          </g>
          <g id="g4888" transform="translate(38.089 -49.533)">
            <path id="path4890" d="M0,0A2.848,2.848,0,0,1,2.848-2.848,2.848,2.848,0,0,1,5.7,0,2.848,2.848,0,0,1,2.848,2.848" fill="none" stroke="#ff5a20" stroke-linecap="round" stroke-linejoin="round" stroke-miterlimit="10" stroke-width="1.875"/>
          </g>
          <g id="g4892" transform="translate(43.784 -49.533)">
            <path id="path4894" d="M0,0A2.848,2.848,0,0,1,2.848-2.848,2.848,2.848,0,0,1,5.7,0,2.848,2.848,0,0,1,2.848,2.848" fill="none" stroke="#ff5a20" stroke-linecap="round" stroke-linejoin="round" stroke-miterlimit="10" stroke-width="1.875"/>
          </g>
          <g id="g4896" transform="translate(49.479 -49.533)">
            <path id="path4898" d="M0,0A2.848,2.848,0,0,1,2.848-2.848,2.848,2.848,0,0,1,5.7,0,2.848,2.848,0,0,1,2.848,2.848" fill="none" stroke="#ff5a20" stroke-linecap="round" stroke-linejoin="round" stroke-miterlimit="10" stroke-width="1.875"/>
          </g>
          <g id="g4900" transform="translate(24.877 -30.899)">
            <path id="path4902" d="M0,0-1.614-5.033a1.268,1.268,0,0,0-1.208-.881H-6.538A1.268,1.268,0,0,0-7.746-4.259L-6.132.775a1.268,1.268,0,0,0,1.207.881h3.716A1.268,1.268,0,0,0,0,0Z" fill="none" stroke="#ff5a20" stroke-linecap="round" stroke-linejoin="round" stroke-miterlimit="10" stroke-width="1.875"/>
          </g>
          <g id="g4904" transform="translate(28.025 -36.433)">
            <path id="path4906" d="M0,0H1.731" fill="none" stroke="#ff5a20" stroke-linecap="round" stroke-linejoin="round" stroke-miterlimit="10" stroke-width="1.875"/>
          </g>
          <g id="g4908" transform="translate(33.877 -36.433)">
            <path id="path4910" d="M0,0H1.731" fill="none" stroke="#ff5a20" stroke-linecap="round" stroke-linejoin="round" stroke-miterlimit="10" stroke-width="1.875"/>
          </g>
          <g id="g4912" transform="translate(39.73 -36.433)">
            <path id="path4914" d="M0,0H1.731" fill="none" stroke="#ff5a20" stroke-linecap="round" stroke-linejoin="round" stroke-miterlimit="10" stroke-width="1.875"/>
          </g>
          <g id="g4916" transform="translate(45.582 -36.433)">
            <path id="path4918" d="M0,0H1.731" fill="none" stroke="#ff5a20" stroke-linecap="round" stroke-linejoin="round" stroke-miterlimit="10" stroke-width="1.875"/>
          </g>
          <g id="g4920" transform="translate(51.434 -36.433)">
            <path id="path4922" d="M0,0H1.731" fill="none" stroke="#ff5a20" stroke-linecap="round" stroke-linejoin="round" stroke-miterlimit="10" stroke-width="1.875"/>
          </g>
          <g id="g4924" transform="translate(29.271 -31.322)">
            <path id="path4926" d="M0,0H1.731" fill="none" stroke="#ff5a20" stroke-linecap="round" stroke-linejoin="round" stroke-miterlimit="10" stroke-width="1.875"/>
          </g>
          <g id="g4928" transform="translate(35.123 -31.322)">
            <path id="path4930" d="M0,0H1.731" fill="none" stroke="#ff5a20" stroke-linecap="round" stroke-linejoin="round" stroke-miterlimit="10" stroke-width="1.875"/>
          </g>
          <g id="g4932" transform="translate(40.975 -31.322)">
            <path id="path4934" d="M0,0H1.731" fill="none" stroke="#ff5a20" stroke-linecap="round" stroke-linejoin="round" stroke-miterlimit="10" stroke-width="1.875"/>
          </g>
          <g id="g4936" transform="translate(46.828 -31.322)">
            <path id="path4938" d="M0,0H1.731" fill="none" stroke="#ff5a20" stroke-linecap="round" stroke-linejoin="round" stroke-miterlimit="10" stroke-width="1.875"/>
          </g>
          <g id="g4940" transform="translate(52.68 -31.322)">
            <path id="path4942" d="M0,0H1.731" fill="none" stroke="#ff5a20" stroke-linecap="round" stroke-linejoin="round" stroke-miterlimit="10" stroke-width="1.875"/>
          </g>
          <g id="g4944" transform="translate(30.516 -26.211)">
            <path id="path4946" d="M0,0H1.731" fill="none" stroke="#ff5a20" stroke-linecap="round" stroke-linejoin="round" stroke-miterlimit="10" stroke-width="1.875"/>
          </g>
          <g id="g4948" transform="translate(36.369 -26.211)">
            <path id="path4950" d="M0,0H1.731" fill="none" stroke="#ff5a20" stroke-linecap="round" stroke-linejoin="round" stroke-miterlimit="10" stroke-width="1.875"/>
          </g>
          <g id="g4952" transform="translate(42.221 -26.211)">
            <path id="path4954" d="M0,0H1.731" fill="none" stroke="#ff5a20" stroke-linecap="round" stroke-linejoin="round" stroke-miterlimit="10" stroke-width="1.875"/>
          </g>
          <g id="g4956" transform="translate(48.073 -26.211)">
            <path id="path4958" d="M0,0H1.731" fill="none" stroke="#ff5a20" stroke-linecap="round" stroke-linejoin="round" stroke-miterlimit="10" stroke-width="1.875"/>
          </g>
          <g id="g4960" transform="translate(53.926 -26.211)">
            <path id="path4962" d="M0,0H1.731" fill="none" stroke="#ff5a20" stroke-linecap="round" stroke-linejoin="round" stroke-miterlimit="10" stroke-width="1.875"/>
          </g>
          <g id="g4964" transform="translate(31.382 -21.1)">
            <path id="path4966" d="M0,0H1.731" fill="none" stroke="#ff5a20" stroke-linecap="round" stroke-linejoin="round" stroke-miterlimit="10" stroke-width="1.875"/>
          </g>
          <g id="g4968" transform="translate(37.234 -21.1)">
            <path id="path4970" d="M0,0H1.731" fill="none" stroke="#ff5a20" stroke-linecap="round" stroke-linejoin="round" stroke-miterlimit="10" stroke-width="1.875"/>
          </g>
          <g id="g4972" transform="translate(43.086 -21.1)">
            <path id="path4974" d="M0,0H1.731" fill="none" stroke="#ff5a20" stroke-linecap="round" stroke-linejoin="round" stroke-miterlimit="10" stroke-width="1.875"/>
          </g>
          <g id="g4976" transform="translate(48.939 -21.1)">
            <path id="path4978" d="M0,0H1.731" fill="none" stroke="#ff5a20" stroke-linecap="round" stroke-linejoin="round" stroke-miterlimit="10" stroke-width="1.875"/>
          </g>
          <g id="g4980" transform="translate(54.791 -21.1)">
            <path id="path4982" d="M0,0H1.731" fill="none" stroke="#ff5a20" stroke-linecap="round" stroke-linejoin="round" stroke-miterlimit="10" stroke-width="1.875"/>
          </g>
          <g id="g4984" transform="translate(21.402 -25.207)">
            <path id="path4986" d="M0,0,1.156,4.188" fill="none" stroke="#ff5a20" stroke-linecap="round" stroke-linejoin="round" stroke-miterlimit="10" stroke-width="1.875"/>
          </g>
          <g id="g4988" transform="translate(25.17 -23.113)">
            <path id="path4990" d="M0,0,.578,2.094" fill="none" stroke="#ff5a20" stroke-linecap="round" stroke-linejoin="round" stroke-miterlimit="10" stroke-width="1.875"/>
          </g>
        </g>
      </g>
    </g>
  </g>
</svg>
