<svg xmlns="http://www.w3.org/2000/svg" xmlns:xlink="http://www.w3.org/1999/xlink" width="64" height="64" viewBox="0 0 64 64">
  <defs>
    <clipPath id="clip-path">
      <rect id="Rectángulo_373710" data-name="Rectángulo 373710" width="64" height="64" transform="translate(-2727 -6859)" fill="#ff5a20"/>
    </clipPath>
  </defs>
  <g id="Enmascarar_grupo_1059043" data-name="Enmascarar grupo 1059043" transform="translate(2727 6859)" clip-path="url(#clip-path)">
    <g id="medios-de-comunicacion-social" transform="translate(-2728.032 -6860.032)">
      <path id="Trazado_797366" data-name="Trazado 797366" d="M27.871,13.831v-.162a6.576,6.576,0,0,0-1.94-4.681,6.017,6.017,0,0,0-8.383-.122,6.017,6.017,0,0,0-8.383.122,6.576,6.576,0,0,0-1.94,4.681v.162A7.015,7.015,0,0,0,9.578,19.07l7.97,7.085,7.969-7.084a7.013,7.013,0,0,0,2.354-5.24ZM17.548,23.393l-6.6-5.865a4.948,4.948,0,0,1-1.66-3.7v-.162a4.526,4.526,0,0,1,1.335-3.222,3.952,3.952,0,0,1,5.589,0l1.335,1.335,1.335-1.335a4.049,4.049,0,0,1,5.589,0,4.526,4.526,0,0,1,1.335,3.222v.162a4.949,4.949,0,0,1-1.66,3.7Z" fill="#ff5a20"/>
      <path id="Trazado_797367" data-name="Trazado 797367" d="M61.935,9.29H34.065V4.129a3.1,3.1,0,0,0-3.1-3.1H4.129a3.1,3.1,0,0,0-3.1,3.1v22.71a3.1,3.1,0,0,0,3.1,3.1h8.807L14.657,32H6.194a3.1,3.1,0,0,0-3.1,3.1V55.742a3.1,3.1,0,0,0,3.1,3.1H17.065l4.43,5.316a2.438,2.438,0,0,0,4.311-1.561V58.839H37.161a3.1,3.1,0,0,0,3.1-3.1V38.194h2.065v3.755a2.438,2.438,0,0,0,4.311,1.561l4.43-5.316H61.935a3.1,3.1,0,0,0,3.1-3.1V12.387a3.1,3.1,0,0,0-3.1-3.1ZM4.129,27.871A1.033,1.033,0,0,1,3.1,26.839V4.129A1.033,1.033,0,0,1,4.129,3.1H30.968A1.033,1.033,0,0,1,32,4.129v22.71a1.033,1.033,0,0,1-1.032,1.032H19.613v5.82a.386.386,0,0,1-.661.238L13.9,27.871ZM27.871,32H21.677V29.935h6.194ZM38.194,55.742a1.033,1.033,0,0,1-1.032,1.032H23.742v5.82a.386.386,0,0,1-.661.238l-5.05-6.058H6.194a1.033,1.033,0,0,1-1.032-1.032V35.1a1.033,1.033,0,0,1,1.032-1.032H16.377l.99,1.187a2.431,2.431,0,0,0,4.273-1.187h6.232V35.1a3.1,3.1,0,0,0,3.1,3.1h7.226ZM62.968,35.1a1.033,1.033,0,0,1-1.032,1.032H50.1l-5.05,6.058a.387.387,0,0,1-.661-.238v-5.82H30.968A1.033,1.033,0,0,1,29.935,35.1V29.935h1.032a3.1,3.1,0,0,0,3.1-3.1V11.355H61.935a1.033,1.033,0,0,1,1.032,1.032Z" fill="#ff5a20"/>
      <path id="Trazado_797368" data-name="Trazado 797368" d="M25.806,44.387a4.089,4.089,0,0,0,.382,1.71,6.811,6.811,0,0,0-1.476-1,4.129,4.129,0,1,0-6.07,0,6.811,6.811,0,0,0-1.476,1,4.089,4.089,0,0,0,.382-1.71,4.129,4.129,0,1,0-7.115,2.836,6.2,6.2,0,0,0-3.207,5.422V54.71H9.29V52.645a4.12,4.12,0,0,1,5.971-3.69,6.867,6.867,0,0,0-.341,1.48l-.462,4.16,2.051.228.462-4.16a4.735,4.735,0,0,1,9.412,0l.462,4.16L28.9,54.6l-.462-4.16a6.806,6.806,0,0,0-.341-1.48,4.12,4.12,0,0,1,5.971,3.69V54.71h2.065V52.645a6.2,6.2,0,0,0-3.207-5.422,4.125,4.125,0,1,0-7.115-2.836Zm-14.452,0a2.065,2.065,0,1,1,2.065,2.065A2.067,2.067,0,0,1,11.355,44.387Zm8.258-2.065a2.065,2.065,0,1,1,2.065,2.065A2.067,2.067,0,0,1,19.613,42.323ZM32,44.387a2.065,2.065,0,1,1-2.065-2.065A2.067,2.067,0,0,1,32,44.387Z" fill="#ff5a20"/>
      <path id="Trazado_797369" data-name="Trazado 797369" d="M54.71,19.613H52.831l.249-1.491a4.039,4.039,0,0,0-3.983-4.7,3.094,3.094,0,0,0-3,2.345,8.515,8.515,0,0,1-2.239,3.956l-.3.3a2.049,2.049,0,0,0-1.225-.412H38.194a2.067,2.067,0,0,0-2.065,2.065V32a2.067,2.067,0,0,0,2.065,2.065h4.129a2.061,2.061,0,0,0,1.942-1.389,13.27,13.27,0,0,0,5.909,1.389H54.71a4.133,4.133,0,0,0,4.129-4.129V23.742a4.133,4.133,0,0,0-4.129-4.129ZM38.194,32V21.677h4.129V32Zm18.581-2.065A2.067,2.067,0,0,1,54.71,32H50.173a11.216,11.216,0,0,1-5.786-1.608V22.1l.925-.925a10.581,10.581,0,0,0,2.783-4.915,1.031,1.031,0,0,1,1-.781,1.975,1.975,0,0,1,1.947,2.3l-.648,3.894H54.71a2.067,2.067,0,0,1,2.065,2.065Z" fill="#ff5a20"/>
    </g>
  </g>
</svg>
