<svg xmlns="http://www.w3.org/2000/svg" xmlns:xlink="http://www.w3.org/1999/xlink" width="133" height="133" viewBox="0 0 133 133">
  <defs>
    <clipPath id="clip-path">
      <rect id="Rectángulo_373849" data-name="Rectángulo 373849" width="133" height="133" transform="translate(-10112 -10167)" fill="#fff"/>
    </clipPath>
  </defs>
  <g id="Enmascarar_grupo_1059048" data-name="Enmascarar grupo 1059048" transform="translate(10112 10167)" clip-path="url(#clip-path)">
    <g id="Layer_1" transform="translate(-10113.585 -10168.585)">
      <g id="Grupo_1064658" data-name="Grupo 1064658">
        <path id="Trazado_797425" data-name="Trazado 797425" d="M127.934,12.26H8.237a5.319,5.319,0,0,0-5.319,5.319V93.143a5.32,5.32,0,0,0,5.319,5.32h119.7a5.32,5.32,0,0,0,5.319-5.32V17.579a5.319,5.319,0,0,0-5.319-5.319Z" fill="#72c2e9"/>
        <path id="Trazado_797426" data-name="Trazado 797426" d="M33.443-1.348h69.284V112.07H33.443Z" transform="translate(123.446 -12.724) rotate(90)" fill="#efefef"/>
        <path id="Trazado_797427" data-name="Trazado 797427" d="M81.234,115.134h-26.3l4.691-16.67H76.543Z" fill="#72c2e9"/>
        <path id="Trazado_797428" data-name="Trazado 797428" d="M77.915,103.341H58.255l1.372-4.878H76.543Z" fill="#4ba5c8"/>
        <path id="Trazado_797429" data-name="Trazado 797429" d="M93.484,120.453v3.457h-50.8v-3.457a5.321,5.321,0,0,1,5.319-5.319h40.16A5.321,5.321,0,0,1,93.484,120.453Z" fill="#72c2e9"/>
        <path id="Trazado_797430" data-name="Trazado 797430" d="M44.441,37.742H30.654l0-3.99a2.432,2.432,0,0,1,2.431-2.43H40.2a5.352,5.352,0,0,0,2.478-.608l2.971-1.552a7.514,7.514,0,0,1-1.211,8.579Z" fill="#7c7b7a"/>
        <path id="Trazado_797431" data-name="Trazado 797431" d="M37.547,49.711a6.892,6.892,0,0,1-6.892-6.892V37.742H44.439v5.077A6.893,6.893,0,0,1,37.547,49.711Z" fill="#ffb69f"/>
        <path id="Trazado_797432" data-name="Trazado 797432" d="M50.8,57.742V66.2H24.09V57.742a8.034,8.034,0,0,1,8.031-8.031H42.766A8.034,8.034,0,0,1,50.8,57.742Z" fill="#fc5d3d"/>
        <path id="Trazado_797433" data-name="Trazado 797433" d="M104.729,37.654,87.08,55.361,77.554,32.244a25.015,25.015,0,0,1,27.176,5.41Z" fill="#fc5d3d"/>
        <path id="Trazado_797434" data-name="Trazado 797434" d="M111.543,50.18,87.08,55.361l17.649-17.707a24.971,24.971,0,0,1,6.814,12.527Z" fill="#72c2e9"/>
        <path id="Trazado_797435" data-name="Trazado 797435" d="M97.751,77.973,87.08,55.361l24.463-5.181A25.013,25.013,0,0,1,97.751,77.973Z" fill="#f0c020"/>
        <path id="Trazado_797436" data-name="Trazado 797436" d="M87.08,55.361,76.107,77.824a25,25,0,0,1,1.447-45.58Z" fill="#7d7b79"/>
        <path id="Trazado_797437" data-name="Trazado 797437" d="M97.751,77.973a25.014,25.014,0,0,1-21.644-.149L87.08,55.361Z" fill="#13bf6d"/>
        <g id="Grupo_1064656" data-name="Grupo 1064656">
          <path id="Trazado_797438" data-name="Trazado 797438" d="M120.006,86.837H24.929a1.33,1.33,0,0,1,0-2.66h93.747V25.8a1.33,1.33,0,1,1,2.66,0v59.71A1.33,1.33,0,0,1,120.006,86.837Zm-100.4,0H16.164a1.33,1.33,0,0,1,0-2.66H19.61a1.33,1.33,0,0,1,0,2.66Z" fill="#fff"/>
        </g>
        <circle id="Elipse_8305" data-name="Elipse 8305" cx="1.33" cy="1.33" r="1.33" transform="translate(10.048 40.665)"/>
        <path id="Trazado_797439" data-name="Trazado 797439" d="M133.255,64.824a1.33,1.33,0,1,0,1.324,1.335A1.335,1.335,0,0,0,133.255,64.824Z"/>
        <circle id="Elipse_8306" data-name="Elipse 8306" cx="1.33" cy="1.33" r="1.33" transform="translate(53.059 122.58)"/>
        <g id="Grupo_1064657" data-name="Grupo 1064657">
          <path id="Trazado_797440" data-name="Trazado 797440" d="M10.048,90.005a1.324,1.324,0,0,0,1.33,1.324H124.793a1.325,1.325,0,0,0,1.33-1.324V20.718a1.326,1.326,0,0,0-1.33-1.33H11.378a1.328,1.328,0,0,0-1.33,1.33V36.676a1.33,1.33,0,1,0,2.66,0V22.048H123.463V88.676H12.707V47.314a1.33,1.33,0,0,0-2.66,0Z"/>
          <path id="Trazado_797441" data-name="Trazado 797441" d="M1.585,93.144a6.662,6.662,0,0,0,6.649,6.649H57.872L53.929,113.8H48.005a6.661,6.661,0,0,0-6.649,6.649v3.457a1.331,1.331,0,0,0,1.33,1.33h6.383a1.33,1.33,0,1,0,0-2.66H44.016v-2.128a4,4,0,0,1,3.989-3.989h40.16a4,4,0,0,1,3.989,3.989v2.128H59.707a1.33,1.33,0,1,0,0,2.66H93.484a1.326,1.326,0,0,0,1.33-1.33v-3.457a6.662,6.662,0,0,0-6.649-6.649H82.241L78.3,99.793h49.638a6.653,6.653,0,0,0,6.644-6.649V71.473a1.327,1.327,0,0,0-2.654,0v21.67a4.008,4.008,0,0,1-3.989,3.989H8.234a4.008,4.008,0,0,1-3.989-3.989V17.58A4,4,0,0,1,8.234,13.59h119.7a4,4,0,0,1,3.989,3.989V60.835a1.33,1.33,0,1,0,2.66,0,.005.005,0,0,0-.005-.005V17.58a6.654,6.654,0,0,0-6.644-6.649H8.234A6.658,6.658,0,0,0,1.585,17.58ZM56.693,113.8l3.943-14.01h14.9l3.943,14.01Z"/>
          <path id="Trazado_797442" data-name="Trazado 797442" d="M22.76,57.742V66.2a1.33,1.33,0,1,0,2.66,0V57.742a6.709,6.709,0,0,1,6.7-6.7H42.766a6.71,6.71,0,0,1,6.7,6.7V66.2a1.33,1.33,0,1,0,2.66,0V57.742a9.369,9.369,0,0,0-8.579-9.321,8.184,8.184,0,0,0,2.221-5.6V38.234a8.822,8.822,0,0,0,1.072-9.665,1.331,1.331,0,0,0-1.8-.585l-2.973,1.553a4.031,4.031,0,0,1-1.862.457H33.09A3.763,3.763,0,0,0,29.33,33.75c-.006,4.5,0,2.14,0,9.069a8.182,8.182,0,0,0,2.212,5.592,9.366,9.366,0,0,0-8.777,9.331Zm9.224-14.923V39.074H43.109v3.744a5.562,5.562,0,1,1-11.124,0ZM33.09,32.654H40.2c1.928,0,3.029-.726,4.745-1.622a6.18,6.18,0,0,1-1.115,5.38H31.984l.005-2.657A1.1,1.1,0,0,1,33.09,32.654Z"/>
          <path id="Trazado_797443" data-name="Trazado 797443" d="M50.8,71.479H24.09a1.33,1.33,0,1,0,0,2.66H50.8a1.33,1.33,0,1,0,0-2.66Z"/>
          <path id="Trazado_797444" data-name="Trazado 797444" d="M50.8,77.6H24.09a1.327,1.327,0,1,0,0,2.654H50.8a1.327,1.327,0,1,0,0-2.654Z"/>
        </g>
        <path id="Trazado_797445" data-name="Trazado 797445" d="M87.08,81.691a26.047,26.047,0,0,0,11.237-2.515h0a26.417,26.417,0,0,0,14.526-29.267v0A26.332,26.332,0,1,0,87.08,81.691Zm17.626-42.13a23.563,23.563,0,0,1,5.224,9.6L91.178,53.134l13.529-13.573ZM77.9,77.183l9.16-18.75,8.906,18.873A23.73,23.73,0,0,1,77.9,77.183Zm20.469-1.015L89,56.314l21.478-4.549A23.759,23.759,0,0,1,98.369,76.168ZM87.08,31.691a23.5,23.5,0,0,1,15.743,5.992L87.549,53.008,79.3,33a23.531,23.531,0,0,1,7.777-1.309ZM63.41,55.361A23.6,23.6,0,0,1,76.845,34.015l8.778,21.3-10.111,20.7a23.505,23.505,0,0,1-12.1-20.651Z"/>
      </g>
    </g>
  </g>
</svg>
