<svg xmlns="http://www.w3.org/2000/svg" xmlns:xlink="http://www.w3.org/1999/xlink" width="105" height="105" viewBox="0 0 105 105">
  <defs>
    <clipPath id="clip-path">
      <rect id="Rectángulo_373739" data-name="Rectángulo 373739" width="65" height="65" transform="translate(1020 2379)" fill="#ffce1f"/>
    </clipPath>
  </defs>
  <g id="Grupo_1064658" data-name="Grupo 1064658" transform="translate(-1000 -2359)">
    <circle id="Elipse_8298" data-name="Elipse 8298" cx="52.5" cy="52.5" r="52.5" transform="translate(1000 2359)" fill="#ff5a20"/>
    <g id="Enmascarar_grupo_1059031" data-name="Enmascarar grupo 1059031" clip-path="url(#clip-path)">
      <g id="Outline" transform="translate(1017.839 2376.835)">
        <path id="Trazado_797145" data-name="Trazado 797145" d="M15.774,14.462l-.049,10.833a1.083,1.083,0,0,1-1.738.858l-1.023-.775a23.632,23.632,0,0,0,2.32,22.75l-1.779,1.237a25.794,25.794,0,0,1-1.931-26.144,1.083,1.083,0,0,1,1.625-.382l.368.279L13.6,15.9l-6.94,1.99,1.094.828a1.083,1.083,0,0,1,.3,1.384,30.212,30.212,0,0,0-1.863,4.1L4.154,23.46a32.393,32.393,0,0,1,1.559-3.571l-2.087-1.58A1.083,1.083,0,0,1,3.98,16.4l10.411-2.987a1.083,1.083,0,0,1,1.382,1.046ZM5.615,49.233l1.936-.973A30.148,30.148,0,0,1,4.633,30.419a30.769,30.769,0,0,1,.747-3.66L3.287,26.2a32.917,32.917,0,0,0-.8,3.919A32.3,32.3,0,0,0,5.615,49.233ZM29.471,25.024a11.954,11.954,0,0,0-1.957,1.2l1.3,1.731a9.78,9.78,0,0,1,1.6-.98ZM22.748,36.831h2.167V35.748a9.722,9.722,0,0,1,2.52-6.534L25.829,27.76a11.884,11.884,0,0,0-3.08,7.988ZM63.912,66.079V56.329H61.746V65H50.913V52H52V49.83H50.108a16.712,16.712,0,0,0-16.043-.02l-.036.02H26A4.338,4.338,0,0,0,21.814,55.3L17.6,53.364a1.982,1.982,0,0,1,.317-.417L20.265,50.6a1.083,1.083,0,0,0,.317-.765V35.748A14.12,14.12,0,0,1,30.9,22.176a1.083,1.083,0,0,0,.643-1.595L28.98,16.249H40.349L37.79,20.581a1.083,1.083,0,0,0,.643,1.595A14.12,14.12,0,0,1,48.747,35.748V47.663h2.167V35.748A16.3,16.3,0,0,0,40.342,20.519l2.837-4.8a1.083,1.083,0,0,0-.933-1.634H27.081a1.083,1.083,0,0,0-.933,1.634l2.837,4.8A16.3,16.3,0,0,0,18.415,35.748V49.381l-2.035,2.035a4.135,4.135,0,0,0-.76,1.044l-3.656-1.674a4.675,4.675,0,0,0-5.993,2.008,4.864,4.864,0,0,0,2,6.567L20.6,65.677a14.161,14.161,0,0,0,6.3,1.485H42.247V65H26.9a11.982,11.982,0,0,1-5.328-1.257L8.941,57.423a2.736,2.736,0,0,1-1.062-3.6,2.481,2.481,0,0,1,3.185-1.066L23.381,58.4a1.083,1.083,0,0,0,.451.1H35.748V56.329H26A2.167,2.167,0,0,1,26,52h8.3a1.083,1.083,0,0,0,.516-.131l.28-.152a14.554,14.554,0,0,1,13.648-.157V65H44.414v2.167H62.829A1.083,1.083,0,0,0,63.912,66.079Zm-6.5-5.416a2.167,2.167,0,1,0-2.167,2.167A2.167,2.167,0,0,0,57.413,60.663ZM35.748,31.415v4.333a4.333,4.333,0,1,1,0,8.666V46.58H33.581V44.414a4.338,4.338,0,0,1-4.333-4.333h2.167a2.169,2.169,0,0,0,2.167,2.167V37.914a4.333,4.333,0,0,1,0-8.666V27.081h2.167v2.167a4.338,4.338,0,0,1,4.333,4.333H37.914a2.169,2.169,0,0,0-2.167-2.167Zm-2.167,0a2.167,2.167,0,1,0,0,4.333Zm2.167,6.5v4.333a2.167,2.167,0,1,0,0-4.333ZM38.907,4.633a30.342,30.342,0,0,1,25.639,24.8l2.134-.373A32.5,32.5,0,0,0,16.169,7.944a1.083,1.083,0,0,0-.3,1.472L19.488,15.1a1.083,1.083,0,0,0,1.54.3A23.606,23.606,0,0,1,56.357,43.964l-1.049-.794a1.083,1.083,0,0,0-1.737.859L53.523,54.86A1.083,1.083,0,0,0,54.9,55.906l10.412-2.986a1.083,1.083,0,0,0,.355-1.9l-2.064-1.563a32.707,32.707,0,0,0,3.48-17.027l-2.162.147a30.544,30.544,0,0,1-.232,6.335,30.216,30.216,0,0,1-3.424,10.332,1.083,1.083,0,0,0,.3,1.384l1.071.811L55.7,53.425l.032-7.221.394.3a1.083,1.083,0,0,0,1.624-.382A25.768,25.768,0,0,0,20.719,13l-2.45-3.852A30.229,30.229,0,0,1,38.907,4.633Z" fill="#ffce1f"/>
      </g>
    </g>
  </g>
</svg>
