<svg xmlns="http://www.w3.org/2000/svg" xmlns:xlink="http://www.w3.org/1999/xlink" width="105" height="105" viewBox="0 0 105 105">
  <defs>
    <clipPath id="clip-path">
      <rect id="Rectángulo_373738" data-name="Rectángulo 373738" width="65" height="65" transform="translate(768 2379)" fill="#ffce1f"/>
    </clipPath>
    <clipPath id="clip-path-2">
      <path id="path1713" d="M0-65H65V0H0Z" fill="#ffce1f"/>
    </clipPath>
  </defs>
  <g id="Grupo_1064657" data-name="Grupo 1064657" transform="translate(-749 -2359)">
    <circle id="Elipse_8297" data-name="Elipse 8297" cx="52.5" cy="52.5" r="52.5" transform="translate(749 2359)" fill="#ff5a20"/>
    <g id="Enmascarar_grupo_1059030" data-name="Enmascarar grupo 1059030" clip-path="url(#clip-path)">
      <g id="g1707" transform="translate(768 2444)">
        <g id="g1709">
          <g id="g1711" clip-path="url(#clip-path-2)">
            <g id="g1717" transform="translate(52.55 -20.555)">
              <path id="path1719" d="M0,0-2.057,8.027a.758.758,0,0,0,.234.757L.648,10.957a.758.758,0,0,0,1,0L4.121,8.785a.758.758,0,0,0,.234-.757L4.05,6.84" fill="none" stroke="#ffce1f" stroke-linecap="round" stroke-linejoin="round" stroke-miterlimit="10" stroke-width="1.904"/>
            </g>
            <g id="g1721" transform="translate(55.456 -18.184)">
              <path id="path1723" d="M0,0-.608-2.371" fill="none" stroke="#ffce1f" stroke-linecap="round" stroke-linejoin="round" stroke-miterlimit="10" stroke-width="1.904"/>
            </g>
            <g id="g1725" transform="translate(56.612 -21.413)">
              <path id="path1727" d="M0,0H.249A7.187,7.187,0,0,1,7.436,7.187V15.42" fill="none" stroke="#ffce1f" stroke-linecap="round" stroke-linejoin="round" stroke-miterlimit="10" stroke-width="1.904"/>
            </g>
            <g id="g1729" transform="translate(45.877 -19.697)">
              <path id="path1731" d="M0,0A7.159,7.159,0,0,1,4.66-1.716h.509" fill="none" stroke="#ffce1f" stroke-linecap="round" stroke-linejoin="round" stroke-miterlimit="10" stroke-width="1.904"/>
            </g>
            <g id="g1733" transform="translate(53.699 -20.779)">
              <path id="path1735" d="M0,0H0A5.859,5.859,0,0,1-5.859-5.859V-7.974A5.859,5.859,0,0,1,0-13.833,5.859,5.859,0,0,1,5.859-7.974v2.115A5.859,5.859,0,0,1,0,0Z" fill="none" stroke="#ffce1f" stroke-linecap="round" stroke-linejoin="round" stroke-miterlimit="10" stroke-width="1.904"/>
            </g>
            <g id="g1737" transform="translate(12.453 -20.543)">
              <path id="path1739" d="M0,0,2.054,8.015a.758.758,0,0,1-.234.757L-.652,10.945a.758.758,0,0,1-1,0L-4.124,8.772a.758.758,0,0,1-.234-.757l2.1-8.2" fill="none" stroke="#ffce1f" stroke-linecap="round" stroke-linejoin="round" stroke-miterlimit="10" stroke-width="1.904"/>
            </g>
            <g id="g1741" transform="translate(14.145 -21.413)">
              <path id="path1743" d="M0,0H.318A7.159,7.159,0,0,1,4.943,1.686" fill="none" stroke="#ffce1f" stroke-linecap="round" stroke-linejoin="round" stroke-miterlimit="10" stroke-width="1.904"/>
            </g>
            <g id="g1745" transform="translate(0.952 -5.993)">
              <path id="path1747" d="M0,0V-8.233A7.187,7.187,0,0,1,7.187-15.42h.377" fill="none" stroke="#ffce1f" stroke-linecap="round" stroke-linejoin="round" stroke-miterlimit="10" stroke-width="1.904"/>
            </g>
            <g id="g1749" transform="translate(11.301 -20.779)">
              <path id="path1751" d="M0,0H0A5.859,5.859,0,0,1-5.859-5.859V-7.974A5.859,5.859,0,0,1,0-13.833H0A5.859,5.859,0,0,1,5.859-7.974v2.115A5.859,5.859,0,0,1,0,0Z" fill="none" stroke="#ffce1f" stroke-linecap="round" stroke-linejoin="round" stroke-miterlimit="10" stroke-width="1.904"/>
            </g>
            <g id="g1753" transform="translate(34.013 -23.634)">
              <path id="path1755" d="M0,0,2.445,6.678" fill="none" stroke="#ffce1f" stroke-linecap="round" stroke-linejoin="round" stroke-miterlimit="10" stroke-width="1.904"/>
            </g>
            <g id="g1757" transform="translate(28.542 -16.955)">
              <path id="path1759" d="M0,0,2.494-6.813" fill="none" stroke="#ffce1f" stroke-linecap="round" stroke-linejoin="round" stroke-miterlimit="10" stroke-width="1.904"/>
            </g>
            <g id="g1761" transform="translate(40.255 -24.186)">
              <path id="path1763" d="M0,0-7.755,14.77-15.51,0" fill="none" stroke="#ffce1f" stroke-linecap="round" stroke-linejoin="round" stroke-miterlimit="10" stroke-width="1.904"/>
            </g>
            <g id="g1765" transform="translate(28.771 -24.743)">
              <path id="path1767" d="M0,0H-.714a10.1,10.1,0,0,0-10.1,10.031" fill="none" stroke="#ffce1f" stroke-linecap="round" stroke-linejoin="round" stroke-miterlimit="10" stroke-width="1.904"/>
            </g>
            <g id="g1769" transform="translate(47.042 -1.994)">
              <path id="path1771" d="M0,0V-12.65a10.1,10.1,0,0,0-10.1-10.1h-.485" fill="none" stroke="#ffce1f" stroke-linecap="round" stroke-linejoin="round" stroke-miterlimit="10" stroke-width="1.904"/>
            </g>
            <g id="g1773" transform="translate(17.958 -10.105)">
              <path id="path1775" d="M0,0V8.111" fill="none" stroke="#ffce1f" stroke-linecap="round" stroke-linejoin="round" stroke-miterlimit="10" stroke-width="1.904"/>
            </g>
            <g id="g1777" transform="translate(24.111 -31.913)">
              <path id="path1779" d="M0,0A3.1,3.1,0,0,1-1.845.6,3.118,3.118,0,0,1-4.963-2.514,3.118,3.118,0,0,1-3.31-5.267" fill="none" stroke="#ffce1f" stroke-linecap="round" stroke-linejoin="round" stroke-miterlimit="10" stroke-width="1.904"/>
            </g>
            <g id="g1781" transform="translate(43.947 -37.301)">
              <path id="path1783" d="M0,0A3.119,3.119,0,0,1,1.9,2.873,3.118,3.118,0,0,1-1.214,5.991,3.1,3.1,0,0,1-3.042,5.4" fill="none" stroke="#ffce1f" stroke-linecap="round" stroke-linejoin="round" stroke-miterlimit="10" stroke-width="1.904"/>
            </g>
            <g id="g1785" transform="translate(24.38 -36.415)">
              <path id="path1787" d="M0,0A8.286,8.286,0,0,0-.113,1.358V4.33a8.233,8.233,0,0,0,16.466,0V1.358A8.286,8.286,0,0,0,16.239,0" fill="none" stroke="#ffce1f" stroke-linecap="round" stroke-linejoin="round" stroke-miterlimit="10" stroke-width="1.904"/>
            </g>
            <g id="g1789" transform="translate(34.597 -48.139)">
              <path id="path1791" d="M0,0A2.9,2.9,0,0,1,.581-.059h2.17A7.136,7.136,0,0,1,9.888,7.078V9.694a1.172,1.172,0,0,1-1.057,1.168,23.088,23.088,0,0,1-7.756-.427A4.529,4.529,0,0,1-.875,9.329" fill="none" stroke="#ffce1f" stroke-linecap="round" stroke-linejoin="round" stroke-miterlimit="10" stroke-width="1.904"/>
            </g>
            <g id="g1793" transform="translate(20.515 -39.787)">
              <path id="path1795" d="M0,0V1.662A1.172,1.172,0,0,0,1.047,2.829a27.482,27.482,0,0,0,9.342-.483,5.443,5.443,0,0,0,3.982-5.264v-3.7a3.4,3.4,0,0,0-3.4-3.4H9.165" fill="none" stroke="#ffce1f" stroke-linecap="round" stroke-linejoin="round" stroke-miterlimit="10" stroke-width="1.904"/>
            </g>
            <g id="g1797" transform="translate(32.5 -9.416)">
              <path id="path1799" d="M0,0V7.415" fill="none" stroke="#ffce1f" stroke-linecap="round" stroke-linejoin="round" stroke-miterlimit="10" stroke-width="1.904"/>
            </g>
            <g id="g1801" transform="translate(36.059 -7.523)">
              <path id="path1803" d="M0,0H.022" fill="none" stroke="#ffce1f" stroke-linecap="round" stroke-linejoin="round" stroke-miterlimit="10" stroke-width="1.904"/>
            </g>
            <g id="g1805" transform="translate(27.48 -45.021)">
              <path id="path1807" d="M0,0A11.554,11.554,0,0,0,1.907-6.376,11.609,11.609,0,0,0-9.7-17.985,11.61,11.61,0,0,0-21.312-6.376,11.61,11.61,0,0,0-9.7,5.234,11.555,11.555,0,0,0-3.243,3.272" fill="none" stroke="#ffce1f" stroke-linecap="round" stroke-linejoin="round" stroke-miterlimit="10" stroke-width="1.904"/>
            </g>
            <g id="g1809" transform="translate(14.673 -45.716)">
              <path id="path1811" d="M0,0-4.166-4.166a.6.6,0,0,1,0-.845l1.721-1.721a.6.6,0,0,1,.845,0L.845-4.286,7.809-11.25a.6.6,0,0,1,.845,0L10.375-9.53a.6.6,0,0,1,0,.845L1.689,0A1.2,1.2,0,0,1,0,0Z" fill="none" stroke="#ffce1f" stroke-linecap="round" stroke-linejoin="round" stroke-miterlimit="10" stroke-width="1.904"/>
            </g>
          </g>
        </g>
      </g>
    </g>
  </g>
</svg>
