<svg xmlns="http://www.w3.org/2000/svg" xmlns:xlink="http://www.w3.org/1999/xlink" width="105" height="105" viewBox="0 0 105 105">
  <defs>
    <clipPath id="clip-path">
      <rect id="Rectángulo_373736" data-name="Rectángulo 373736" width="65" height="65" transform="translate(255 2317)" fill="#ffce1f"/>
    </clipPath>
  </defs>
  <g id="Grupo_1064655" data-name="Grupo 1064655" transform="translate(-245 -2359)">
    <circle id="Elipse_8295" data-name="Elipse 8295" cx="52.5" cy="52.5" r="52.5" transform="translate(245 2359)" fill="#ff5a20"/>
    <g id="Enmascarar_grupo_1059028" data-name="Enmascarar grupo 1059028" transform="translate(10 62)" clip-path="url(#clip-path)">
      <g id="reconocimiento" transform="translate(255 2319.362)">
        <path id="Trazado_797137" data-name="Trazado 797137" d="M73.014,17.921a.952.952,0,0,0-.611,1.2A24.186,24.186,0,0,1,72.4,34a.952.952,0,1,0,1.811.589,26.091,26.091,0,0,0,0-16.062.952.952,0,0,0-1.2-.611Z" transform="translate(-17.025 -6.567)" fill="#ffce1f"/>
        <path id="Trazado_797138" data-name="Trazado 797138" d="M11.025,17.921a.952.952,0,0,0-1.2.611,26.091,26.091,0,0,0,0,16.062A.952.952,0,1,0,11.636,34a24.186,24.186,0,0,1,0-14.884.952.952,0,0,0-.611-1.2Z" transform="translate(-2.014 -6.567)" fill="#ffce1f"/>
        <path id="Trazado_797139" data-name="Trazado 797139" d="M81.694,14.008a.952.952,0,1,0-1.781.675,30.72,30.72,0,0,1,0,21.651.952.952,0,1,0,1.781.674,32.624,32.624,0,0,0,0-23Z" transform="translate(-18.788 -5.513)" fill="#ffce1f"/>
        <path id="Trazado_797140" data-name="Trazado 797140" d="M3.322,13.455a.952.952,0,0,0-1.228.553,32.623,32.623,0,0,0,0,23,.952.952,0,1,0,1.781-.675,30.72,30.72,0,0,1,0-21.651.952.952,0,0,0-.553-1.228Z" transform="translate(0 -5.513)" fill="#ffce1f"/>
        <path id="Trazado_797141" data-name="Trazado 797141" d="M56.343,23.083a20,20,0,1,0-33.537,14.7L19.869,53.867A1.52,1.52,0,0,0,22,55.517L26.991,53.2v8.577a1.588,1.588,0,0,0,2.428,1.346l6.929-4.328,6.929,4.328A1.588,1.588,0,0,0,45.7,61.777V53.2l4.987,2.316a1.52,1.52,0,0,0,2.135-1.65l-.87-4.765a.952.952,0,1,0-1.873.342l.736,4.032L45.7,51.1V40.749a20.049,20.049,0,0,0,2.5-1.579l1.073,5.877a.952.952,0,1,0,1.873-.342l-1.265-6.925a19.944,19.944,0,0,0,6.454-14.7Zm-38.086,0A18.091,18.091,0,1,1,36.348,41.174,18.111,18.111,0,0,1,18.257,23.083Zm3.62,30.393,2.612-14.305a20.038,20.038,0,0,0,2.5,1.578V51.1ZM43.8,61.2l-6.608-4.128a1.59,1.59,0,0,0-1.685,0L28.9,61.2V41.637a19.984,19.984,0,0,0,14.9,0Z" transform="translate(-3.848 -3.088)" fill="#ffce1f"/>
        <path id="Trazado_797142" data-name="Trazado 797142" d="M25.907,31.851a.952.952,0,0,0,.413-1.281A12.871,12.871,0,0,1,24.9,24.646a13.012,13.012,0,1,1,3.811,9.2.952.952,0,0,0-1.346,1.346,14.879,14.879,0,1,0-2.737-3.756.952.952,0,0,0,1.282.413Z" transform="translate(-5.41 -4.651)" fill="#ffce1f"/>
        <path id="Trazado_797143" data-name="Trazado 797143" d="M36.824,21.564A1.981,1.981,0,0,0,35,22.74l-4.265,9.41A1.6,1.6,0,0,0,32.2,34.416h15a1.6,1.6,0,0,0,1.372-2.435l-2.864-4.733a2.97,2.97,0,0,0-5.045-.062l-2.016-4.447a1.981,1.981,0,0,0-1.824-1.175ZM32.661,32.512l4.073-8.986a.1.1,0,0,1,.178,0l4.073,8.986Zm9.591-4.278a1.067,1.067,0,0,1,1.826,0l2.589,4.278h-3.59l-1.462-3.225Z" transform="translate(-7.198 -7.435)" fill="#ffce1f"/>
        <path id="Trazado_797144" data-name="Trazado 797144" d="M49.144,19.734A3.048,3.048,0,1,0,46.1,22.782,3.052,3.052,0,0,0,49.144,19.734Zm-4.192,0A1.144,1.144,0,1,1,46.1,20.878,1.145,1.145,0,0,1,44.952,19.734Z" transform="translate(-10.129 -6.287)" fill="#ffce1f"/>
      </g>
    </g>
  </g>
</svg>
