<svg xmlns="http://www.w3.org/2000/svg" xmlns:xlink="http://www.w3.org/1999/xlink" width="105" height="105" viewBox="0 0 105 105">
  <defs>
    <clipPath id="clip-path">
      <rect id="Rectángulo_373737" data-name="Rectángulo 373737" width="65" height="65" transform="translate(517 2379)" fill="#ffce1f"/>
    </clipPath>
  </defs>
  <g id="Grupo_1064656" data-name="Grupo 1064656" transform="translate(-497 -2359)">
    <circle id="Elipse_8296" data-name="Elipse 8296" cx="52.5" cy="52.5" r="52.5" transform="translate(497 2359)" fill="#ff5a20"/>
    <g id="Enmascarar_grupo_1059029" data-name="Enmascarar grupo 1059029" clip-path="url(#clip-path)">
      <path id="calidad-premium" d="M36.367,9.112a14.942,14.942,0,1,0,10.566,18.3,14.96,14.96,0,0,0-10.566-18.3Zm8.6,17.775a12.916,12.916,0,1,1-9.129-15.813A12.825,12.825,0,0,1,44.97,26.887Zm8.488-8.372a1.672,1.672,0,0,1-.293-1.092l.218-3.5a3.752,3.752,0,0,0-2.105-3.646L48.135,8.709a1.673,1.673,0,0,1-.8-.8L45.773,4.766A3.749,3.749,0,0,0,42.126,2.66l-3.5.218a1.669,1.669,0,0,1-1.093-.293L34.6.645a3.751,3.751,0,0,0-4.21,0L27.469,2.586a1.668,1.668,0,0,1-1.093.293l-3.5-.218a3.754,3.754,0,0,0-3.646,2.1L17.663,7.91a1.673,1.673,0,0,1-.8.8l-3.144,1.563a3.752,3.752,0,0,0-2.105,3.646l.218,3.5a1.672,1.672,0,0,1-.293,1.093L9.6,21.44a3.752,3.752,0,0,0,0,4.21l1.941,2.925a1.672,1.672,0,0,1,.293,1.093l-.218,3.5a3.752,3.752,0,0,0,2.1,3.646l3.144,1.563a1.673,1.673,0,0,1,.8.8l1.563,3.144a3.88,3.88,0,0,0,.833,1.12L13.3,57.938a1.016,1.016,0,0,0,1.393,1.328l8.531-4.486L25.273,64.2a1.016,1.016,0,0,0,.88.794,1.031,1.031,0,0,0,.113.006,1.015,1.015,0,0,0,.92-.586l5.314-11.4,5.314,11.4a1.016,1.016,0,0,0,.92.586,1,1,0,0,0,.113-.006,1.016,1.016,0,0,0,.88-.794l2.047-9.419L50.3,59.266A1.016,1.016,0,0,0,51.7,57.938L44.939,43.445a3.865,3.865,0,0,0,.833-1.119l1.563-3.144a1.673,1.673,0,0,1,.8-.8l3.144-1.563a3.752,3.752,0,0,0,2.105-3.646l-.218-3.5a1.672,1.672,0,0,1,.293-1.093L55.4,25.651a3.752,3.752,0,0,0,0-4.21ZM26.618,60.824l-1.691-7.78a1.016,1.016,0,0,0-1.465-.683l-7.047,3.706,5.457-11.7a3.916,3.916,0,0,0,1,.067l3.5-.218a1.673,1.673,0,0,1,1.093.293l2.925,1.941a3.8,3.8,0,0,0,2.105.646,3.706,3.706,0,0,0,.54-.04Zm21.966-4.758L41.537,52.36a1.016,1.016,0,0,0-1.465.683l-1.691,7.78L33.62,50.614l2.373-5.089L37.53,44.5a1.665,1.665,0,0,1,1.092-.293l3.5.218a3.923,3.923,0,0,0,1-.068Zm5.124-31.538-1.941,2.925a3.677,3.677,0,0,0-.628,2.342l.218,3.5a1.729,1.729,0,0,1-.982,1.7l-3.144,1.563a3.68,3.68,0,0,0-1.714,1.714l-1.563,3.144a1.727,1.727,0,0,1-1.7.982l-3.5-.218a3.671,3.671,0,0,0-2.342.628l-2.925,1.941a1.729,1.729,0,0,1-1.964,0l-2.925-1.941a3.66,3.66,0,0,0-2.079-.636q-.13,0-.263.008l-3.5.218a1.727,1.727,0,0,1-1.7-.982l-1.563-3.144a3.68,3.68,0,0,0-1.714-1.714L14.624,35a1.728,1.728,0,0,1-.982-1.7l.218-3.5a3.679,3.679,0,0,0-.627-2.342l-1.941-2.926a1.728,1.728,0,0,1,0-1.964l1.941-2.925A3.679,3.679,0,0,0,13.86,17.3l-.218-3.5a1.729,1.729,0,0,1,.982-1.7l3.144-1.563a3.68,3.68,0,0,0,1.714-1.714l1.563-3.144a1.73,1.73,0,0,1,1.7-.982l3.5.218a3.678,3.678,0,0,0,2.342-.627l2.926-1.941a1.728,1.728,0,0,1,1.964,0l2.925,1.941a3.672,3.672,0,0,0,2.342.628l3.5-.218a1.727,1.727,0,0,1,1.7.982l1.563,3.144a3.68,3.68,0,0,0,1.714,1.714l3.144,1.563a1.728,1.728,0,0,1,.982,1.7l-.218,3.5a3.677,3.677,0,0,0,.628,2.342l1.941,2.926a1.729,1.729,0,0,1,0,1.964ZM33.418,13.56a1.015,1.015,0,0,0-1.838,0l-2.7,5.744-6.3.792a1.016,1.016,0,0,0-.568,1.748l4.629,4.342L25.452,32.42A1.016,1.016,0,0,0,26.939,33.5l5.56-3.061,5.56,3.061a1.016,1.016,0,0,0,1.487-1.081l-1.193-6.234,4.629-4.342a1.016,1.016,0,0,0-.568-1.748l-6.3-.792Zm3.138,11.527a1.016,1.016,0,0,0-.3.932l.892,4.66L32.989,28.39a1.015,1.015,0,0,0-.98,0l-4.156,2.288.892-4.66a1.016,1.016,0,0,0-.3-.932l-3.46-3.246,4.707-.592a1.015,1.015,0,0,0,.792-.576L32.5,16.38l2.017,4.294a1.015,1.015,0,0,0,.792.576l4.707.592Z" transform="translate(517.001 2379.002)" fill="#ffce1f"/>
    </g>
  </g>
</svg>
