<svg id="Grupo_1064155" data-name="Grupo 1064155" xmlns="http://www.w3.org/2000/svg" xmlns:xlink="http://www.w3.org/1999/xlink" width="280.556" height="300" viewBox="0 0 280.556 300">
  <defs>
    <clipPath id="clip-path">
      <rect id="Rectángulo_373591" data-name="Rectángulo 373591" width="280.556" height="300" fill="none"/>
    </clipPath>
  </defs>
  <g id="Grupo_1064154" data-name="Grupo 1064154" clip-path="url(#clip-path)">
    <path id="Trazado_796918" data-name="Trazado 796918" d="M205.24,1.434A81.169,81.169,0,1,0,286.409,82.6,81.261,81.261,0,0,0,205.24,1.434m0,151.683A70.514,70.514,0,1,1,275.754,82.6a70.594,70.594,0,0,1-70.514,70.513" transform="translate(-25.541 -0.295)" fill="#ff5a20"/>
    <path id="Trazado_796919" data-name="Trazado 796919" d="M217.819,119.039c-19.953,0-27.68-13.955-27.8-27.333-.114-13.494,8.3-28.026,27.8-28.026a27.737,27.737,0,0,1,19.491,7.612l10.149-9.8a41.649,41.649,0,0,0-29.64-12.341c-29.179,0-42.9,21.451-42.789,42.558.116,20.99,12.8,41.634,42.789,41.634,11.648,0,22.375-3.805,30.678-11.995l-10.38-10.495a29.724,29.724,0,0,1-20.3,8.188" transform="translate(-36.032 -10.118)" fill="#ff5a20"/>
    <path id="Trazado_796920" data-name="Trazado 796920" d="M144.9,344.431a24.784,24.784,0,0,1,5.246-.94c2.006,0,6.48,2.315,6.943,3.24a5.968,5.968,0,0,1,0,4.012c-.463.926-14.619,8.178-16.259,8.949s-12.9-2.16-13.52-3.086.226-4.541.926-5.4c.676-.831,16.664-6.776,16.664-6.776" transform="translate(-26.164 -70.712)" fill="#6936c1"/>
    <path id="Trazado_796921" data-name="Trazado 796921" d="M134.989,339.023c-1.774.154-2.006,1.2-2.584,1.543s-3.241,10.3-3.241,11.341,8.8,2.777,10.762,2.777,13.424-6.365,13.424-7.059-5.207-3.819-6.943-4.05a11.428,11.428,0,0,0-3.637.231v-2.16Z" transform="translate(-26.59 -69.792)" fill="#333243"/>
    <path id="Trazado_796922" data-name="Trazado 796922" d="M139.6,324.332s-1.866,7.347-3.1,11.667c0,0,1.389,3.549,2.932,3.549a26.64,26.64,0,0,0,4.849-.926s3.02-9.258,3.637-11.727Z" transform="translate(-28.1 -66.767)" fill="#ff96aa"/>
    <path id="Trazado_796923" data-name="Trazado 796923" d="M146.288,345.046a20.688,20.688,0,0,0,0,2.546" transform="translate(-30.107 -71.032)" fill="none" stroke="#0d0000" stroke-miterlimit="10" stroke-width="0.75"/>
    <path id="Trazado_796924" data-name="Trazado 796924" d="M130.432,349.234a5.9,5.9,0,0,1,4.51-1.477c2.7.309,4.938,4.629,6.018,5.632s3.475-.768,4.554.928" transform="translate(-26.851 -71.582)" fill="none" stroke="#0d0000" stroke-miterlimit="10" stroke-width="0.75"/>
    <path id="Trazado_796925" data-name="Trazado 796925" d="M40.966,358.145a24.786,24.786,0,0,1,5.246-.939c2.006,0,6.48,2.315,6.943,3.24a5.968,5.968,0,0,1,0,4.012c-.463.926-14.619,8.178-16.259,8.949s-12.9-2.16-13.52-3.086.226-4.541.926-5.4c.676-.831,16.664-6.776,16.664-6.776" transform="translate(-4.768 -73.535)" fill="#6936c1"/>
    <path id="Trazado_796926" data-name="Trazado 796926" d="M31.053,352.737c-1.774.154-2.006,1.2-2.585,1.543s-3.24,10.3-3.24,11.341,8.8,2.777,10.762,2.777,13.424-6.365,13.424-7.059-5.207-3.819-6.943-4.05a11.426,11.426,0,0,0-3.637.231v-2.16Z" transform="translate(-5.193 -72.615)" fill="#333243"/>
    <path id="Trazado_796927" data-name="Trazado 796927" d="M35.664,338.046s-1.867,7.346-3.1,11.667c0,0,1.389,3.549,2.932,3.549a26.64,26.64,0,0,0,4.849-.926s3.02-9.258,3.637-11.727Z" transform="translate(-6.703 -69.591)" fill="#ff96aa"/>
    <path id="Trazado_796928" data-name="Trazado 796928" d="M75.9,148.836S59,162.5,56.707,165.079s.552,6.423.552,6.423l29.165-8.547Z" transform="translate(-11.49 -30.64)" fill="#ff96aa"/>
    <rect id="Rectángulo_373569" data-name="Rectángulo 373569" width="156.333" height="20.433" transform="translate(28.996 145.795) rotate(-16.332)" fill="#6936c1"/>
    <path id="Trazado_796929" data-name="Trazado 796929" d="M187.995,146.772l1.437,4.9L28.405,198.822a4.512,4.512,0,0,1-5.6-3.061l-.168-.573Z" transform="translate(-4.66 -30.215)" fill="#232997"/>
    <path id="Trazado_796930" data-name="Trazado 796930" d="M231.179,147.862l-5.746-19.608,18.04,1.973a3.519,3.519,0,0,1,1.828,6.237Z" transform="translate(-46.408 -26.403)" fill="#e6f1f8"/>
    <path id="Trazado_796931" data-name="Trazado 796931" d="M248.73,136.84l-3.767,3.04-2.873-9.8,4.813.526a3.52,3.52,0,0,1,1.827,6.238" transform="translate(-49.837 -26.778)" fill="#302162"/>
    <path id="Trazado_796932" data-name="Trazado 796932" d="M18.764,192.742l3.208,10.949a4.512,4.512,0,0,0,5.6,3.061l6.317-1.851-5.746-19.609-6.317,1.851a4.512,4.512,0,0,0-3.061,5.6" transform="translate(-3.825 -38.144)" fill="#ffc705"/>
    <rect id="Rectángulo_373570" data-name="Rectángulo 373570" width="4.871" height="20.433" transform="translate(24.317 147.148) rotate(-16.331)" fill="#e6f1f8"/>
    <path id="Trazado_796933" data-name="Trazado 796933" d="M64.439,202.74S37.612,279.791,31.31,312.83l14.973,3.524s23.14-68.562,36.7-81.739c0,0,45.406,13.177,51.136,16.615l-20.062,49.04,14.2,5.442s26.012-56.2,25.964-61.357c-.04-4.363-43.516-27.544-43.516-27.544a110.675,110.675,0,0,1,1.12-14.07Z" transform="translate(-6.446 -41.736)" fill="#6936c1"/>
    <line id="Línea_278" data-name="Línea 278" x1="2.287" y2="6.98" transform="translate(59.628 161.182)" fill="none" stroke="#0d0000" stroke-miterlimit="10" stroke-width="0.75"/>
    <line id="Línea_279" data-name="Línea 279" x2="1.149" y2="6.997" transform="translate(91.334 162.947)" fill="none" stroke="#0d0000" stroke-miterlimit="10" stroke-width="0.75"/>
    <path id="Trazado_796934" data-name="Trazado 796934" d="M93.262,206.083s-3.994,18.951-4.222,22.344,5.824,6.876,5.824,6.876" transform="translate(-18.329 -42.425)" fill="none" stroke="#0d0000" stroke-miterlimit="10" stroke-width="0.75"/>
    <path id="Trazado_796935" data-name="Trazado 796935" d="M71.4,207.4s13.064,4.412,21.836,5.124c10.244.831,26.392-5.124,26.392-5.124" transform="translate(-14.698 -42.695)" fill="none" stroke="#0d0000" stroke-miterlimit="10" stroke-width="0.75"/>
    <path id="Trazado_796936" data-name="Trazado 796936" d="M73.027,187.311s20.07-53.682,24.032-59.03c2.033-2.745,35,6.876,37.289,8.021s-11.841,24.483-13.941,51.009c0,0-16.233,5.138-27.31,4.756a55.394,55.394,0,0,1-20.07-4.756" transform="translate(-15.033 -26.307)" fill="#fef2fe"/>
    <path id="Trazado_796937" data-name="Trazado 796937" d="M96.359,128.4c-4.378-.769-26.732,21.712-26.732,21.712s10.4,10.038,14.7,10.754c0,0,14.75-31.989,12.03-32.466" transform="translate(-14.334 -26.429)" fill="#fef2fe"/>
    <path id="Trazado_796938" data-name="Trazado 796938" d="M147.852,138.385c3.1,2.7,20.052,24.444,20.052,24.444L157.21,173.715s-16.633-15.2-18.334-21.075,5.609-17.185,8.976-14.256" transform="translate(-28.537 -28.39)" fill="#fef2fe"/>
    <path id="Trazado_796939" data-name="Trazado 796939" d="M172.943,166.649l34.772-10.189,2.468,3.791s-35.353,18.841-39.246,20.633c-2.674,1.229-7.837-4.216-7.837-4.216Z" transform="translate(-33.576 -32.209)" fill="#ff96aa"/>
    <path id="Trazado_796940" data-name="Trazado 796940" d="M221.748,158.88a28.909,28.909,0,0,0,3.39-2.721c.43-.62,1.276-6.167.638-6.354s-2.261,3.871-2.261,3.871a19.191,19.191,0,0,0-4.234,1.413Z" transform="translate(-45.141 -30.838)" fill="#ff96aa"/>
    <path id="Trazado_796941" data-name="Trazado 796941" d="M220.885,155.647s.477-4.01,1.194-4.153.9,4.153.9,4.153-1.182.907-2.089,0" transform="translate(-45.472 -31.186)" fill="#ff96aa"/>
    <line id="Línea_280" data-name="Línea 280" x1="3.32" y1="2.248" transform="translate(100.933 172.825)" fill="none" stroke="#0d0000" stroke-miterlimit="10" stroke-width="0.75"/>
    <line id="Línea_281" data-name="Línea 281" y1="3.856" x2="1.853" transform="translate(127.672 205.636)" fill="none" stroke="#0d0000" stroke-miterlimit="10" stroke-width="0.75"/>
    <line id="Línea_282" data-name="Línea 282" x2="14.198" y2="6.367" transform="translate(110.553 251.154)" fill="none" stroke="#0d0000" stroke-miterlimit="10" stroke-width="0.75"/>
    <line id="Línea_283" data-name="Línea 283" x2="15.61" y2="5.229" transform="translate(26.807 262.107)" fill="none" stroke="#0d0000" stroke-miterlimit="10" stroke-width="0.75"/>
    <path id="Trazado_796942" data-name="Trazado 796942" d="M141.259,161.248l-3.416-3.5s-1.681,3.325,2.105,7.235Z" transform="translate(-28.3 -32.474)" fill="#2c1817"/>
    <path id="Trazado_796943" data-name="Trazado 796943" d="M86.1,162.9s4.631-14.054,8.786-21.932" transform="translate(-17.724 -29.021)" fill="none" stroke="#0d0000" stroke-miterlimit="10" stroke-width="0.75"/>
    <path id="Trazado_796944" data-name="Trazado 796944" d="M112.322,144.462s-10.695,23.267-15.946,41.544" transform="translate(-19.84 -29.739)" fill="none" stroke="#0d0000" stroke-miterlimit="10" stroke-width="0.75"/>
    <path id="Trazado_796945" data-name="Trazado 796945" d="M74.32,199.3s10.927,4.051,18.137,4.433,28.477-4.433,28.477-4.433" transform="translate(-15.3 -41.028)" fill="none" stroke="#0d0000" stroke-miterlimit="10" stroke-width="0.75"/>
    <line id="Línea_284" data-name="Línea 284" x1="11.298" y2="11.15" transform="translate(125.568 131.248)" fill="none" stroke="#0d0000" stroke-miterlimit="10" stroke-width="0.75"/>
    <line id="Línea_285" data-name="Línea 285" x2="12.11" y2="7.869" transform="translate(57.994 121.021)" fill="none" stroke="#0d0000" stroke-miterlimit="10" stroke-width="0.75"/>
    <path id="Trazado_796946" data-name="Trazado 796946" d="M42.352,358.76a20.874,20.874,0,0,0,0,2.546" transform="translate(-8.711 -73.855)" fill="none" stroke="#0d0000" stroke-miterlimit="10" stroke-width="0.75"/>
    <path id="Trazado_796947" data-name="Trazado 796947" d="M26.5,362.948a5.9,5.9,0,0,1,4.51-1.477c2.7.309,4.938,4.629,6.018,5.632s3.475-.768,4.554.928" transform="translate(-5.455 -74.406)" fill="none" stroke="#0d0000" stroke-miterlimit="10" stroke-width="0.75"/>
    <path id="Trazado_796948" data-name="Trazado 796948" d="M148.187,101.1s4.926,3.213,4.7,4.432-9.418,1.108-9.418,1.108.479-6.2,4.713-5.54" transform="translate(-29.536 -20.802)" fill="#302162"/>
    <path id="Trazado_796949" data-name="Trazado 796949" d="M119.893,120.816s1.329-19.748,4.334-24.07c2.475-3.559,16.013-4.488,18.111,1.5s1.285,18.668.42,19.14c-2.588,1.414-10.122.749-10.122.749a12.406,12.406,0,0,0,0,6.316s-11.468.191-12.743-3.632" transform="translate(-24.681 -19.333)" fill="#ff96aa"/>
    <path id="Trazado_796950" data-name="Trazado 796950" d="M118.633,108.155c-1.18-5.16,2.617-17.507,4.39-20.609s8.7-6.649,11.439-7.535.979,2.66.979,2.66,12.845-6.427,15.726-5.984-1.224,6.87-1.224,6.87S154.2,82.005,153.9,84s-6.943,10.637-6.943,10.637,4.07,2.88,2.146,3.546-12.711,0-12.711,0-1.128,4.654-1.93,5.1-2.464-4.986-5.158-3.4c-1.542.907-1.627,5.437,2.8,5.97,0,0-1.085,6.421-3.324,7.248-2.823,1.042-9.21-.821-10.151-4.941" transform="translate(-24.376 -15.782)" fill="#302162"/>
    <path id="Trazado_796951" data-name="Trazado 796951" d="M108.874,126.87a39.47,39.47,0,0,1,4.477-4.254c1.259-.763,16.918,4.392,18.637,5.348S135.043,134,135.043,134s-24.074-2.872-26.169-7.127" transform="translate(-22.413 -25.226)" fill="#fef2fe"/>
    <path id="Trazado_796952" data-name="Trazado 796952" d="M108.874,127.993s10.1-.012,24.6,5.719" transform="translate(-22.413 -26.349)" fill="none" stroke="#0d0000" stroke-miterlimit="10" stroke-width="0.75"/>
    <rect id="Rectángulo_373571" data-name="Rectángulo 373571" width="26.523" height="10.699" transform="translate(62.526 66.809)" fill="#6936c1"/>
    <rect id="Rectángulo_373572" data-name="Rectángulo 373572" width="47.694" height="2.757" transform="translate(62.527 57.809)" fill="#6936c1"/>
    <rect id="Rectángulo_373573" data-name="Rectángulo 373573" width="20.822" height="1.358" transform="translate(174.193 171.593)" fill="#232997"/>
    <rect id="Rectángulo_373574" data-name="Rectángulo 373574" width="20.822" height="1.358" transform="translate(174.193 174.664)" fill="#232997"/>
    <rect id="Rectángulo_373575" data-name="Rectángulo 373575" width="10.411" height="1.358" transform="translate(174.193 177.737)" fill="#232997"/>
    <rect id="Rectángulo_373576" data-name="Rectángulo 373576" width="20.822" height="1.358" transform="translate(174.193 183.69)" fill="#232997"/>
    <rect id="Rectángulo_373577" data-name="Rectángulo 373577" width="20.822" height="1.358" transform="translate(174.193 186.762)" fill="#232997"/>
    <rect id="Rectángulo_373578" data-name="Rectángulo 373578" width="10.411" height="1.358" transform="translate(174.193 189.834)" fill="#232997"/>
    <path id="Trazado_796953" data-name="Trazado 796953" d="M340.493,12.833V8.494l-2.633-.446a8.366,8.366,0,0,0-.5-1.212L338.9,4.658l-3.069-3.069L333.66,3.135a8.412,8.412,0,0,0-1.213-.5L332,0h-4.339l-.446,2.633a8.37,8.37,0,0,0-1.212.5l-2.178-1.546-3.069,3.069L322.3,6.835a8.366,8.366,0,0,0-.5,1.212l-2.633.446v4.339l2.633.446a8.412,8.412,0,0,0,.5,1.213l-1.546,2.177,3.069,3.069L326,18.191a8.37,8.37,0,0,0,1.212.5l.446,2.633H332l.446-2.633a8.412,8.412,0,0,0,1.213-.5l2.177,1.546,3.069-3.069-1.546-2.177a8.412,8.412,0,0,0,.5-1.213Zm-10.662,1.894a4.064,4.064,0,1,1,4.064-4.064,4.064,4.064,0,0,1-4.064,4.064" transform="translate(-65.705 0)" fill="#232997"/>
    <path id="Trazado_796954" data-name="Trazado 796954" d="M325.336,34.014V31.09l-1.774-.3a5.644,5.644,0,0,0-.339-.817l1.042-1.468L322.2,26.436l-1.468,1.042a5.636,5.636,0,0,0-.817-.339l-.3-1.774h-2.924l-.3,1.774a5.64,5.64,0,0,0-.817.339L314.1,26.436,312.033,28.5l1.042,1.468a5.637,5.637,0,0,0-.339.817l-1.774.3v2.924l1.774.3a5.637,5.637,0,0,0,.339.817L312.033,36.6l2.068,2.068,1.468-1.042a5.549,5.549,0,0,0,.817.338l.3,1.775h2.924l.3-1.775a5.545,5.545,0,0,0,.817-.338l1.468,1.042,2.068-2.068-1.042-1.468a5.644,5.644,0,0,0,.339-.817Zm-7.187,1.277a2.739,2.739,0,1,1,2.739-2.739,2.739,2.739,0,0,1-2.739,2.739" transform="translate(-64.015 -5.222)" fill="#6936c1"/>
    <rect id="Rectángulo_373579" data-name="Rectángulo 373579" width="64.256" height="69.374" transform="translate(216.3 63.819)" fill="#6936c1"/>
    <rect id="Rectángulo_373580" data-name="Rectángulo 373580" width="56.926" height="30.925" transform="translate(219.964 70.893)" fill="#ffce1f"/>
    <path id="Trazado_796955" data-name="Trazado 796955" d="M310.815,176.3l-3.88-6.72-3.879-6.72h15.519l-3.88,6.72Z" transform="translate(-62.387 -33.528)" fill="#6936c1"/>
    <rect id="Rectángulo_373581" data-name="Rectángulo 373581" width="36.222" height="1.585" transform="translate(219.965 107.304)" fill="#fff"/>
    <rect id="Rectángulo_373582" data-name="Rectángulo 373582" width="36.222" height="1.585" transform="translate(219.965 112.86)" fill="#fff"/>
    <rect id="Rectángulo_373583" data-name="Rectángulo 373583" width="36.222" height="1.585" transform="translate(219.965 118.416)" fill="#fff"/>
    <rect id="Rectángulo_373584" data-name="Rectángulo 373584" width="36.222" height="1.585" transform="translate(219.965 123.971)" fill="#fff"/>
    <rect id="Rectángulo_373585" data-name="Rectángulo 373585" width="13.076" height="8.487" transform="translate(263.814 107.303)" fill="#fff"/>
    <rect id="Rectángulo_373586" data-name="Rectángulo 373586" width="13.076" height="8.487" transform="translate(263.814 117.07)" fill="#fff"/>
    <rect id="Rectángulo_373587" data-name="Rectángulo 373587" width="3.467" height="3.467" transform="translate(105.393 19.062)" fill="#fff"/>
    <rect id="Rectángulo_373588" data-name="Rectángulo 373588" width="3.467" height="3.467" transform="translate(114.89 19.062)" fill="#fff"/>
    <rect id="Rectángulo_373589" data-name="Rectángulo 373589" width="3.467" height="3.467" transform="translate(124.388 19.062)" fill="#fff"/>
    <rect id="Rectángulo_373590" data-name="Rectángulo 373590" width="22.015" height="22.014" transform="translate(148.054 170.386)" fill="#ffce1f"/>
    <path id="Trazado_796956" data-name="Trazado 796956" d="M203.65,221.967H197.11v6.7a2.479,2.479,0,0,0-2.172-.163,1.923,1.923,0,1,0,1.294,3.53,2.3,2.3,0,0,0,1.629-2.066h0v-4.284h5.786v2.983a2.481,2.481,0,0,0-2.173-.163,1.923,1.923,0,1,0,1.3,3.53,2.3,2.3,0,0,0,1.629-2.066h0v-8Zm0,2.961h-5.786v-2.207h5.786Z" transform="translate(-39.794 -45.694)" fill="#232997"/>
    <path id="Trazado_796957" data-name="Trazado 796957" d="M23.876,248.148A11.938,11.938,0,1,1,11.937,236.21a11.938,11.938,0,0,1,11.938,11.938" transform="translate(0.267 -48.474)" fill="#6936c1"/>
    <path id="Trazado_796958" data-name="Trazado 796958" d="M17.6,249.993,14.135,252.4l-3.464,2.41v-9.639l3.464,2.41Z" transform="translate(-0.97 -50.834)" fill="#fff"/>
  </g>
</svg>
