<svg xmlns="http://www.w3.org/2000/svg" xmlns:xlink="http://www.w3.org/1999/xlink" width="133" height="133" viewBox="0 0 133 133">
  <defs>
    <clipPath id="clip-path">
      <rect id="Rectángulo_373768" data-name="Rectángulo 373768" width="133" height="133" transform="translate(498 -5590)" fill="#232997"/>
    </clipPath>
  </defs>
  <g id="Enmascarar_grupo_1059037" data-name="Enmascarar grupo 1059037" transform="translate(-498 5590)" clip-path="url(#clip-path)">
    <g id="palabra-clave" transform="translate(491.121 -5596.873)">
      <g id="Lineal_Color">
        <path id="Trazado_797208" data-name="Trazado 797208" d="M9.172,27.515H119.231v91.716H9.172Z" fill="#f2f3f3"/>
        <path id="Trazado_797209" data-name="Trazado 797209" d="M9.172,9.172H119.231V27.515H9.172Z" fill="#f15f60"/>
        <path id="Trazado_797210" data-name="Trazado 797210" d="M105.474,91.716a13.757,13.757,0,1,1-13.757,13.757A13.739,13.739,0,0,1,105.474,91.716Zm12.657,32.88a22.921,22.921,0,1,1,6.466-6.466l12.978,12.978-6.466,6.466Z" fill="#65cef6" fill-rule="evenodd"/>
      </g>
      <g id="Outline">
        <path id="Trazado_797211" data-name="Trazado 797211" d="M100.888,16.05a2.293,2.293,0,1,1-2.293,2.293A2.271,2.271,0,0,1,100.888,16.05Zm9.172,0a2.293,2.293,0,1,1-2.293,2.293A2.271,2.271,0,0,1,110.059,16.05ZM27.515,20.636H18.343a2.293,2.293,0,1,1,0-4.586h9.172a2.293,2.293,0,1,1,0,4.586Zm-16.05,4.586H116.938V11.465H11.465ZM9.172,43.565a2.293,2.293,0,1,1-2.293,2.293A2.271,2.271,0,0,1,9.172,43.565Zm48.151,9.172h9.172a4.586,4.586,0,1,0,0-9.172H57.323ZM30.175,57.323h8.392L34.348,47.234,30.129,57.323Zm27.148,9.172H71.08a4.586,4.586,0,1,0,0-9.172H57.323ZM71.08,71.08H55.03a2.271,2.271,0,0,1-2.293-2.293V41.272a2.271,2.271,0,0,1,2.293-2.293H66.494a9.243,9.243,0,0,1,6.466,2.66A9.083,9.083,0,0,1,74.107,53.2a9.682,9.682,0,0,1,3.439,2.155,9.121,9.121,0,0,1,2.706,6.512,8.939,8.939,0,0,1-2.706,6.466,9.094,9.094,0,0,1-6.466,2.706Zm34.394,0h-4.586a16.048,16.048,0,0,1-16.05-16.05A15.777,15.777,0,0,1,89.561,43.7a15.966,15.966,0,0,1,11.327-4.723h4.586a2.293,2.293,0,1,1,0,4.586h-4.586a11.465,11.465,0,1,0,0,22.929h4.586a2.293,2.293,0,1,1,0,4.586ZM25.222,57.323,32.284,40.4a2.385,2.385,0,0,1,4.219,0l7.062,16.922h2.293a2.293,2.293,0,1,1,0,4.586h-.367l2.522,6.007A2.225,2.225,0,0,1,46.775,70.9a1.987,1.987,0,0,1-.871.183,2.287,2.287,0,0,1-2.109-1.422l-3.256-7.75H28.294l-3.256,7.75a2.282,2.282,0,1,1-4.219-1.743l2.522-6.007h-.367a2.293,2.293,0,1,1,0-4.586h2.293ZM6.879,9.172A2.271,2.271,0,0,1,9.172,6.879H119.231a2.271,2.271,0,0,1,2.293,2.293v64.2a2.293,2.293,0,0,1-4.586,0V29.808H11.465v6.879a2.293,2.293,0,1,1-4.586,0ZM73.373,84.838H22.929a2.293,2.293,0,0,1,0-4.586H73.373a2.293,2.293,0,0,1,0,4.586Zm0,13.757H22.929a2.293,2.293,0,1,1,0-4.586H73.373a2.293,2.293,0,1,1,0,4.586Zm32.1-4.586a11.465,11.465,0,1,0,11.465,11.465A11.469,11.469,0,0,0,105.474,94.009Zm-32.1,27.515H9.172a2.271,2.271,0,0,1-2.293-2.293V55.03a2.293,2.293,0,1,1,4.586,0v61.908H73.373a2.293,2.293,0,1,1,0,4.586Zm32.1,0a16.05,16.05,0,1,1,16.05-16.05A16.068,16.068,0,0,1,105.474,121.524Zm12.657.78a2.151,2.151,0,0,1,1.605.688l11.373,11.373,3.256-3.256-11.373-11.373a2.29,2.29,0,0,1-.275-2.889,20.685,20.685,0,1,0-5.824,5.824,2.2,2.2,0,0,1,1.284-.367Zm12.978,17.564a2.151,2.151,0,0,1-1.605-.688L117.81,127.486a25.254,25.254,0,1,1,9.722-9.722l11.694,11.694a2.355,2.355,0,0,1,0,3.256l-6.512,6.466A2.225,2.225,0,0,1,131.108,139.867Z"/>
      </g>
    </g>
  </g>
</svg>
