<svg xmlns="http://www.w3.org/2000/svg" width="190" height="190" viewBox="0 0 190 190">
  <g id="Grupo_1064696" data-name="Grupo 1064696" transform="translate(0 0.001)">
    <rect id="Rectángulo_373878" data-name="Rectángulo 373878" width="190" height="190" rx="18" transform="translate(0 -0.001)"/>
    <path id="Trazado_797605" data-name="Trazado 797605" d="M566.7,550.637,531.05,498.844l-4.031-5.858-25.5-37.049-2.114-3.07H468.067l7.642,11.106,33.908,49.267,4.031,5.851,27.245,39.585,2.113,3.067h31.337Zm-19.97,4.018-28.3-41.125-4.031-5.854-32.845-47.72h14.128l26.562,38.592,4.031,5.854,34.588,50.253Z" transform="translate(-426.144 -412.306)" fill="#fff"/>
    <path id="Trazado_797606" data-name="Trazado 797606" d="M513.15,1064.8l4.031,5.854-4.778,5.561-36.663,42.652H466.7l41.673-48.5Z" transform="translate(-424.899 -969.427)" fill="#fff"/>
    <path id="Trazado_797607" data-name="Trazado 797607" d="M1121.238,452.867l-39.521,45.977-4.778,5.558-4.031-5.854,4.778-5.561,26.771-31.159,7.739-8.96Z" transform="translate(-976.812 -412.306)" fill="#fff"/>
  </g>
</svg>
