<svg xmlns="http://www.w3.org/2000/svg" xmlns:xlink="http://www.w3.org/1999/xlink" width="133" height="133" viewBox="0 0 133 133">
  <defs>
    <clipPath id="clip-path">
      <rect id="Rectángulo_373730" data-name="Rectángulo 373730" width="133" height="133" transform="translate(-3343 -5012)" fill="#fff"/>
    </clipPath>
  </defs>
  <g id="Enmascarar_grupo_1059040" data-name="Enmascarar grupo 1059040" transform="translate(3343 5012)" clip-path="url(#clip-path)">
    <g id="pagina-de-inicio" transform="translate(-3343 -5008.322)">
      <path id="Trazado_797329" data-name="Trazado 797329" d="M76.217,99.3H56.784s-.157,13.524-6.822,21.937a2.736,2.736,0,0,0,2.171,4.411H80.867a2.736,2.736,0,0,0,2.171-4.411C76.374,112.819,76.217,99.3,76.217,99.3Zm0,0" fill="#bddff4"/>
      <path id="Trazado_797330" data-name="Trazado 797330" d="M80.868,125.642h-7a2.736,2.736,0,0,0,2.174-4.411C69.372,112.82,69.215,99.3,69.215,99.3h7s.156,13.525,6.822,21.936A2.736,2.736,0,0,1,80.868,125.642Zm0,0" fill="#adc9e2"/>
      <path id="Trazado_797331" data-name="Trazado 797331" d="M133,15.449v86.186a2.73,2.73,0,0,1-2.731,2.732H2.73A2.73,2.73,0,0,1,0,101.635V15.449a4.1,4.1,0,0,1,4.1-4.094H128.9a4.1,4.1,0,0,1,4.1,4.094Zm0,0" fill="#32dfb7"/>
      <path id="Trazado_797332" data-name="Trazado 797332" d="M11.516,11.355H121.484V91.291H11.516Zm0,0" fill="#21c69c"/>
      <path id="Trazado_797333" data-name="Trazado 797333" d="M133,15.449v86.186a2.73,2.73,0,0,1-2.731,2.732H121.65a2.73,2.73,0,0,0,2.732-2.732V15.449a4.1,4.1,0,0,0-4.1-4.094H128.9a4.1,4.1,0,0,1,4.1,4.094Zm0,0" fill="#21c69c"/>
      <path id="Trazado_797334" data-name="Trazado 797334" d="M133,88.059v13.576a2.73,2.73,0,0,1-2.731,2.732H2.73A2.73,2.73,0,0,1,0,101.635V88.059Zm0,0" fill="#4e7693"/>
      <path id="Trazado_797335" data-name="Trazado 797335" d="M133,88.059v13.576a2.73,2.73,0,0,1-2.731,2.732H121.65a2.73,2.73,0,0,0,2.732-2.732V88.059Zm0,0" fill="#38627c"/>
      <path id="Trazado_797336" data-name="Trazado 797336" d="M14.747,2.693V88.059H118.253V2.693A2.693,2.693,0,0,0,115.56,0H17.44a2.693,2.693,0,0,0-2.693,2.693Zm0,0" fill="#e3f4ff"/>
      <path id="Trazado_797337" data-name="Trazado 797337" d="M112.075,0V88.059h6.18V2.693A2.694,2.694,0,0,0,115.56,0Zm0,0" fill="#bddff4"/>
      <path id="Trazado_797338" data-name="Trazado 797338" d="M14.745,30.773H118.252V64.442H14.745Zm0,0" fill="#27e6fc"/>
      <path id="Trazado_797339" data-name="Trazado 797339" d="M85.621,59.409a12.94,12.94,0,0,1-1.01,5.033H60.6a13.018,13.018,0,1,1,25.025-5.033Zm0,0" fill="#fdb659"/>
      <path id="Trazado_797340" data-name="Trazado 797340" d="M85.62,59.409a12.934,12.934,0,0,1-1.009,5.034h-6.1A13.024,13.024,0,0,0,69.55,46.755,13.024,13.024,0,0,1,85.62,59.409Zm0,0" fill="#fede93"/>
      <path id="Trazado_797341" data-name="Trazado 797341" d="M72.969,64.442H14.745V52.97L25.6,42.11a2.7,2.7,0,0,1,3.809,0L42.331,55.03l8.709-8.707a2.693,2.693,0,0,1,3.808,0Zm0,0" fill="#12967e"/>
      <path id="Trazado_797342" data-name="Trazado 797342" d="M72.968,64.443H65.521l-16.3-16.3,1.819-1.82a2.693,2.693,0,0,1,3.808,0Zm0,0" fill="#21c69c"/>
      <path id="Trazado_797343" data-name="Trazado 797343" d="M33.045,57.875a2,2,0,0,1-1.42-.588l-4.018-4.018a2.007,2.007,0,0,1,2.838-2.839l4.019,4.019a2.007,2.007,0,0,1-1.42,3.426Zm0,0" fill="#0b7f69"/>
      <path id="Trazado_797344" data-name="Trazado 797344" d="M112.075,30.773h6.179V64.442h-6.179Zm0,0" fill="#06c7f4"/>
      <path id="Trazado_797345" data-name="Trazado 797345" d="M14.746,2.693V13.446H118.254V2.693A2.694,2.694,0,0,0,115.56,0H17.44a2.694,2.694,0,0,0-2.694,2.693Zm0,0" fill="#618baa"/>
      <path id="Trazado_797346" data-name="Trazado 797346" d="M14.746,2.693V13.446H45.13V0H17.44a2.694,2.694,0,0,0-2.694,2.693Zm0,0" fill="#32dfb7"/>
      <path id="Trazado_797347" data-name="Trazado 797347" d="M112.075,0V13.446h6.18V2.693A2.694,2.694,0,0,0,115.56,0Zm0,0" fill="#4e7693"/>
      <g id="Grupo_1064632" data-name="Grupo 1064632">
        <path id="Trazado_797348" data-name="Trazado 797348" d="M57.683,23.357h-32.7a2.007,2.007,0,1,1,0-4.014h32.7a2.007,2.007,0,0,1,0,4.014Zm0,0" fill="#93c0d1"/>
        <path id="Trazado_797349" data-name="Trazado 797349" d="M76.358,23.357H71.776a2.007,2.007,0,1,1,0-4.014h4.581a2.007,2.007,0,1,1,0,4.014Zm0,0" fill="#93c0d1"/>
        <path id="Trazado_797350" data-name="Trazado 797350" d="M86.91,23.357H82.328a2.007,2.007,0,1,1,0-4.014H86.91a2.007,2.007,0,1,1,0,4.014Zm0,0" fill="#93c0d1"/>
        <path id="Trazado_797351" data-name="Trazado 797351" d="M97.462,23.357H92.88a2.007,2.007,0,1,1,0-4.014h4.581a2.007,2.007,0,1,1,0,4.014Zm0,0" fill="#93c0d1"/>
        <path id="Trazado_797352" data-name="Trazado 797352" d="M108.014,23.357h-4.581a2.007,2.007,0,0,1,0-4.014h4.581a2.007,2.007,0,1,1,0,4.014Zm0,0" fill="#93c0d1"/>
      </g>
      <path id="Trazado_797353" data-name="Trazado 797353" d="M24.425,8.818h-.012A2.008,2.008,0,0,1,24.4,4.8h.035a2.007,2.007,0,0,1-.012,4.014Zm0,0" fill="#21c69c"/>
      <path id="Trazado_797354" data-name="Trazado 797354" d="M30.155,8.834a2.007,2.007,0,0,1-.022-4.014h.022a2.007,2.007,0,0,1,0,4.014Zm0,0" fill="#21c69c"/>
      <path id="Trazado_797355" data-name="Trazado 797355" d="M35.885,8.85h-.012a2.007,2.007,0,0,1-.01-4.014H35.9a2.007,2.007,0,0,1-.012,4.013Zm0,0" fill="#21c69c"/>
      <path id="Trazado_797356" data-name="Trazado 797356" d="M68.924,98.22H64.076a2.007,2.007,0,0,1,0-4.014h4.848a2.007,2.007,0,0,1,0,4.014Zm0,0" fill="#38627c"/>
      <path id="Trazado_797357" data-name="Trazado 797357" d="M47.879,80.327H31.72a2.694,2.694,0,0,1-2.693-2.694V75.3a2.693,2.693,0,0,1,2.693-2.693H47.879A2.693,2.693,0,0,1,50.572,75.3v2.334A2.694,2.694,0,0,1,47.879,80.327Zm0,0" fill="#fdb659"/>
      <path id="Trazado_797358" data-name="Trazado 797358" d="M101.28,80.327H85.122a2.694,2.694,0,0,1-2.694-2.694V75.3a2.694,2.694,0,0,1,2.694-2.693H101.28a2.694,2.694,0,0,1,2.694,2.693v2.334A2.7,2.7,0,0,1,101.28,80.327Zm0,0" fill="#fc3e81"/>
      <path id="Trazado_797359" data-name="Trazado 797359" d="M66.5,83.052a2.006,2.006,0,0,1-2.007-2.007V71.35a2.007,2.007,0,0,1,4.014,0v9.695A2.006,2.006,0,0,1,66.5,83.052Zm0,0" fill="#93c0d1"/>
      <path id="Trazado_797360" data-name="Trazado 797360" d="M106.5,44.809H91.367a2.007,2.007,0,1,1,0-4.013H106.5a2.007,2.007,0,1,1,0,4.013Zm0,0" fill="#06c7f4"/>
      <path id="Trazado_797361" data-name="Trazado 797361" d="M106.5,51.452h-3.068a2.007,2.007,0,1,1,0-4.013H106.5a2.007,2.007,0,1,1,0,4.013Zm0,0" fill="#06c7f4"/>
      <path id="Trazado_797362" data-name="Trazado 797362" d="M106.5,55.941h-3.068a2.007,2.007,0,1,1,0-4.014H106.5a2.007,2.007,0,1,1,0,4.014Zm0,0" fill="#06c7f4"/>
    </g>
  </g>
</svg>
