<svg xmlns="http://www.w3.org/2000/svg" xmlns:xlink="http://www.w3.org/1999/xlink" width="133" height="133" viewBox="0 0 133 133">
  <defs>
    <clipPath id="clip-path">
      <rect id="Rectángulo_373772" data-name="Rectángulo 373772" width="133" height="133" transform="translate(498 -4819)" fill="#232997"/>
    </clipPath>
    <clipPath id="clip-path-2">
      <path id="path9237" d="M0-133H133V0H0Z"/>
    </clipPath>
  </defs>
  <g id="Enmascarar_grupo_1059035" data-name="Enmascarar grupo 1059035" transform="translate(-498 4819)" clip-path="url(#clip-path)">
    <g id="g9231" transform="translate(498 -4686)">
      <g id="g9233">
        <g id="g9235" clip-path="url(#clip-path-2)">
          <g id="g9241" transform="translate(1.948 -33.549)">
            <path id="path9243" d="M0,0V-89.71A7.793,7.793,0,0,1,7.793-97.5H121.311A7.793,7.793,0,0,1,129.1-89.71V0Z" fill="#eaf6ff"/>
          </g>
          <g id="g9245" transform="translate(93.321 -48.823)">
            <path id="path9247" d="M0,0H-53.642V-47.614A26.821,26.821,0,0,1-26.821-74.435,26.821,26.821,0,0,1,0-47.614Z" fill="#e39971"/>
          </g>
          <g id="g9249" transform="translate(66.5 -123.259)">
            <path id="path9251" d="M0,0H0A27.031,27.031,0,0,0-3.9.283,26.826,26.826,0,0,1,19.028,26.821V74.435h7.793V26.821A26.821,26.821,0,0,0,0,0" fill="#de8753"/>
          </g>
          <g id="g9253" transform="translate(74.225 -63.922)">
            <path id="path9255" d="M0,0V-10.889H-15.45V0a5.2,5.2,0,0,1-4.12,5.083L-30.851,7.47A15.586,15.586,0,0,0-43.21,22.718v7.654H27.76V22.718A15.586,15.586,0,0,0,15.4,7.47L4.12,5.083A5.2,5.2,0,0,1,0,0" fill="#ade59b"/>
          </g>
          <g id="g9257" transform="translate(75.655 -53.863)">
            <path id="path9259" d="M0,0,6.177,1.307A15.585,15.585,0,0,1,18.537,16.555v3.758H26.33V12.659A15.585,15.585,0,0,0,13.97-2.589L4.543-4.584Z" fill="#88d9a3"/>
          </g>
          <g id="g9261" transform="translate(52.802 -58.447)">
            <path id="path9263" d="M0,0A16.393,16.393,0,0,0,13.7,7.376,16.393,16.393,0,0,0,27.4,0l-5.75-.392a5.2,5.2,0,0,1-4.12-5.083V-16.364H5.973V-5.475A5.2,5.2,0,0,1,1.853-.392Z" fill="#ffcebe"/>
          </g>
          <g id="g9265" transform="translate(74.225 -63.922)">
            <path id="path9267" d="M0,0V-10.889H-7.793V3.9a5.2,5.2,0,0,0,4.12,5.083l5.1,1.08A16.506,16.506,0,0,0,5.973,5.475L4.12,5.083A5.207,5.207,0,0,1,0,0" fill="#ffb09c"/>
          </g>
          <g id="g9269" transform="translate(86.238 -98.541)">
            <path id="path9271" d="M0,0A20.692,20.692,0,0,1-7.272-3.789a20.816,20.816,0,0,1-4.936-5.786A.892.892,0,0,0-13.569-9.8a39.361,39.361,0,0,1-7.079,4.949A40.471,40.471,0,0,1-39.476,0V12.648A19.845,19.845,0,0,0-27.463,30.909c2.373,1.015,7.89.484,7.89.484,2.725,0,5.156.538,7.517-.466A19.846,19.846,0,0,0,0,12.648Z" fill="#ffcebe"/>
          </g>
          <g id="g9273" transform="translate(78.965 -102.33)">
            <path id="path9275" d="M0,0A20.809,20.809,0,0,1-4.942-5.8.886.886,0,0,0-6.3-6.015a39.636,39.636,0,0,1-4.3,3.271A20.652,20.652,0,0,0-7.793,0,20.683,20.683,0,0,0-2.453,3.127,3.075,3.075,0,0,1-.521,5.984V16.438A18.1,18.1,0,0,1-5.053,29.086C-10.931,35.54-19.286,34.795-20.19,34.7A19.876,19.876,0,0,0-14.138,36.2s.85.071,1.672.071A19.788,19.788,0,0,0,7.272,16.438V3.789A20.7,20.7,0,0,1,0,0" fill="#ffb09c"/>
          </g>
          <g id="g9277" transform="translate(88.65 -89.176)">
            <path id="path9279" d="M0,0H-2.413V-9.365H0A4.67,4.67,0,0,1,4.67-4.694v.024A4.67,4.67,0,0,1,0,0" fill="#ffcebe"/>
          </g>
          <g id="g9281" transform="translate(44.349 -89.176)">
            <path id="path9283" d="M0,0H2.413V-9.365H0A4.67,4.67,0,0,0-4.67-4.694v.024A4.67,4.67,0,0,0,0,0" fill="#ffb09c"/>
          </g>
          <g id="g9285" transform="translate(131.052 -33.549)">
            <path id="path9287" d="M0,0V-89.71A7.793,7.793,0,0,0-7.793-97.5h-7.793A7.793,7.793,0,0,1-7.793-89.71V0Z" fill="#d7ecff"/>
          </g>
          <g id="g9289" transform="translate(9.741 -1.948)">
            <path id="path9291" d="M0,0H113.518a7.793,7.793,0,0,0,7.793-7.793V-31.6H-7.793V-7.793A7.793,7.793,0,0,0,0,0" fill="#3d6d91"/>
          </g>
          <g id="g9293" transform="translate(123.259 -33.549)">
            <path id="path9295" d="M0,0V23.808A7.793,7.793,0,0,1-7.793,31.6H0a7.793,7.793,0,0,0,7.793-7.793V0Z" fill="#335e80"/>
          </g>
          <g id="g9297" transform="translate(85.333 -9.741)">
            <path id="path9299" d="M0,0H-37.666a5.2,5.2,0,0,1-5.2-5.2V-22.34a5.2,5.2,0,0,1,5.2-5.2h10.179a2.078,2.078,0,0,0,1.469-.609l5.715-5.715a2.078,2.078,0,0,1,2.939,0l5.715,5.715a2.078,2.078,0,0,0,1.469.609H0a5.2,5.2,0,0,1,5.2,5.2V-5.2A5.2,5.2,0,0,1,0,0" fill="#eaf6ff"/>
          </g>
          <g id="g9301" transform="translate(85.333 -37.276)">
            <path id="path9303" d="M0,0H-7.793A5.2,5.2,0,0,1-2.6,5.2V22.34a5.2,5.2,0,0,1-5.2,5.2H0a5.2,5.2,0,0,0,5.2-5.2V5.2A5.2,5.2,0,0,0,0,0" fill="#d7ecff"/>
          </g>
          <g id="g9305" transform="translate(54.254 -9.741)">
            <path id="path9307" d="M0,0H24.491A12.608,12.608,0,0,0,0,0" fill="#ade59b"/>
          </g>
          <g id="g9309" transform="translate(66.5 -19.349)">
            <path id="path9311" d="M0,0A12.6,12.6,0,0,0-3.9.616,12.632,12.632,0,0,1,4.453,9.608h7.793A12.611,12.611,0,0,0,0,0" fill="#88d9a3"/>
          </g>
          <g id="g9313" transform="translate(66.5 -16.695)">
            <path id="path9315" d="M0,0H0A6.651,6.651,0,0,1-6.652-6.651V-9.188A6.651,6.651,0,0,1,0-15.84,6.651,6.651,0,0,1,6.652-9.188v2.537A6.651,6.651,0,0,1,0,0" fill="#ffcebe"/>
          </g>
          <g id="g9317" transform="translate(66.5 -32.535)">
            <path id="path9319" d="M0,0H0A6.619,6.619,0,0,0-3.523,1.01,6.645,6.645,0,0,1-.395,6.651V9.188A6.645,6.645,0,0,1-3.523,14.83,6.619,6.619,0,0,0,0,15.84,6.652,6.652,0,0,0,6.652,9.188V6.651A6.651,6.651,0,0,0,0,0" fill="#ffb09c"/>
          </g>
          <g id="g9321" transform="translate(123.259 -1.948)">
            <path id="path9323" d="M0,0H-113.518a7.793,7.793,0,0,1-7.793-7.793V-121.311a7.793,7.793,0,0,1,7.793-7.793H0a7.793,7.793,0,0,1,7.793,7.793V-7.793A7.793,7.793,0,0,1,0,0Z" fill="none" stroke="#000" stroke-linecap="round" stroke-linejoin="round" stroke-miterlimit="10" stroke-width="3.896"/>
          </g>
          <g id="g9325" transform="translate(42.682 -33.549)">
            <path id="path9327" d="M0,0H-40.734" fill="none" stroke="#000" stroke-linecap="round" stroke-linejoin="round" stroke-miterlimit="10" stroke-width="3.896"/>
          </g>
          <g id="g9329" transform="translate(109.964 -33.549)">
            <path id="path9331" d="M0,0H-19.646" fill="none" stroke="#000" stroke-linecap="round" stroke-linejoin="round" stroke-miterlimit="10" stroke-width="3.896"/>
          </g>
          <g id="g9333" transform="translate(131.052 -33.549)">
            <path id="path9335" d="M0,0H-12" fill="none" stroke="#000" stroke-linecap="round" stroke-linejoin="round" stroke-miterlimit="10" stroke-width="3.896"/>
          </g>
          <g id="g9337" transform="translate(56.598 -121.372)">
            <path id="path9339" d="M0,0A26.853,26.853,0,0,1,28.867,5.969a26.744,26.744,0,0,1,7.855,18.965V66.2" fill="none" stroke="#000" stroke-linecap="round" stroke-linejoin="round" stroke-miterlimit="10" stroke-width="3.896"/>
          </g>
          <g id="g9341" transform="translate(39.679 -55.169)">
            <path id="path9343" d="M0,0V-41.269A26.757,26.757,0,0,1,9.114-61.415" fill="none" stroke="#000" stroke-linecap="round" stroke-linejoin="round" stroke-miterlimit="10" stroke-width="3.896"/>
          </g>
          <g id="g9345" transform="translate(58.775 -67.633)">
            <path id="path9347" d="M0,0V3.712A5.191,5.191,0,0,1-4.12,8.793L-15.4,11.18a15.585,15.585,0,0,0-12.36,15.248v7.655" fill="none" stroke="#000" stroke-linecap="round" stroke-linejoin="round" stroke-miterlimit="10" stroke-width="3.896"/>
          </g>
          <g id="g9349" transform="translate(74.225 -67.633)">
            <path id="path9351" d="M0,0V3.712A5.191,5.191,0,0,0,4.12,8.793L15.4,11.18a15.585,15.585,0,0,1,12.36,15.248v7.655" fill="none" stroke="#000" stroke-linecap="round" stroke-linejoin="round" stroke-miterlimit="10" stroke-width="3.896"/>
          </g>
          <g id="g9353" transform="translate(52.802 -58.447)">
            <path id="path9355" d="M0,0A16.393,16.393,0,0,0,13.7,7.376,16.393,16.393,0,0,0,27.4,0" fill="none" stroke="#000" stroke-linecap="round" stroke-linejoin="round" stroke-miterlimit="10" stroke-width="3.896"/>
          </g>
          <g id="g9357" transform="translate(86.238 -98.541)">
            <path id="path9359" d="M0,0A20.692,20.692,0,0,1-7.272-3.789a20.816,20.816,0,0,1-4.936-5.786A.892.892,0,0,0-13.569-9.8a39.361,39.361,0,0,1-7.079,4.949A40.471,40.471,0,0,1-39.476,0V12.648A19.788,19.788,0,0,0-19.738,32.486,19.788,19.788,0,0,0,0,12.648Z" fill="none" stroke="#000" stroke-linecap="round" stroke-linejoin="round" stroke-miterlimit="10" stroke-width="3.896"/>
          </g>
          <g id="g9361" transform="translate(56.977 -92.775)">
            <path id="path9363" d="M0,0V3.828" fill="none" stroke="#000" stroke-linecap="round" stroke-linejoin="round" stroke-miterlimit="10" stroke-width="3.896"/>
          </g>
          <g id="g9365" transform="translate(76.023 -92.775)">
            <path id="path9367" d="M0,0V3.828" fill="none" stroke="#000" stroke-linecap="round" stroke-linejoin="round" stroke-miterlimit="10" stroke-width="3.896"/>
          </g>
          <g id="g9369" transform="translate(62.691 -75.79)">
            <path id="path9371" d="M0,0A7.92,7.92,0,0,0,3.726.982,7.926,7.926,0,0,0,7.618,0" fill="none" stroke="#000" stroke-linecap="round" stroke-linejoin="round" stroke-miterlimit="10" stroke-width="3.896"/>
          </g>
          <g id="g9373" transform="translate(88.65 -89.176)">
            <path id="path9375" d="M0,0H-2.413V-9.365H0A4.67,4.67,0,0,1,4.67-4.694v.024A4.67,4.67,0,0,1,0,0Z" fill="none" stroke="#000" stroke-linecap="round" stroke-linejoin="round" stroke-miterlimit="10" stroke-width="3.896"/>
          </g>
          <g id="g9377" transform="translate(44.349 -89.176)">
            <path id="path9379" d="M0,0H2.413V-9.365H0A4.67,4.67,0,0,0-4.67-4.694v.024A4.67,4.67,0,0,0,0,0Z" fill="none" stroke="#000" stroke-linecap="round" stroke-linejoin="round" stroke-miterlimit="10" stroke-width="3.896"/>
          </g>
          <g id="g9381" transform="translate(85.333 -9.741)">
            <path id="path9383" d="M0,0H-37.666a5.2,5.2,0,0,1-5.2-5.2V-22.34a5.2,5.2,0,0,1,5.2-5.2h10.179a2.078,2.078,0,0,0,1.469-.609l5.715-5.715a2.078,2.078,0,0,1,2.939,0l5.715,5.715a2.078,2.078,0,0,0,1.469.609H0a5.2,5.2,0,0,1,5.2,5.2V-5.2A5.2,5.2,0,0,1,0,0Z" fill="none" stroke="#000" stroke-linecap="round" stroke-linejoin="round" stroke-miterlimit="10" stroke-width="3.896"/>
          </g>
          <g id="g9385" transform="translate(54.255 -9.741)">
            <path id="path9387" d="M0,0A12.617,12.617,0,0,1,7.689-8.759" fill="none" stroke="#000" stroke-linecap="round" stroke-linejoin="round" stroke-miterlimit="10" stroke-width="3.896"/>
          </g>
          <g id="g9389" transform="translate(71.056 -18.5)">
            <path id="path9391" d="M0,0A12.641,12.641,0,0,1,7.689,8.759" fill="none" stroke="#000" stroke-linecap="round" stroke-linejoin="round" stroke-miterlimit="10" stroke-width="3.896"/>
          </g>
          <g id="g9393" transform="translate(66.5 -16.695)">
            <path id="path9395" d="M0,0H0A6.651,6.651,0,0,1-6.652-6.651V-9.188A6.651,6.651,0,0,1,0-15.84,6.651,6.651,0,0,1,6.652-9.188v2.537A6.651,6.651,0,0,1,0,0Z" fill="none" stroke="#000" stroke-linecap="round" stroke-linejoin="round" stroke-miterlimit="10" stroke-width="3.896"/>
          </g>
        </g>
      </g>
    </g>
  </g>
</svg>
