<svg xmlns="http://www.w3.org/2000/svg" xmlns:xlink="http://www.w3.org/1999/xlink" width="190" height="190" viewBox="0 0 190 190">
  <defs>
    <clipPath id="clip-path">
      <rect id="Rectángulo_373775" data-name="Rectángulo 373775" width="190" height="190" transform="translate(1230 7393)" fill="#232997"/>
    </clipPath>
  </defs>
  <g id="Enmascarar_grupo_1059033" data-name="Enmascarar grupo 1059033" transform="translate(-1230 -7393)" clip-path="url(#clip-path)">
    <g id="estandar" transform="translate(1226.936 7389.936)">
      <g id="Grupo_1064485" data-name="Grupo 1064485">
        <path id="Trazado_797154" data-name="Trazado 797154" d="M52.1,113.387v64.355A12.259,12.259,0,0,0,64.355,190H174.677a12.259,12.259,0,0,0,12.258-12.258V27.581a12.259,12.259,0,0,0-12.258-12.258H64.355A12.259,12.259,0,0,0,52.1,27.581v85.806Z" fill="#953528"/>
        <path id="Trazado_797155" data-name="Trazado 797155" d="M174.677,15.323H64.355a12.106,12.106,0,0,0-1.5.15c0,.463-.034.919-.034,1.382A144.037,144.037,0,0,0,186.935,159.484V27.581A12.259,12.259,0,0,0,174.677,15.323Z" fill="#c64635"/>
        <path id="Trazado_797156" data-name="Trazado 797156" d="M64.355,135.859v35.754a6.127,6.127,0,0,0,6.129,6.129h98.065a6.127,6.127,0,0,0,6.129-6.129V33.71a6.127,6.127,0,0,0-6.129-6.129H70.484a6.127,6.127,0,0,0-6.129,6.129v102.15Z" fill="#d9d5ca"/>
        <path id="Trazado_797157" data-name="Trazado 797157" d="M27.581,104.194,9.194,134.774l18.387-3L33.71,147.1,52.1,113.387Z" fill="#5490f5"/>
        <path id="Trazado_797158" data-name="Trazado 797158" d="M76.613,104.194,95,134.774l-18.387-3L70.484,147.1,52.1,113.387Z" fill="#81b4fc"/>
        <path id="Trazado_797159" data-name="Trazado 797159" d="M64.355,37.816A144.12,144.12,0,0,0,174.677,157.225V33.71a6.127,6.127,0,0,0-6.129-6.129H70.484a6.127,6.127,0,0,0-6.129,6.129Z" fill="#e8e4d8"/>
        <path id="Trazado_797160" data-name="Trazado 797160" d="M147.1,36.774H91.935a6.127,6.127,0,0,1-6.129-6.129V12.258a6.127,6.127,0,0,1,6.129-6.129H147.1a6.127,6.127,0,0,1,6.129,6.129V30.645A6.127,6.127,0,0,1,147.1,36.774Z" fill="#d5d6d8"/>
        <path id="Trazado_797161" data-name="Trazado 797161" d="M88.871,76.613A36.474,36.474,0,0,1,52.1,113.387c-20.514-.141-36.949-16.41-36.774-36.774a36.774,36.774,0,1,1,73.548,0Z" fill="#ffc239"/>
        <circle id="Elipse_8302" data-name="Elipse 8302" cx="27.581" cy="27.581" r="27.581" transform="translate(24.516 49.032)" fill="#ffd55d"/>
        <g id="Grupo_1064472" data-name="Grupo 1064472">
          <path id="Trazado_797162" data-name="Trazado 797162" d="M45.968,88.871a2.939,2.939,0,0,1-.49-.04,3.067,3.067,0,0,1-2.249-1.655L37.1,74.918l5.482-2.743,4.226,8.455L65.253,62.185l4.333,4.333L48.134,87.97a3.055,3.055,0,0,1-2.167.9Z" fill="#f4ac1c"/>
        </g>
        <path id="Trazado_797163" data-name="Trazado 797163" d="M147.1,6.129H95V21.452a6.127,6.127,0,0,0,6.129,6.129h52.1V12.258A6.127,6.127,0,0,0,147.1,6.129Z" fill="#f1f1f3"/>
        <g id="Grupo_1064473" data-name="Grupo 1064473">
          <path id="Trazado_797164" data-name="Trazado 797164" d="M106.238,73.548a3.063,3.063,0,0,1-2.354-1.1l-5.109-6.129,4.707-3.923,2.752,3.3,7.86-9.433,4.707,3.923L108.588,72.445a3.056,3.056,0,0,1-2.35,1.1Z" fill="#c64635"/>
        </g>
        <g id="Grupo_1064474" data-name="Grupo 1064474">
          <path id="Trazado_797165" data-name="Trazado 797165" d="M106.238,104.194a3.07,3.07,0,0,1-2.354-1.1l-5.109-6.129,4.707-3.923,2.752,3.3,7.86-9.433,4.707,3.923-10.214,12.258a3.063,3.063,0,0,1-2.35,1.1Z" fill="#c64635"/>
        </g>
        <g id="Grupo_1064475" data-name="Grupo 1064475">
          <path id="Trazado_797166" data-name="Trazado 797166" d="M125.645,58.226h39.839v6.129H125.645Z" fill="#88857c"/>
        </g>
        <g id="Grupo_1064476" data-name="Grupo 1064476">
          <path id="Trazado_797167" data-name="Trazado 797167" d="M125.645,67.419h39.839v6.129H125.645Z" fill="#88857c"/>
        </g>
        <g id="Grupo_1064477" data-name="Grupo 1064477">
          <path id="Trazado_797168" data-name="Trazado 797168" d="M125.645,88.871h39.839V95H125.645Z" fill="#88857c"/>
        </g>
        <g id="Grupo_1064478" data-name="Grupo 1064478">
          <path id="Trazado_797169" data-name="Trazado 797169" d="M125.645,98.065h39.839v6.129H125.645Z" fill="#88857c"/>
        </g>
        <g id="Grupo_1064479" data-name="Grupo 1064479">
          <path id="Trazado_797170" data-name="Trazado 797170" d="M106.238,134.839a3.07,3.07,0,0,1-2.354-1.1l-5.109-6.129,4.707-3.926,2.752,3.3,7.86-9.433,4.707,3.926-10.214,12.258a3.063,3.063,0,0,1-2.35,1.1Z" fill="#c64635"/>
        </g>
        <g id="Grupo_1064480" data-name="Grupo 1064480">
          <path id="Trazado_797171" data-name="Trazado 797171" d="M106.238,165.484a3.07,3.07,0,0,1-2.354-1.1l-5.109-6.129,4.707-3.926,2.752,3.3,7.86-9.433,4.707,3.926-10.214,12.258a3.063,3.063,0,0,1-2.35,1.1Z" fill="#c64635"/>
        </g>
        <g id="Grupo_1064481" data-name="Grupo 1064481">
          <path id="Trazado_797172" data-name="Trazado 797172" d="M125.645,119.516h39.839v6.129H125.645Z" fill="#88857c"/>
        </g>
        <g id="Grupo_1064482" data-name="Grupo 1064482">
          <path id="Trazado_797173" data-name="Trazado 797173" d="M125.645,128.71h39.839v6.129H125.645Z" fill="#88857c"/>
        </g>
        <g id="Grupo_1064483" data-name="Grupo 1064483">
          <path id="Trazado_797174" data-name="Trazado 797174" d="M125.645,150.161h39.839v6.129H125.645Z" fill="#88857c"/>
        </g>
        <g id="Grupo_1064484" data-name="Grupo 1064484">
          <path id="Trazado_797175" data-name="Trazado 797175" d="M125.645,159.355h39.839v6.129H125.645Z" fill="#88857c"/>
        </g>
      </g>
      <g id="Grupo_1064486" data-name="Grupo 1064486">
        <path id="Trazado_797176" data-name="Trazado 797176" d="M52.1,107.258A30.645,30.645,0,1,0,21.452,76.613,30.68,30.68,0,0,0,52.1,107.258Zm0-55.161A24.516,24.516,0,1,1,27.581,76.613,24.545,24.545,0,0,1,52.1,52.1Z"/>
        <path id="Trazado_797177" data-name="Trazado 797177" d="M45.477,88.831a2.939,2.939,0,0,0,.49.04,3.065,3.065,0,0,0,2.167-.9L69.586,66.521l-4.333-4.333L46.807,80.634l-4.226-8.455L37.1,74.921l6.129,12.258A3.058,3.058,0,0,0,45.477,88.831Z"/>
        <path id="Trazado_797178" data-name="Trazado 797178" d="M6.656,136.49A3.066,3.066,0,0,0,9.687,137.8l15.96-2.6,5.216,13.04a3.066,3.066,0,0,0,2.663,1.921c.061,0,.123.006.184.006a3.064,3.064,0,0,0,2.691-1.6L49.032,125.4v52.339a15.34,15.34,0,0,0,15.323,15.323H174.677A15.34,15.34,0,0,0,190,177.742V27.581a15.34,15.34,0,0,0-15.323-15.323H156.29A9.2,9.2,0,0,0,147.1,3.065H91.935a9.2,9.2,0,0,0-9.194,9.194H64.355A15.34,15.34,0,0,0,49.032,27.581v9.35A40.131,40.131,0,0,0,12.258,76.588a39.024,39.024,0,0,0,11.271,27.905c.061.061.129.113.19.175L6.567,133.193a3.064,3.064,0,0,0,.089,3.3ZM91.935,39.839H147.1a9.2,9.2,0,0,0,9.194-9.194h12.258a3.07,3.07,0,0,1,3.065,3.065v137.9a3.068,3.068,0,0,1-3.065,3.065H70.484a3.068,3.068,0,0,1-3.065-3.065V147.878l.374.686a3.064,3.064,0,0,0,2.691,1.6c.061,0,.123,0,.184-.006a3.061,3.061,0,0,0,2.663-1.921l5.216-13.04,15.96,2.6a3.066,3.066,0,0,0,3.12-4.606L80.5,104.708A39.484,39.484,0,0,0,91.935,76.6,40.067,40.067,0,0,0,67.419,39.863V33.71a3.07,3.07,0,0,1,3.065-3.065H82.742a9.2,9.2,0,0,0,9.194,9.194ZM75.779,108.754l13.187,21.93-11.86-1.937a3.055,3.055,0,0,0-3.34,1.888l-3.711,9.276L57.089,116.139a39.039,39.039,0,0,0,18.69-7.385Zm98.9-90.366a9.2,9.2,0,0,1,9.194,9.194V177.742a9.2,9.2,0,0,1-9.194,9.194H64.355a9.2,9.2,0,0,1-9.194-9.194V125.4l6.129,11.238v34.972a9.2,9.2,0,0,0,9.194,9.194h98.065a9.2,9.2,0,0,0,9.194-9.194V33.71a9.2,9.2,0,0,0-9.194-9.194H156.29V18.387ZM88.871,12.258a3.07,3.07,0,0,1,3.065-3.065H147.1a3.07,3.07,0,0,1,3.065,3.065V30.645A3.07,3.07,0,0,1,147.1,33.71H91.935a3.07,3.07,0,0,1-3.065-3.065ZM64.355,18.387H82.742v6.129H70.484A9.2,9.2,0,0,0,61.29,33.71V37.9a39.6,39.6,0,0,0-6.129-.965v-9.35A9.2,9.2,0,0,1,64.355,18.387ZM18.387,76.64a33.71,33.71,0,1,1,67.419-.015,33.4,33.4,0,0,1-9.84,23.971,34.059,34.059,0,0,1-48.067-.4A32.924,32.924,0,0,1,18.387,76.64Zm10.067,32.049a39.983,39.983,0,0,0,18.678,7.4L34.139,139.917l-3.711-9.276a3.068,3.068,0,0,0-3.34-1.888l-11.86,1.937Z"/>
        <path id="Trazado_797179" data-name="Trazado 797179" d="M106.238,73.548a3.063,3.063,0,0,0,2.354-1.1l10.214-12.258L114.1,56.265l-7.86,9.433-2.752-3.3-4.707,3.923,5.109,6.129a3.047,3.047,0,0,0,2.35,1.1Z"/>
        <path id="Trazado_797180" data-name="Trazado 797180" d="M106.238,104.194a3.07,3.07,0,0,0,2.354-1.1l10.214-12.258L114.1,86.913l-7.86,9.433-2.752-3.3-4.707,3.923,5.109,6.129a3.054,3.054,0,0,0,2.35,1.1Z"/>
        <path id="Trazado_797181" data-name="Trazado 797181" d="M125.645,58.226h39.839v6.129H125.645Z"/>
        <path id="Trazado_797182" data-name="Trazado 797182" d="M125.645,67.419h39.839v6.129H125.645Z"/>
        <path id="Trazado_797183" data-name="Trazado 797183" d="M125.645,88.871h39.839V95H125.645Z"/>
        <path id="Trazado_797184" data-name="Trazado 797184" d="M125.645,98.065h39.839v6.129H125.645Z"/>
        <path id="Trazado_797185" data-name="Trazado 797185" d="M106.238,134.839a3.07,3.07,0,0,0,2.354-1.1l10.214-12.258-4.707-3.926-7.86,9.433-2.752-3.3-4.707,3.926,5.109,6.129a3.054,3.054,0,0,0,2.35,1.1Z"/>
        <path id="Trazado_797186" data-name="Trazado 797186" d="M106.238,165.484a3.07,3.07,0,0,0,2.354-1.1l10.214-12.258L114.1,148.2l-7.86,9.433-2.752-3.3-4.707,3.926,5.109,6.129a3.054,3.054,0,0,0,2.35,1.1Z"/>
        <path id="Trazado_797187" data-name="Trazado 797187" d="M125.645,119.516h39.839v6.129H125.645Z"/>
        <path id="Trazado_797188" data-name="Trazado 797188" d="M125.645,128.71h39.839v6.129H125.645Z"/>
        <path id="Trazado_797189" data-name="Trazado 797189" d="M125.645,150.161h39.839v6.129H125.645Z"/>
        <path id="Trazado_797190" data-name="Trazado 797190" d="M125.645,159.355h39.839v6.129H125.645Z"/>
      </g>
    </g>
  </g>
</svg>
