<svg xmlns="http://www.w3.org/2000/svg" xmlns:xlink="http://www.w3.org/1999/xlink" width="64" height="64" viewBox="0 0 64 64">
  <defs>
    <clipPath id="clip-path">
      <rect id="Rectángulo_373705" data-name="Rectángulo 373705" width="64" height="64" transform="translate(1010 4841)" fill="#ff5a20"/>
    </clipPath>
  </defs>
  <g id="Enmascarar_grupo_1059025" data-name="Enmascarar grupo 1059025" transform="translate(-1010 -4841)" clip-path="url(#clip-path)">
    <g id="conversacion" transform="translate(1010 4841)">
      <g id="Grupo_1064400" data-name="Grupo 1064400">
        <g id="Grupo_1064399" data-name="Grupo 1064399">
          <path id="Trazado_797116" data-name="Trazado 797116" d="M43.25,39.875A1.25,1.25,0,0,0,42,41.125V49.75A6.257,6.257,0,0,1,35.75,56h-13.5A1.25,1.25,0,0,0,21,57.249l0,2.485-2.983-2.983A1.25,1.25,0,0,0,16.872,56H8.75A6.257,6.257,0,0,1,2.5,49.75V30.5a6.257,6.257,0,0,1,6.25-6.25H21.375a1.25,1.25,0,0,0,0-2.5H8.75A8.76,8.76,0,0,0,0,30.5V49.75A8.76,8.76,0,0,0,8.75,58.5h7.482l5.134,5.134a1.25,1.25,0,0,0,2.134-.883l0-4.251H35.75a8.76,8.76,0,0,0,8.75-8.75V41.125A1.25,1.25,0,0,0,43.25,39.875Z" fill="#ff5a20"/>
        </g>
      </g>
      <g id="Grupo_1064402" data-name="Grupo 1064402">
        <g id="Grupo_1064401" data-name="Grupo 1064401">
          <path id="Trazado_797117" data-name="Trazado 797117" d="M45.832,0H42.668a18.168,18.168,0,1,0,0,36.336h3.164a18.2,18.2,0,0,0,4.611-.591l4.673,4.671a1.25,1.25,0,0,0,2.134-.884V32.3a18.342,18.342,0,0,0,4.776-5.888A17.972,17.972,0,0,0,64,18.168,18.189,18.189,0,0,0,45.832,0Zm9.416,30.692a1.25,1.25,0,0,0-.5,1v4.825l-3.059-3.057a1.249,1.249,0,0,0-1.251-.311,15.673,15.673,0,0,1-4.609.689H42.668a15.668,15.668,0,1,1,0-31.336h3.164a15.669,15.669,0,0,1,9.416,28.192Z" fill="#ff5a20"/>
        </g>
      </g>
      <g id="Grupo_1064404" data-name="Grupo 1064404">
        <g id="Grupo_1064403" data-name="Grupo 1064403">
          <path id="Trazado_797118" data-name="Trazado 797118" d="M49.879,13.678a5.3,5.3,0,0,0-4.907-4.907,5.251,5.251,0,0,0-3.983,1.41,5.311,5.311,0,0,0-1.682,3.869,1.25,1.25,0,1,0,2.5,0A2.793,2.793,0,0,1,44.8,11.265a2.793,2.793,0,0,1,.413,5.51,2.366,2.366,0,0,0-1.863,2.319v3a1.25,1.25,0,1,0,2.5,0v-2.9A5.265,5.265,0,0,0,49.879,13.678Z" fill="#ff5a20"/>
        </g>
      </g>
      <g id="Grupo_1064406" data-name="Grupo 1064406">
        <g id="Grupo_1064405" data-name="Grupo 1064405">
          <path id="Trazado_797119" data-name="Trazado 797119" d="M45.484,26.157a1.251,1.251,0,1,0,.366.884A1.259,1.259,0,0,0,45.484,26.157Z" fill="#ff5a20"/>
        </g>
      </g>
      <g id="Grupo_1064408" data-name="Grupo 1064408">
        <g id="Grupo_1064407" data-name="Grupo 1064407">
          <path id="Trazado_797120" data-name="Trazado 797120" d="M34.375,38.75H8a1.25,1.25,0,0,0,0,2.5H34.375a1.25,1.25,0,0,0,0-2.5Z" fill="#ff5a20"/>
        </g>
      </g>
      <g id="Grupo_1064410" data-name="Grupo 1064410">
        <g id="Grupo_1064409" data-name="Grupo 1064409">
          <path id="Trazado_797121" data-name="Trazado 797121" d="M35.259,46.116a1.249,1.249,0,1,0,.366.884A1.259,1.259,0,0,0,35.259,46.116Z" fill="#ff5a20"/>
        </g>
      </g>
      <g id="Grupo_1064412" data-name="Grupo 1064412">
        <g id="Grupo_1064411" data-name="Grupo 1064411">
          <path id="Trazado_797122" data-name="Trazado 797122" d="M29.458,45.75H8a1.25,1.25,0,0,0,0,2.5H29.458a1.25,1.25,0,1,0,0-2.5Z" fill="#ff5a20"/>
        </g>
      </g>
      <g id="Grupo_1064414" data-name="Grupo 1064414">
        <g id="Grupo_1064413" data-name="Grupo 1064413">
          <path id="Trazado_797123" data-name="Trazado 797123" d="M26.25,31.75H8a1.25,1.25,0,0,0,0,2.5H26.25a1.25,1.25,0,0,0,0-2.5Z" fill="#ff5a20"/>
        </g>
      </g>
    </g>
  </g>
</svg>
