<svg xmlns="http://www.w3.org/2000/svg" xmlns:xlink="http://www.w3.org/1999/xlink" width="64" height="64" viewBox="0 0 64 64">
  <defs>
    <clipPath id="clip-path">
      <rect id="Rectángulo_373711" data-name="Rectángulo 373711" width="64" height="64" transform="translate(-3425 -6859)" fill="#ff5a20"/>
    </clipPath>
  </defs>
  <g id="Enmascarar_grupo_1059041" data-name="Enmascarar grupo 1059041" transform="translate(3425 6859)" clip-path="url(#clip-path)">
    <g id="layer1" transform="translate(-3427.133 -6861.133)">
      <path id="path2989" d="M3.162,2.134a1.067,1.067,0,0,0-.956,1.45l2.221,5.81L2.906,14.952a1.067,1.067,0,0,0,.646,1.277l13.135,5.037a1.067,1.067,0,0,0,1.227-1.652l-4.975-6.442,1.9-4.385a1.067,1.067,0,0,0-.51-1.385L3.67,2.244a1.067,1.067,0,0,0-.5-.11h0Zm30.971,0A1.049,1.049,0,0,0,33.067,3.2V5.329a1.067,1.067,0,1,0,2.133,0V3.2a1.049,1.049,0,0,0-1.067-1.062Zm30.463.11L53.934,7.4a1.067,1.067,0,0,0-.51,1.385l1.9,4.385-4.975,6.442a1.067,1.067,0,0,0,1.227,1.652l13.135-5.037a1.067,1.067,0,0,0,.646-1.277L63.84,9.394l2.221-5.81A1.064,1.064,0,0,0,64.6,2.244Zm-37,3.4,1.512,1.5a1.067,1.067,0,0,0,1.512-1.5L29.113,4.133a1.017,1.017,0,0,0-.748-.31A1.07,1.07,0,0,0,27.6,5.646ZM39.154,4.134,37.641,5.646a1.067,1.067,0,0,0,1.512,1.5l1.512-1.5A1.07,1.07,0,0,0,39.9,3.823a1.018,1.018,0,0,0-.748.31Zm-34,1.2L12.48,8.881,10.733,12.9a1.067,1.067,0,0,0,.135,1.079l3.037,3.935L5.222,14.583l1.354-4.96a1.067,1.067,0,0,0-.032-.662Zm57.951,0L61.721,8.961a1.067,1.067,0,0,0-.032.662l1.354,4.96L54.36,17.912,57.4,13.977a1.067,1.067,0,0,0,.135-1.079L55.786,8.881Zm-43.6,5.008.314.316-.314.314a1.067,1.067,0,1,0,1.51,1.5l.312-.312.31.312a1.067,1.067,0,1,0,1.512-1.5l-.316-.314.316-.316a1.067,1.067,0,1,0-1.512-1.5l-.31.312-.312-.312a1.089,1.089,0,0,0-.817-.325,1.07,1.07,0,0,0-.694,1.829Zm27.723-1.5-.312.312-.31-.312a1.067,1.067,0,1,0-1.512,1.5l.317.316-.317.314a1.067,1.067,0,1,0,1.512,1.5l.31-.312.312.312a1.067,1.067,0,1,0,1.51-1.5l-.314-.314.314-.316a1.07,1.07,0,0,0-.694-1.829A1.091,1.091,0,0,0,47.237,8.842ZM32.248,13.017l-1.508,1.51a4.224,4.224,0,0,0-1.2,2.323,3.742,3.742,0,0,0-3.291,3.75,3.731,3.731,0,0,0-3.773,3.767,3.745,3.745,0,0,0-3.775,3.769,3.746,3.746,0,0,0-3.466,5.217,18.661,18.661,0,0,0-.937,3.419,8.454,8.454,0,0,1-1,2.571,1.049,1.049,0,0,0-1.44.1L2.427,49.393a1.067,1.067,0,0,0,1.552,1.465L12.662,41.7,27,56.047l-7.527,8.3a1.067,1.067,0,0,0,1.581,1.433l8.214-9.054a1.062,1.062,0,0,0-.008-1.442c1.28-1.118,3.151-2.5,5.291-4.1a20.349,20.349,0,0,0,3.346.9,8.453,8.453,0,0,1,2.569,1,1.063,1.063,0,0,0,.06,1.4L50.433,64.73a1.067,1.067,0,1,0,1.535-1.479L42.8,53.764,56.4,40.15,64.33,47.7A1.066,1.066,0,0,0,65.8,46.158l-8.685-8.269a1.067,1.067,0,0,0-.779-.292,1.079,1.079,0,0,0-.677.281c-.829-.96-1.719-2.194-2.717-3.6a3.744,3.744,0,0,0-2.731-5.335A3.735,3.735,0,0,0,47.2,24.418a3.714,3.714,0,0,0-.994-3.481,3.769,3.769,0,0,0-2.675-1.1,3.789,3.789,0,0,0-1.1-2.675,3.7,3.7,0,0,0-2.625-1.094c-.089,0-.19,0-.279,0a4.2,4.2,0,0,0-1.246-3.058,4.263,4.263,0,0,0-6.036,0Zm4.527,1.51a2.13,2.13,0,0,1,.012,3q-.761.76-1.521,1.523a2.134,2.134,0,1,1-3.019-3.017l1.51-1.508A2.125,2.125,0,0,1,35.25,13.9a2.158,2.158,0,0,1,1.525.631Zm4.146,4.15a1.586,1.586,0,0,1,0,2.26l-3.394,3.394a1.069,1.069,0,1,0,1.512,1.51l3.394-3.394a1.6,1.6,0,1,1,2.26,2.26C43.424,25.972,42.5,26.9,41.3,28.1a1.067,1.067,0,1,0,1.5,1.512l2.683-2.677a1.6,1.6,0,0,1,2.221,2.3c-1.252,1.252-2.208,2.211-3.394,3.394a1.067,1.067,0,1,0,1.512,1.5L48.465,31.5a1.6,1.6,0,1,1,2.26,2.26l-7.166,7.164c-5.771,5.772-12.255,9.661-15.81,12.85L14.841,40.863a9.681,9.681,0,0,0,1.531-3.587c.175-.714.307-1.392.454-1.969l.719.717a3.745,3.745,0,0,0,5.275,0A3.64,3.64,0,0,0,23.862,34a3.73,3.73,0,0,0,4.577-3.675,3.738,3.738,0,0,0,3.777-3.775,3.728,3.728,0,0,0,3.466-5.2,3.835,3.835,0,0,0,.8-.531c.244-.176,1.449-1.415,2.179-2.146a1.572,1.572,0,0,1,2.26,0ZM30.741,20.562A4.28,4.28,0,0,0,33.476,21.8a1.6,1.6,0,0,1-2.356,2.148c-.75-.745-1.583-1.578-2.277-2.269a1.6,1.6,0,0,1,.894-2.706,4.278,4.278,0,0,0,1,1.585Zm-3.4,2.637q1.132,1.131,2.264,2.267a1.6,1.6,0,1,1-2.264,2.256l-2.26-2.262a1.6,1.6,0,1,1,2.26-2.26Zm-3.771,3.771,2.262,2.26A1.6,1.6,0,1,1,23.57,31.5c-.752-.758-1.5-1.508-2.26-2.262a1.6,1.6,0,0,1,0-2.265,1.6,1.6,0,0,1,2.26,0Zm-4.9,3.3a1.591,1.591,0,0,1,1.135.467l1.5,1.512a1.6,1.6,0,1,1-2.258,2.26l-1.5-1.5a1.6,1.6,0,0,1,1.125-2.735Zm32.863,5.7a37.441,37.441,0,0,0,2.621,3.41L41.992,51.543A9.922,9.922,0,0,0,38.4,50.016c-.633-.155-1.234-.274-1.762-.4a83.212,83.212,0,0,0,8.431-7.179Z" fill="#ff5a20"/>
    </g>
  </g>
</svg>
