<svg xmlns="http://www.w3.org/2000/svg" xmlns:xlink="http://www.w3.org/1999/xlink" width="64" height="64" viewBox="0 0 64 64">
  <defs>
    <clipPath id="clip-path">
      <rect id="Rectángulo_373712" data-name="Rectángulo 373712" width="64" height="64" transform="translate(-3076 -6859)" fill="#ff5a20"/>
    </clipPath>
  </defs>
  <g id="Enmascarar_grupo_1059042" data-name="Enmascarar grupo 1059042" transform="translate(3076 6859)" clip-path="url(#clip-path)">
    <g id="hashtag" transform="translate(-3076 -6859)">
      <g id="Grupo_1064634" data-name="Grupo 1064634">
        <g id="Grupo_1064633" data-name="Grupo 1064633">
          <path id="Trazado_797363" data-name="Trazado 797363" d="M35.816,24.84a.98.98,0,0,0-.75-.35H29.856a.98.98,0,0,0-.965.809l-.921,5.224a.98.98,0,0,0,.965,1.15h5.209a.98.98,0,0,0,.965-.809l.921-5.224A.979.979,0,0,0,35.816,24.84Zm-2.493,4.875H30.1l.576-3.265H33.9Z" fill="#ff5a20"/>
        </g>
      </g>
      <g id="Grupo_1064636" data-name="Grupo 1064636">
        <g id="Grupo_1064635" data-name="Grupo 1064635">
          <path id="Trazado_797364" data-name="Trazado 797364" d="M45.265,26.449a3.592,3.592,0,1,0,0-7.184H42.459l.53-3a3.592,3.592,0,1,0-7.074-1.247l-.75,4.252h-3.22l.53-3A3.592,3.592,0,1,0,25.4,15.014l-.75,4.252H20.578a3.592,3.592,0,0,0,0,7.184h2.805l-.576,3.265H18.736a3.592,3.592,0,1,0,0,7.184h2.805l-.494,2.8a3.592,3.592,0,1,0,7.075,1.248l.714-4.049h3.22l-.494,2.8a3.592,3.592,0,1,0,7.075,1.248L39.35,36.9h4.072a3.592,3.592,0,0,0,0-7.184h-2.8l.576-3.265h4.072ZM38.7,31.324a.98.98,0,0,0,.75.35h3.972a1.633,1.633,0,0,1,0,3.265H38.528a.98.98,0,0,0-.965.809l-.857,4.858a1.629,1.629,0,0,1-1.6,1.35,1.635,1.635,0,0,1-1.611-1.917l.7-3.951a.98.98,0,0,0-.965-1.15H28.014a.98.98,0,0,0-.965.809l-.857,4.858a1.629,1.629,0,0,1-1.6,1.35,1.635,1.635,0,0,1-1.611-1.917l.7-3.951a.98.98,0,0,0-.965-1.15H18.736a1.633,1.633,0,0,1,0-3.265H23.63a.98.98,0,0,0,.965-.809l.921-5.224a.98.98,0,0,0-.965-1.15H20.578a1.633,1.633,0,0,1,0-3.265h4.894a.98.98,0,0,0,.965-.809l.892-5.061a1.633,1.633,0,0,1,3.216.567l-.732,4.154a.98.98,0,0,0,.965,1.15h5.209a.98.98,0,0,0,.965-.809l.892-5.061A1.629,1.629,0,0,1,39.449,14a1.635,1.635,0,0,1,1.61,1.916l-.732,4.154a.98.98,0,0,0,.965,1.15h3.973a1.632,1.632,0,1,1,0,3.265H40.37a.98.98,0,0,0-.965.809l-.921,5.224A.979.979,0,0,0,38.7,31.324Z" fill="#ff5a20"/>
        </g>
      </g>
      <g id="Grupo_1064638" data-name="Grupo 1064638">
        <g id="Grupo_1064637" data-name="Grupo 1064637">
          <path id="Trazado_797365" data-name="Trazado 797365" d="M54.748,3.308H9.252A9.342,9.342,0,0,0,0,12.717V43.274a9.342,9.342,0,0,0,9.252,9.409h.4l3.659,6.457a3.028,3.028,0,0,0,5.287,0l3.659-6.458H54.748A9.342,9.342,0,0,0,64,43.274V12.717A9.342,9.342,0,0,0,54.748,3.308Zm7.292,39.966a7.381,7.381,0,0,1-7.292,7.45H21.689a.98.98,0,0,0-.852.5L16.9,58.175a1.069,1.069,0,0,1-1.877,0l-3.94-6.954a.98.98,0,0,0-.852-.5H9.252a7.381,7.381,0,0,1-7.292-7.45V12.717a7.381,7.381,0,0,1,7.292-7.45h45.5a7.381,7.381,0,0,1,7.292,7.45V43.274Z" fill="#ff5a20"/>
        </g>
      </g>
    </g>
  </g>
</svg>
