<svg xmlns="http://www.w3.org/2000/svg" xmlns:xlink="http://www.w3.org/1999/xlink" width="64" height="64" viewBox="0 0 64 64">
  <defs>
    <clipPath id="clip-path">
      <rect id="Rectángulo_373718" data-name="Rectángulo 373718" width="64" height="64" transform="translate(-3425 -6399)" fill="#ff5a20"/>
    </clipPath>
  </defs>
  <g id="Enmascarar_grupo_1059044" data-name="Enmascarar grupo 1059044" transform="translate(3425 6399)" clip-path="url(#clip-path)">
    <g id="medios-de-comunicacion-social_1_" data-name="medios-de-comunicacion-social (1)" transform="translate(-3425.053 -6399)">
      <path id="Trazado_797370" data-name="Trazado 797370" d="M55.916,39.721a25.179,25.179,0,0,0,.008-15.438A12.544,12.544,0,0,0,51.143.005,12.566,12.566,0,0,0,39.76,8.119a25.185,25.185,0,0,0-15.419,0A12.541,12.541,0,1,0,8.184,24.276,25.184,25.184,0,0,0,8.19,39.721,12.562,12.562,0,0,0,.062,51.459a12.427,12.427,0,0,0,1.216,5.394.938.938,0,1,0,1.692-.808,10.564,10.564,0,0,1-1.034-4.586,10.667,10.667,0,1,1,3.447,7.852.938.938,0,1,0-1.27,1.38,12.541,12.541,0,0,0,20.233-4.833,25.188,25.188,0,0,0,15.409,0A12.541,12.541,0,1,0,55.916,39.721ZM43.747,5.218A10.6,10.6,0,0,1,51.2,1.879c.1,0,.206,0,.31,0a10.666,10.666,0,0,1,.3,21.327q-.155,0-.31,0A10.666,10.666,0,0,1,43.747,5.218Zm-4.515,48.84a23.312,23.312,0,0,1-14.357,0A12.545,12.545,0,0,0,9.991,39.193a23.3,23.3,0,0,1-.007-14.388,12.559,12.559,0,0,0,8.751-1.322.937.937,0,1,0-.918-1.635A10.673,10.673,0,1,1,20.855,19.3a.937.937,0,1,0,1.45,1.189A12.545,12.545,0,0,0,24.87,9.921a23.309,23.309,0,0,1,14.364,0A12.557,12.557,0,0,0,51.5,25.082c.121,0,.242,0,.364-.005a12.679,12.679,0,0,0,2.261-.269,23.3,23.3,0,0,1-.007,14.386A12.545,12.545,0,0,0,39.232,54.058ZM51.5,62.125A10.666,10.666,0,1,1,62.169,51.46,10.678,10.678,0,0,1,51.5,62.125Zm0,0" fill="#ff5a20"/>
      <path id="Trazado_797371" data-name="Trazado 797371" d="M18.988,7.007a.937.937,0,0,0-1.068.009,5.275,5.275,0,0,1-1.021.562,3.486,3.486,0,0,0-5.61,2.356A5.111,5.111,0,0,1,7.855,7.812a.938.938,0,0,0-1.624.158,7.933,7.933,0,0,0-.577,3.266A5.726,5.726,0,0,0,7.959,15.67a5.692,5.692,0,0,1-1.972.272A.938.938,0,0,0,5.5,17.7a9.455,9.455,0,0,0,4.586,1.226,8.267,8.267,0,0,0,4.21-1.134,7.837,7.837,0,0,0,3.421-4.175.973.973,0,0,0,.05-.14,9.741,9.741,0,0,0,.5-3.138c0-.049,0-.1,0-.147A5.333,5.333,0,0,0,19.372,8a.939.939,0,0,0-.384-1Zm-2.631,3.038a1.6,1.6,0,0,1,.028.3,7.9,7.9,0,0,1-.4,2.539.9.9,0,0,0-.036.109,5.938,5.938,0,0,1-2.612,3.186,6.447,6.447,0,0,1-3.761.855,7.467,7.467,0,0,0,.878-.512.938.938,0,0,0-.146-1.633A4.163,4.163,0,0,1,7.53,11.208a5.419,5.419,0,0,1,.034-.966,6.987,6.987,0,0,0,4.666,1.621.938.938,0,0,0,.914-.937v-.582a1.61,1.61,0,0,1,2.824-1.078.936.936,0,0,0,.43.28.941.941,0,0,0-.04.5Zm0,0" fill="#ff5a20"/>
      <path id="Trazado_797372" data-name="Trazado 797372" d="M48.418,13.28h1.329v5.59a.938.938,0,1,0,1.875,0V13.28h1.448a.938.938,0,0,0,0-1.875H51.622V8.782a1.636,1.636,0,0,1,1.634-1.633h1.214a.938.938,0,0,0,0-1.875H53.255a3.513,3.513,0,0,0-3.509,3.508v2.623H48.418a.938.938,0,1,0,0,1.875Zm0,0" fill="#ff5a20"/>
      <path id="Trazado_797373" data-name="Trazado 797373" d="M10.477,56.308a1.29,1.29,0,0,0,.645-.172L17.5,52.449a1.29,1.29,0,0,0,0-2.234l-6.381-3.686a1.29,1.29,0,0,0-1.935,1.117v7.372a1.29,1.29,0,0,0,1.29,1.29Zm.585-7.647,4.627,2.672L11.062,54Zm0,0" fill="#ff5a20"/>
      <path id="Trazado_797374" data-name="Trazado 797374" d="M55.576,44.819H47.429a2.57,2.57,0,0,0-2.566,2.567v8.146A2.57,2.57,0,0,0,47.429,58.1h8.147a2.57,2.57,0,0,0,2.566-2.567V47.386A2.57,2.57,0,0,0,55.576,44.819Zm.691,10.713a.692.692,0,0,1-.691.692H47.429a.692.692,0,0,1-.691-.692V47.386a.692.692,0,0,1,.691-.692h8.147a.692.692,0,0,1,.691.692Zm0,0" fill="#ff5a20"/>
      <path id="Trazado_797375" data-name="Trazado 797375" d="M51.5,48.626a2.834,2.834,0,1,0,2.834,2.834A2.837,2.837,0,0,0,51.5,48.626Zm0,3.792a.959.959,0,1,1,.959-.958A.96.96,0,0,1,51.5,52.418Zm0,0" fill="#ff5a20"/>
      <path id="Trazado_797376" data-name="Trazado 797376" d="M38.838,22.262a.937.937,0,0,0-.937.938v.42a27.971,27.971,0,0,1-4.139,2,27.961,27.961,0,0,1-3.52,1.093,1.081,1.081,0,0,0-.661-.227H25.289a1.882,1.882,0,0,0-1.88,1.88v4.923a1.882,1.882,0,0,0,1.88,1.88h.858l.325,6.251a.937.937,0,0,0,.936.889h.049a.938.938,0,0,0,.888-.985l-.32-6.153h1.557a1.079,1.079,0,0,0,.661-.226c.761.184,1.518.4,2.257.645a.938.938,0,1,0,.59-1.78c-.794-.264-1.607-.5-2.424-.692V28.542a29.9,29.9,0,0,0,3.771-1.171,29.891,29.891,0,0,0,3.464-1.6V35.888q-.618-.334-1.248-.637a.938.938,0,0,0-.812,1.69c.7.336,1.389.706,2.061,1.1v.418a.938.938,0,0,0,1.875,0V23.2a.937.937,0,0,0-.937-.937ZM28.791,33.3l-3.507,0,.005-4.929h3.5Zm0,0" fill="#ff5a20"/>
    </g>
  </g>
</svg>
