<svg xmlns="http://www.w3.org/2000/svg" xmlns:xlink="http://www.w3.org/1999/xlink" width="64" height="64" viewBox="0 0 64 64">
  <defs>
    <clipPath id="clip-path">
      <rect id="Rectángulo_373716" data-name="Rectángulo 373716" width="64" height="64" transform="translate(-3076 -6399)" fill="#ff5a20"/>
    </clipPath>
  </defs>
  <g id="Enmascarar_grupo_1059045" data-name="Enmascarar grupo 1059045" transform="translate(3076 6399)" clip-path="url(#clip-path)">
    <g id="llamada-a-la-accion" transform="translate(-3076 -6399)">
      <path id="Trazado_797377" data-name="Trazado 797377" d="M52.267,0H11.733A11.747,11.747,0,0,0,0,11.733v6.4A11.747,11.747,0,0,0,11.733,29.867H29.867V42.734a4.685,4.685,0,0,1-1.039-2.317,3.7,3.7,0,0,0-3.662-3.084,3.889,3.889,0,0,0-3.813,4.244A16.445,16.445,0,0,0,26.5,52.51l.451.482c.628.678,1.229,1.254,1.813,1.813C30.711,56.678,32,57.92,32,60.8A3.2,3.2,0,0,0,35.2,64H48a3.2,3.2,0,0,0,3.2-3.2V57.6c0-3.111.371-3.857.8-4.722.121-.243.244-.494.367-.786a13.385,13.385,0,0,0,.966-5.145V39.086a3.84,3.84,0,0,0-3.366-3.868,3.787,3.787,0,0,0-2.566.7,3.692,3.692,0,0,0-2.767-1.765,3.787,3.787,0,0,0-2.566.7A3.692,3.692,0,0,0,39.3,33.085a3.733,3.733,0,0,0-1.967.343V29.867H52.267A11.747,11.747,0,0,0,64,18.133v-6.4A11.747,11.747,0,0,0,52.267,0ZM37.857,35.616a1.59,1.59,0,0,1,1.239-.409,1.7,1.7,0,0,1,1.437,1.745v.917a1.067,1.067,0,1,0,2.133,0,1.6,1.6,0,0,1,1.763-1.6,1.7,1.7,0,0,1,1.437,1.749v.917a1.067,1.067,0,0,0,2.133,0,1.6,1.6,0,0,1,1.763-1.6A1.7,1.7,0,0,1,51.2,39.086v7.861a11.268,11.268,0,0,1-.8,4.325c-.1.243-.206.452-.307.657-.526,1.058-1.023,2.058-1.023,5.67v3.2A1.067,1.067,0,0,1,48,61.867H35.2A1.067,1.067,0,0,1,34.133,60.8c0-3.792-1.8-5.526-3.894-7.534-.559-.533-1.136-1.09-1.724-1.725l-.461-.494a14.262,14.262,0,0,1-4.579-9.679,1.742,1.742,0,0,1,1.756-1.9,1.534,1.534,0,0,1,1.493,1.321,6.365,6.365,0,0,0,3.764,4.983A1.067,1.067,0,0,0,32,44.8V22.021a1.707,1.707,0,0,1,1.43-1.746,1.627,1.627,0,0,1,1.77,1.591V36.8a1.067,1.067,0,0,0,2.133,0A1.588,1.588,0,0,1,37.857,35.616Zm24.01-17.483a9.611,9.611,0,0,1-9.6,9.6H37.333V21.867a3.774,3.774,0,0,0-4.116-3.714,3.854,3.854,0,0,0-3.35,3.869v5.712H11.733a9.611,9.611,0,0,1-9.6-9.6v-6.4a9.611,9.611,0,0,1,9.6-9.6H52.267a9.611,9.611,0,0,1,9.6,9.6Z" fill="#ff5a20"/>
      <path id="Trazado_797378" data-name="Trazado 797378" d="M16.037,12.986,10.221,8.969A2.453,2.453,0,0,0,6.4,10.916V18.95A2.453,2.453,0,0,0,10.222,20.9l5.817-4.018a2.357,2.357,0,0,0,0-3.894Zm-1.211,2.141L9.013,19.141c-.163.107-.477.045-.477-.191V10.917c0-.23.315-.3.476-.192l5.814,4.015a.227.227,0,0,1,0,.386Z" fill="#ff5a20"/>
      <path id="Trazado_797379" data-name="Trazado 797379" d="M34.133,6.4a1.067,1.067,0,0,0-1.067,1.067v6.4a1.067,1.067,0,1,0,2.133,0v-6.4A1.067,1.067,0,0,0,34.133,6.4Z" fill="#ff5a20"/>
      <path id="Trazado_797380" data-name="Trazado 797380" d="M44.42,9.85a1.067,1.067,0,0,0-1.5.13L38.65,15.052a1.068,1.068,0,1,0,1.634,1.375l4.267-5.071a1.067,1.067,0,0,0-.13-1.506Z" fill="#ff5a20"/>
      <path id="Trazado_797381" data-name="Trazado 797381" d="M25.35,9.98a1.067,1.067,0,0,0-1.634,1.374l4.267,5.071a1.067,1.067,0,1,0,1.634-1.373Z" fill="#ff5a20"/>
      <path id="Trazado_797382" data-name="Trazado 797382" d="M26.667,20.267h-6.4a1.067,1.067,0,1,0,0,2.133h6.4a1.067,1.067,0,1,0,0-2.133Z" fill="#ff5a20"/>
      <path id="Trazado_797383" data-name="Trazado 797383" d="M48,20.267H41.6a1.067,1.067,0,0,0,0,2.133H48a1.067,1.067,0,0,0,0-2.133Z" fill="#ff5a20"/>
    </g>
  </g>
</svg>
