<svg xmlns="http://www.w3.org/2000/svg" xmlns:xlink="http://www.w3.org/1999/xlink" width="64" height="64" viewBox="0 0 64 64">
  <defs>
    <clipPath id="clip-path">
      <rect id="Rectángulo_373715" data-name="Rectángulo 373715" width="64" height="64" transform="translate(-2727 -6399)" fill="#ff5a20"/>
    </clipPath>
  </defs>
  <g id="Enmascarar_grupo_1059046" data-name="Enmascarar grupo 1059046" transform="translate(2727 6399)" clip-path="url(#clip-path)">
    <g id="megafono" transform="translate(-2728.574 -6400.049)">
      <path id="Trazado_797384" data-name="Trazado 797384" d="M38.82,56.656h-2.1V46.374a1.049,1.049,0,0,0-2.1,0V56.656H7.344V35.672h8.729a1.049,1.049,0,1,0,0-2.1H6.3a1.049,1.049,0,0,0-1.049,1.049V56.656h-2.1A1.049,1.049,0,0,0,2.1,57.7v2.1a5.246,5.246,0,0,0,5.246,5.246H34.623A5.246,5.246,0,0,0,39.869,59.8V57.7A1.049,1.049,0,0,0,38.82,56.656ZM37.77,59.8a3.148,3.148,0,0,1-3.148,3.148h-2.1V61.9a1.049,1.049,0,0,0-2.1,0v1.049H11.541V61.9a1.049,1.049,0,0,0-2.1,0v1.049h-2.1A3.148,3.148,0,0,1,4.2,59.8V58.754H37.77Z" fill="#ff5a20"/>
      <path id="Trazado_797385" data-name="Trazado 797385" d="M56.656,8.393h2.1a1.049,1.049,0,0,0,0-2.1h-2.1a3.148,3.148,0,0,0-3.148,3.148v1.049H52.459a1.049,1.049,0,1,0,0,2.1h1.049v3.148a1.049,1.049,0,0,0,2.1,0V12.59h1.049a1.049,1.049,0,0,0,0-2.1H55.607V9.443A1.049,1.049,0,0,1,56.656,8.393Z" fill="#ff5a20"/>
      <path id="Trazado_797386" data-name="Trazado 797386" d="M61.9,2.1H49.311a3.148,3.148,0,0,0-3.148,3.148v2.1a1.049,1.049,0,1,0,2.1,0v-2.1A1.049,1.049,0,0,1,49.311,4.2H61.9a1.049,1.049,0,0,1,1.049,1.049v12.59A1.049,1.049,0,0,1,61.9,18.885H49.311a1.049,1.049,0,0,1-1.049-1.049v-6.3a1.049,1.049,0,1,0-2.1,0v6.3a3.148,3.148,0,0,0,3.148,3.148H61.9a3.148,3.148,0,0,0,3.148-3.148V5.246A3.148,3.148,0,0,0,61.9,2.1Z" fill="#ff5a20"/>
      <path id="Trazado_797387" data-name="Trazado 797387" d="M51.41,44.066a4.2,4.2,0,1,0,4.2-4.2A4.2,4.2,0,0,0,51.41,44.066Zm6.3,0a2.1,2.1,0,1,1-2.1-2.1A2.1,2.1,0,0,1,57.7,44.066Z" fill="#ff5a20"/>
      <path id="Trazado_797388" data-name="Trazado 797388" d="M61.9,34.623H49.311a3.148,3.148,0,0,0-3.148,3.148v12.59a3.148,3.148,0,0,0,3.148,3.148H61.9a3.148,3.148,0,0,0,3.148-3.148v-2.1a1.049,1.049,0,0,0-2.1,0v2.1A1.049,1.049,0,0,1,61.9,51.41H49.311a1.049,1.049,0,0,1-1.049-1.049V37.77a1.049,1.049,0,0,1,1.049-1.049H61.9a1.049,1.049,0,0,1,1.049,1.049v6.3a1.049,1.049,0,0,0,2.1,0v-6.3A3.148,3.148,0,0,0,61.9,34.623Z" fill="#ff5a20"/>
      <path id="Trazado_797389" data-name="Trazado 797389" d="M25.673,14.531a1.044,1.044,0,0,0,1.028.042L33,11.426a1.049,1.049,0,0,0,0-1.868L26.7,6.41a1.049,1.049,0,0,0-1.521.934v6.3A1.049,1.049,0,0,0,25.673,14.531Zm1.605-5.487,2.9,1.448-2.9,1.448Z" fill="#ff5a20"/>
      <path id="Trazado_797390" data-name="Trazado 797390" d="M28.328,19.934a9.443,9.443,0,1,0-9.443-9.443A9.443,9.443,0,0,0,28.328,19.934Zm0-16.787a7.344,7.344,0,1,1-7.344,7.344,7.344,7.344,0,0,1,7.344-7.344Z" fill="#ff5a20"/>
      <path id="Trazado_797391" data-name="Trazado 797391" d="M38.82,24.131a1.049,1.049,0,0,0,.839-.42l3.148-4.2a1.049,1.049,0,1,0-1.679-1.259l-3.148,4.2a1.049,1.049,0,0,0,.839,1.679Z" fill="#ff5a20"/>
      <path id="Trazado_797392" data-name="Trazado 797392" d="M41.128,27.908a1.049,1.049,0,0,0,1.469.21l4.2-3.148a1.049,1.049,0,1,0-1.259-1.679l-4.2,3.148a1.049,1.049,0,0,0-.21,1.469Z" fill="#ff5a20"/>
      <path id="Trazado_797393" data-name="Trazado 797393" d="M51.41,30.216a1.049,1.049,0,0,0-1.259-.839L44.9,30.426a1.054,1.054,0,0,0,.21,2.1h.21l5.246-1.049a1.049,1.049,0,0,0,.839-1.259Z" fill="#ff5a20"/>
      <path id="Trazado_797394" data-name="Trazado 797394" d="M3.148,30.426h12.59a1.049,1.049,0,0,0,1.049-1.049V12.59a1.049,1.049,0,0,0-1.049-1.049H3.148A1.049,1.049,0,0,0,2.1,12.59V29.377A1.049,1.049,0,0,0,3.148,30.426ZM4.2,13.639H14.689V28.328H4.2Z" fill="#ff5a20"/>
      <path id="Trazado_797395" data-name="Trazado 797395" d="M11.541,15.738h-2.1a1.049,1.049,0,0,0,0,2.1h2.1a1.049,1.049,0,0,0,0-2.1Z" fill="#ff5a20"/>
      <path id="Trazado_797396" data-name="Trazado 797396" d="M11.541,19.934h-4.2a1.049,1.049,0,1,0,0,2.1h4.2a1.049,1.049,0,1,0,0-2.1Z" fill="#ff5a20"/>
      <path id="Trazado_797397" data-name="Trazado 797397" d="M11.541,24.131h-4.2a1.049,1.049,0,0,0,0,2.1h4.2a1.049,1.049,0,0,0,0-2.1Z" fill="#ff5a20"/>
      <path id="Trazado_797398" data-name="Trazado 797398" d="M37.9,30.111a1.053,1.053,0,1,0-1.826,1.049L40.7,39.166l-16.787,6.3h-.157l-2.728,1.574L19.21,48.084a2.095,2.095,0,0,1-2.864-.766l-2.1-3.63a2.1,2.1,0,0,1,.787-2.77l3.63-2.1,2.623,4.543a1.053,1.053,0,1,0,1.826-1.049l-2.707-4.679L33.574,26.775l.43.745a1.053,1.053,0,0,0,1.826-1.049L34.78,24.656a1.063,1.063,0,0,0-1.584-.283L18.508,36.48l-4.47,2.581a4.2,4.2,0,0,0-1.93,4.753l-1.049.6a3.145,3.145,0,0,0,1.574,5.875,3.211,3.211,0,0,0,1.574-.42l1.049-.6a4.071,4.071,0,0,0,1.836,1.091,3.976,3.976,0,0,0,1.1.147,4.134,4.134,0,0,0,2.1-.567l.913-.525,2.1,3.641a3.145,3.145,0,1,0,5.445-3.148l-1.91-3.326,15.738-5.907a1.052,1.052,0,0,0,.546-1.5ZM13.115,48.042a1.048,1.048,0,1,1-1.049-1.815l.913-.525,1.049,1.815ZM26.922,50.98a1.048,1.048,0,0,1-1.815,1.049l-2.1-3.641,1.742-1h.084Z" fill="#ff5a20"/>
    </g>
  </g>
</svg>
